<svg xmlns="http://www.w3.org/2000/svg" viewBox="0 0 36 36" xml:space="preserve"><path d="M 35 18 C 35 27.389 27.389 35 18 35 C 8.612 35 1 27.389 1 18 C 1 8.612 8.612 1 18 1 C 27.389 1 35 8.612 35 18" fill="#ffcc4d" id="00"></path><ellipse fill="#65471B" cx="18" cy="28" rx="4" ry="3" id="01"></ellipse><path d="M 27.899 14.557 A 4.5 4.5 0 1 1 19.099 16.442 A 4.5 4.5 0 0 1 27.899 14.557 Z" fill="#f4f7f9" id="02"></path><ellipse fill="#292F33" cx="23.5" cy="16.498" rx="2.5" ry="2.498" id="03"></ellipse><path d="M 9.037000000000003 9.931 A 1 1 0 0 1 8.590000000000003 8.036 A 9.94 9.94 0 0 1 15.203000000000003 7.2139999999999995 A 1 1 0 1 1 14.777000000000003 9.168 A 7.949 7.949 0 0 0 9.482000000000003 9.825999999999999 A 0.999 0.999 0 0 1 9.037000000000003 9.931 Z" fill="#65471b" id="04"></path><path d="M 26.963 9.931 A 0.999 0.999 0 0 1 26.518 9.825999999999999 A 7.949 7.949 0 0 0 21.223 9.168 A 1 1 0 1 1 20.797 7.2139999999999995 A 9.932 9.932 0 0 1 27.41 8.036 A 1 1 0 0 1 26.963 9.931 Z" fill="#65471b" id="05"></path><path d="M 13.995 13.645 L 14.318999999999999 13.171999999999999 S 15.027 12.139999999999999 16.058 12.847999999999999 C 17.09 13.556 16.383 14.587 16.383 14.587 L 15.7 15.584 C 15.867999999999999 15.712 16.032 15.843 16.191 15.972999999999999 C 16.191 15.972999999999999 16.898999999999997 14.940999999999999 17.93 15.649 C 18.962 16.357 18.255 17.387999999999998 18.255 17.387999999999998 L 16.88 19.328 C 17.018 19.512 17.243 19.617 17.355999999999998 19.805 C 17.355999999999998 19.805 18.063999999999997 18.773 19.095 19.48 C 20.128 20.188 19.419999999999998 21.22 19.419999999999998 21.22 L 13.758999999999999 29.476999999999997 A 7.51 7.51 0 0 1 3.320999999999998 31.423 A 7.51 7.51 0 0 1 0.8559999999999981 21.863999999999997 C 1.444999999999998 20.693999999999996 1.8899999999999981 19.456999999999997 2.306999999999998 18.215999999999998 L 3.360999999999998 15.084999999999997 S 3.702999999999998 13.880999999999997 4.905999999999998 14.221999999999998 C 6.108999999999998 14.563999999999998 5.767999999999998 15.766999999999998 5.767999999999998 15.766999999999998 L 4.854999999999998 20.334999999999997 C 5.0269999999999975 20.452999999999996 5.1919999999999975 20.574999999999996 5.3489999999999975 20.700999999999997 L 11.385999999999997 11.916999999999996 S 12.093999999999998 10.884999999999996 13.124999999999998 11.592999999999996 S 13.448999999999998 13.331999999999997 13.448999999999998 13.331999999999997 L 13.994999999999997 13.644999999999998 Z" fill="#f19020" id="06"></path><path d="M 34.764 24.896 L 35.608000000000004 19.305 A 1.069 1.069 0 0 0 34.711000000000006 18.088 L 34.587 18.069000000000003 A 1.07 1.07 0 0 0 33.370000000000005 18.967000000000002 L 32.853 22.389000000000003 L 32.849000000000004 22.403000000000002 C 32.647000000000006 23.698 31.544000000000004 23.622000000000003 31.129000000000005 21.634000000000004 C 31.117000000000004 21.577000000000005 31.098000000000006 21.526000000000003 31.083000000000006 21.472000000000005 L 29.531000000000006 13.782000000000004 A 0.99 0.99 0 0 0 28.365000000000006 13.007000000000003 L 28.087000000000007 13.063000000000002 C 27.551000000000005 13.171000000000003 27.248000000000008 13.618000000000002 27.356000000000005 14.154000000000002 L 28.676000000000005 20.937 C 28.681000000000004 20.974 28.680000000000007 21.006 28.688000000000006 21.045 C 28.969000000000005 22.44 28.293000000000006 22.265 28.050000000000004 20.740000000000002 A 1.388 1.388 0 0 0 27.993000000000006 20.522000000000002 L 26.69 14.29 L 26.607000000000003 13.879 C 26.491000000000003 13.305 25.985000000000003 12.91 25.411 13.026 L 25.273 13.054 A 1.06 1.06 0 0 0 24.443 14.304 L 25.851000000000003 21.282 C 25.853 21.417 25.863000000000003 21.558 25.893000000000004 21.712 C 26.187000000000005 23.218 25.312000000000005 22.482 24.786000000000005 21.759 L 24.785000000000004 21.758 L 20.367000000000004 15.767 A 1.062 1.062 0 0 0 18.883000000000003 15.543 L 18.769000000000002 15.626999999999999 A 1.06 1.06 0 0 0 18.545 17.11 L 19.694000000000003 18.608999999999998 L 22.826000000000004 22.903 C 22.835000000000004 22.918 22.840000000000003 22.933 22.850000000000005 22.948 C 23.785000000000004 24.331 23.732000000000006 24.905 22.812000000000005 23.85 L 19.412000000000006 19.238 C 19.338000000000005 19.137999999999998 19.242000000000004 19.075 19.144000000000005 19.009999999999998 A 1.012 1.012 0 0 0 17.977000000000004 19.022 L 17.807000000000002 19.148 A 1.027 1.027 0 0 0 17.590000000000003 20.583 L 20.333000000000002 24.302 C 20.852 25.006999999999998 21.307000000000002 27.07 21.886000000000003 28.549 C 22.466 30.028 25.484 34.432 30.686000000000003 32.391999999999996 C 35.34 30.567999999999994 34.738 26.809999999999995 34.764 24.895999999999994 Z" fill="#f19020" id="07"></path><g fill="#B55005" id="08"><path d="M 27.357999999999997 14.153999999999998 L 28.965999999999998 21.974999999999998 A 0.34 0.34 0 0 1 28.298999999999996 22.112 L 26.690999999999995 14.290999999999999 L 27.357999999999997 14.153999999999998 Z" fill="#000000"></path><path d="M 19.695999999999998 18.608999999999998 L 23.822999999999997 24.284999999999997 A 0.341 0.341 0 0 1 23.548999999999996 24.826999999999998 A 0.338 0.338 0 0 1 23.273999999999997 24.686999999999998 L 19.147 19.010999999999996 L 19.695999999999998 18.608999999999995 Z" fill="#000000"></path><path d="M 17.456 19.691 L 13.745 25.591 A 0.34 0.34 0 0 1 13.274999999999999 25.698 A 0.341 0.341 0 0 1 13.168 25.228 L 16.878999999999998 19.328000000000003 L 17.455999999999996 19.691000000000003 Z" fill="#000000"></path><path d="M 16.247 15.969999999999999 L 11.242 23.796 A 0.34 0.34 0 0 1 10.772 23.899 A 0.34 0.34 0 0 1 10.668000000000001 23.429000000000002 L 15.673000000000002 15.603000000000002 L 16.247000000000003 15.970000000000002 Z" fill="#000000"></path><path d="M 13.997 13.667 L 8.482 22.066 A 0.339 0.339 0 0 1 8.011 22.163999999999998 A 0.34 0.34 0 0 1 7.912999999999999 21.692999999999998 L 13.427999999999999 13.293999999999999 L 13.997 13.666999999999998 Z" fill="#000000"></path><path d="M 17.592 20.584 C 17.413999999999998 20.342 17.366999999999997 19.973 17.435 19.678 L 16.756 19.585 C 16.642 20.073 16.747 20.584 17.043 20.988 L 18.358 22.77 L 18.766000000000002 22.175 L 17.592000000000002 20.584 Z" fill="#000000"></path></g></svg>