<svg xmlns="http://www.w3.org/2000/svg" viewBox="0 0 36 36"><path d="M 34 16 C 34 6 26.837 0 18 0 C 9.164 0 2 6 2 16 C 2 21.573999999999998 2.002 26.387999999999998 8 28.64 V 33 C 8 34.657 9.343 36 11 36 S 14 34.657 14 33 V 29.845 C 14.324 29.872 14.659 29.895 15 29.915 V 33 C 15 34.657 16.343 36 18 36 S 21 34.657 21 33 V 29.915 C 21.342 29.894 21.676 29.872 22 29.845 V 33 C 22 34.657 23.344 36 25 36 C 26.657 36 28 34.657 28 33 V 28.64 C 33.998 26.388 34 21.574 34 16 Z" fill="#ccd6dd" id="00"></path><circle fill="#292F33" cx="11" cy="14" r="5" id="01"></circle><circle fill="#292F33" cx="25" cy="14" r="5" id="02"></circle><path d="M 19.903 23.062 C 19.651 22.449 18.9 22 18 22 S 16.348 22.449 16.097 23.062 C 15.465000000000002 23.238 15.000000000000002 23.812 15.000000000000002 24.5 C 15.000000000000002 25.328 15.671000000000001 26 16.5 26 C 17.155 26 17.706 25.578 17.91 24.993 C 17.94 24.994 17.969 25 18 25 S 18.06 24.994 18.09 24.993 C 18.294999999999998 25.578 18.846 26 19.5 26 C 20.328 26 21 25.328 21 24.5 C 21 23.812 20.534 23.239 19.903 23.062 Z" fill="#292f33" id="03"></path></svg>