<svg xmlns="http://www.w3.org/2000/svg" viewBox="0 0 36 36"><path d="M 33.541 23.198 C 33.904999999999994 21.62 33.784 19.932000000000002 33.083 18.252000000000002 C 32.405 16.627000000000002 31.235999999999997 15.342000000000002 29.811999999999998 14.479000000000003 C 30.13 13.287000000000003 30.046 12.004000000000003 29.487999999999996 10.729000000000003 C 28.646999999999995 8.809000000000003 26.827999999999996 7.528000000000002 24.775999999999996 7.167000000000003 C 25.024999999999995 6.595000000000003 25.104999999999997 5.878000000000004 24.811999999999998 5.0000000000000036 C 23.811999999999998 2.0000000000000036 19.811999999999998 4.0000000000000036 16.811999999999998 0.0010000000000038867 C 14.371999999999998 1.4650000000000039 13.841999999999997 3.641000000000004 13.933999999999997 5.488000000000004 C 11.512999999999998 5.900000000000004 10.133999999999997 6.424000000000004 10.133999999999997 6.424000000000004 V 6.426000000000004 C 8.773999999999997 6.9760000000000035 7.811999999999997 8.309000000000005 7.811999999999997 9.868000000000004 C 7.811999999999997 10.747000000000003 8.129999999999997 11.544000000000004 8.639999999999997 12.180000000000003 L 7.947999999999997 12.438000000000002 L 7.948999999999997 12.441000000000003 C 5.618999999999997 13.312000000000003 3.973999999999997 15.417000000000002 3.973999999999997 17.880000000000003 C 3.973999999999997 18.927000000000003 4.273999999999997 19.907000000000004 4.793999999999997 20.758000000000003 C 1.971 22.027 0 24.781 0 28 C 0 32.418 3.691 36 8.244 36 C 11.513 36 14.803 35.297 17.775 34.335 C 20.018 35.375 23.47 36 28.667 36 C 32.717 36 36 32.717 36 28.667 C 36 26.491 35.047 24.542 33.541 23.198 Z" fill="#bf6952" id="00"></path><ellipse fill="#F5F8FA" cx="13.5" cy="15.5" rx="3.5" ry="4.5" id="01"></ellipse><ellipse fill="#F5F8FA" cx="23.5" cy="15.5" rx="3.5" ry="4.5" id="02"></ellipse><ellipse fill="#292F33" cx="14" cy="15.5" rx="2" ry="2.5" id="03"></ellipse><ellipse fill="#292F33" cx="23" cy="15.5" rx="2" ry="2.5" id="04"></ellipse><path d="M 9.447 24.895 C 9.201 24.402 9.45 24 10 24 H 28 C 28.55 24 28.799 24.402 28.553 24.895 C 28.553 24.895 26 30 19 30 S 9.447 24.895 9.447 24.895 Z" fill="#292f33" id="05"></path><path d="M 19 26 C 16.229 26 13.843 26.922 12.708 28.256 C 14.2 29.211 16.253 30 19 30 S 23.801000000000002 29.211 25.292 28.256 C 24.157 26.922 21.771 26 19 26 Z" fill="#f2abba" id="06"></path></svg>