<svg xmlns="http://www.w3.org/2000/svg" viewBox="0 0 36 36"><path d="M 36 18 C 36 27.941000000000003 27.941000000000003 36 18 36 S 0 27.941 0 18 S 8.059 0 18 0 S 36 8.059 36 18" fill="#ffd983" id="00"></path><g fill="#FFCC4D" id="01"><circle cx="9.5" cy="7.5" r="3.5"></circle><circle cx="24.5" cy="28.5" r="3.5"></circle><circle cx="22" cy="5" r="2"></circle><circle cx="3" cy="18" r="1"></circle><circle cx="30" cy="9" r="1"></circle><circle cx="16" cy="31" r="1"></circle><circle cx="32" cy="19" r="2"></circle><circle cx="6" cy="26" r="2"></circle></g><path d="M 18 24.904 C 11 24.904 9 22.286 9 23.523 C 9 24.762 13 28 18 28 S 27 24.762 27 23.523 C 27 22.286 25 24.904 18 24.904" fill="#292f33" id="02"></path><path d="M 27 15 C 27 16.657 25.656 18 24 18 S 21 16.657 21 15 S 22.344 12 24 12 S 27 13.343 27 15" fill="#292f33" id="03"></path><path d="M 15 15 C 15 16.657 13.656 18 12 18 S 9 16.657 9 15 S 10.344 12 12 12 S 15 13.343 15 15" fill="#292f33" id="04"></path></svg>