<svg xmlns="http://www.w3.org/2000/svg" viewBox="0 0 36 36"><path d="M 15 27 V 33 S 15 36 18 36 S 21 33 21 33 V 27 H 15 Z" fill="#dd2e44" id="00"></path><path d="M 15 33 L 15.001 33.037 C 16.041999999999998 33.002 17.017 32.763 17.633 31.750999999999998 C 17.804 31.47 18.195999999999998 31.47 18.368 31.750999999999998 C 18.983999999999998 32.762 19.959 33.001999999999995 21 33.037 V 27 H 15 V 33 Z" fill="#be1931" id="01"></path><path d="M 31.954 21.619 C 31.954 27.895 26.954 27.895 26.954 27.895 H 8.954 S 3.9540000000000006 27.895 3.9540000000000006 21.619 C 3.9540000000000006 14.895 8.954 3 17.954 3 S 31.954 15.895 31.954 21.619 Z" fill="#d99e82" id="02"></path><path d="M 18 20 C 11 20 8 23.527 8 26.395 C 8 29.432 10.462 31.895 13.5 31.895 C 15.105 31.895 16.542 31.230999999999998 17.549 29.128 C 17.733999999999998 28.742 18.265 28.742 18.45 29.128 C 19.457 31.231 20.895 31.895 22.499 31.895 C 25.537 31.895 27.999 29.432 27.999 26.395 C 28 23.527 25 20 18 20 Z" fill="#f4c7b5" id="03"></path><path d="M 23 19 C 21.9 19 21 18.1 21 17 V 15 C 21 13.9 21.9 13 23 13 S 25 13.9 25 15 V 17 C 25 18.1 24.1 19 23 19 Z" fill="#292f33" id="04"></path><path d="M 13 19 C 11.9 19 11 18.1 11 17 V 15 C 11 13.9 11.9 13 13 13 S 15 13.9 15 15 V 17 C 15 18.1 14.1 19 13 19 Z" fill="#292f33" id="05"></path><path d="M 15 22.895 C 14 23.895 17 26.895 18 26.895 S 22 23.895 21 22.895 S 16 21.895 15 22.895 Z" fill="#292f33" id="06"></path><path d="M 33.172 4.2 C 24.319 0.881 22.059 2.199 21 3.608 C 23.5 4.8580000000000005 25.65 6.2989999999999995 27.644 9.109 C 27.641 9.31 27.639 9.513 27.639 9.734 C 27.639 18.586 30.958 18.586 32.065 18.586 C 35.291999999999994 17.804 37.315999999999995 5.753999999999998 33.172 4.199999999999999 Z" fill="#662113" id="07"></path><path d="M 15 3.608 C 13.941 2.199 11.681 0.881 2.828 4.2 C -1.316 5.754 0.708 17.804 3.935 18.585 C 5.041 18.585 8.361 18.585 8.361 9.733 C 8.361 9.513 8.359 9.31 8.356 9.108 C 10.35 6.298 12.5 4.857 15 3.608 Z" fill="#662113" id="08"></path><circle fill="#D99E82" cx="23.5" cy="25.5" r=".5" id="09"></circle><circle fill="#D99E82" cx="11.5" cy="25.5" r=".5" id="10"></circle><circle fill="#D99E82" cx="25.5" cy="27.5" r=".5" id="11"></circle><circle fill="#D99E82" cx="10.5" cy="27.5" r=".5" id="12"></circle><circle fill="#D99E82" cx="23" cy="28" r="1" id="13"></circle><circle fill="#D99E82" cx="13" cy="28" r="1" id="14"></circle><path d="M 26.099999999999998 7.232 C 26.358999999999998 6.5600000000000005 26.733999999999998 5.835 27.275999999999996 5.293 C 27.666999999999994 4.902 28.298999999999996 4.902 28.689999999999998 5.293 S 29.080999999999996 6.316 28.689999999999998 6.707 C 28.119999999999997 7.277 27.624 8.641 27.621999999999996 9.053 C 27.476999999999997 8.649000000000001 26.782999999999998 7.9030000000000005 26.099999999999998 7.232000000000001 Z" fill="#380f09" id="15"></path><path d="M 9.883 7.232 C 9.623999999999999 6.559 9.248999999999999 5.835 8.706999999999999 5.293 C 8.315999999999999 4.902 7.683999999999999 4.902 7.292999999999999 5.293 S 6.901999999999999 6.316 7.292999999999999 6.707 C 7.8629999999999995 7.277 8.359 8.641 8.360999999999999 9.053 C 8.505999999999998 8.649000000000001 9.2 7.9030000000000005 9.883 7.232000000000001 Z" fill="#380f09" id="16"></path></svg>