<svg xmlns="http://www.w3.org/2000/svg" viewBox="0 0 36 36">
    <circle fill="#FFCC4D" cx="18" cy="18" r="18" id="00"></circle>
    <path d="M 14.034 14.499 C 14.034 16.433 12.915000000000001 17.999000000000002 11.534 17.999000000000002 S 9.034 16.433000000000003 9.034 14.499000000000002 C 9.034 12.566000000000003 10.153 10.999000000000002 11.534 10.999000000000002 S 14.034 12.566000000000003 14.034 14.499000000000002" fill="#664500" id="01"></path>
    <path d="M 27.034 14.499000000000002 C 27.034 16.433000000000003 25.915 17.999000000000002 24.534 17.999000000000002 S 22.034 16.433000000000003 22.034 14.499000000000002 C 22.034 12.566000000000003 23.153 10.999000000000002 24.534 10.999000000000002 S 27.034 12.566000000000003 27.034 14.499000000000002" fill="#664500" id="02"></path>
    <path d="M 25.000999999999998 27.004000000000005 H 10 C 9 27.004000000000005 9 26.004000000000005 9 26.004000000000005 V 25.004000000000005 S 9 24.001000000000005 10 24.001000000000005 L 25.000999999999998 24.004000000000005 V 27.004000000000005 Z" fill="#664500" id="03"></path>
    <path d="M 31.483000000000004 32.155 L 28.839000000000006 29.907 L 30.453000000000007 26.838 L 33.791000000000004 27.970000000000002 L 31.483000000000004 32.155 Z" fill="#99aab5" id="04"></path>
    <path d="M 35.255 26.084 L 27.542 23.963 C 26.822000000000003 23.766000000000002 26.493000000000002 24.25 26.371000000000002 24.51 L 24.731 23.726000000000003 L 24 25.255 V 23.000999999999998 H 22 V 25.000999999999998 H 20 V 23.000999999999998 H 17.999 V 25.000999999999998 H 16 V 23.000999999999998 H 14 V 25.000999999999998 H 12 V 23.000999999999998 H 10 V 26.000999999999998 H 12 V 28.000999999999998 H 14 V 26.000999999999998 H 15.999 V 28.000999999999998 H 17.999000000000002 V 26.000999999999998 H 20 V 28.000999999999998 H 22 V 26.000999999999998 H 23.643 L 23.063000000000002 27.212999999999997 L 24.711000000000002 28.000999999999998 L 24.612000000000002 28.208 S 24.364 28.944999999999997 24.985000000000003 29.482999999999997 C 25.606 30.019999999999996 30.270000000000003 34.217999999999996 30.270000000000003 34.217999999999996 S 31.169000000000004 35.083999999999996 32.039 34.297 C 32.777 33.626999999999995 35.688 28.276999999999997 35.953 27.313999999999997 C 36.219 26.349999999999998 35.255 26.083999999999996 35.255 26.083999999999996 Z" fill="#99aab5" id="05"></path>
</svg>