<svg xmlns="http://www.w3.org/2000/svg" viewBox="0 0 36 36" xml:space="preserve"><path d="M 35.07 32.558 A 1.92 1.92 0 0 0 35.906 30.317 C 35.647 29.507 34.836 29 33.985 29 H 32 A 1 1 0 0 1 32 27 H 33.5 A 1.5 1.5 0 1 0 33.46 24 C 32.660000000000004 24.021 32 23.377 32 22.576999999999998 V 22.573999999999998 C 32 22.281 32.06 21.996 32.176 21.726999999999997 A 15.294 15.294 0 0 0 33.47 14.535999999999998 C 32.978 6.66 26.411 0.269 18.524 0.009 C 9.724 -0.281 2.5 6.766 2.5 15.5 C 2.5 17.871 3.048 20.109 4 22.119 V 23.999 C 4 25.084999999999997 3.135 26.02 2.049 25.999 A 2 2 0 0 0 0.015000000000000124 28.165999999999997 C 0.101 29.225 1.069 30 2.133 30 H 10.172 A 1.17 1.17 0 0 1 11 32 L 7.970000000000001 32.757 A 1.281 1.281 0 0 0 7.970000000000001 35.242 C 9.902000000000001 35.724999999999994 11.884 35.979 13.875 35.998 L 16.587 36.024 C 17.993 36.038000000000004 19.39 35.714 20.616 35.024 A 8.289 8.289 0 0 1 26.258 34.111000000000004 C 29.285999999999998 34.699000000000005 32.425 34.145 35.07 32.55800000000001 Z" fill="#ffcc4d" id="00"></path><path d="M 18.736 24.003 C 17.982 24.003 17.232 23.925 16.492 23.769 C 13.799000000000001 23.197999999999997 11.489 21.653999999999996 10.154 19.532999999999998 A 1 1 0 0 1 11.846 18.467 C 12.879 20.108999999999998 14.771 21.358999999999998 16.906 21.811999999999998 C 18.673 22.186999999999998 21.412999999999997 22.205 24.442 20.169999999999998 A 1 1 0 0 1 25.558 21.83 C 23.429 23.259999999999998 21.069 24.003 18.736 24.003 Z" fill="#65471b" id="01"></path><ellipse fill="#65471B" cx="14" cy="12" rx="2" ry="3" id="02"></ellipse><ellipse fill="#65471B" cx="23" cy="14" rx="2" ry="3" id="03"></ellipse></svg>