<svg xmlns="http://www.w3.org/2000/svg" viewBox="0 0 36 36"><path d="M 36 18 C 36 27.941000000000003 27.941000000000003 36 18 36 S 0 27.941 0 18 S 8.059 0 18 0 S 36 8.059 36 18" fill="#ffcc4d" id="00"></path><path d="M 18 21 C 14.376999999999999 21 11.972999999999999 20.578 9 20 C 8.321 19.869 7 20 7 22 C 7 26 11.594999999999999 31 18 31 C 24.404 31 29 26 29 22 C 29 20 27.679 19.868 27 20 C 24.027 20.578 21.623 21 18 21 Z" fill="#664500" id="01"></path><path d="M 9 22 S 12 23 18 23 S 27 22 27 22 S 25 26 18 26 S 9 22 9 22 Z" fill="#ffffff" id="02"></path><path d=" M 20.318 4.413 L 24.86 5.214 L 27.2 0.961 C 27.458 0.492 27.988 0.241 28.512 0.33299999999999996 C 29.038 0.42599999999999993 29.448 0.844 29.53 1.3719999999999999 L 30.275000000000002 6.169 L 34.817 6.97 C 35.353 7.064 35.766 7.494 35.838 8.033 S 35.627 9.096 35.135 9.33 L 31.064999999999998 11.262 L 31.813 16.074 C 31.895999999999997 16.610000000000003 31.624 17.138 31.14 17.383000000000003 C 30.961000000000002 17.473000000000003 30.769000000000002 17.516000000000002 30.578 17.516000000000002 C 30.250999999999998 17.516000000000002 29.928 17.388 29.686999999999998 17.144000000000002 L 26.174999999999997 13.583000000000002 L 21.656999999999996 15.728000000000002 C 21.166999999999998 15.96 20.582999999999995 15.851 20.210999999999995 15.456000000000001 C 19.838999999999995 15.061000000000002 19.764999999999993 14.472000000000001 20.025999999999996 13.997000000000002 L 22.373999999999995 9.73 L 19.208999999999996 6.522 C 18.826999999999995 6.135 18.739999999999995 5.545 18.991999999999997 5.063000000000001 C 19.246999999999996 4.581 19.785999999999998 4.32 20.317999999999998 4.413 Z" fill="#e95f28" id="03"></path><path d="M 15.682 4.413 L 11.14 5.214 L 8.8 0.961 C 8.542 0.492 8.012 0.241 7.488 0.333 C 6.961 0.42600000000000005 6.551 0.8440000000000001 6.469 1.3719999999999999 L 5.724 6.169 L 1.1820000000000004 6.97 C 0.6470000000000004 7.064 0.23400000000000043 7.495 0.16100000000000048 8.033999999999999 S 0.37200000000000044 9.097 0.8640000000000004 9.331 L 4.934000000000001 11.263 L 4.186000000000001 16.075 C 4.103000000000001 16.611 4.375000000000001 17.139 4.859000000000001 17.384 C 5.038000000000001 17.474 5.23 17.517 5.421000000000001 17.517 C 5.748000000000001 17.517 6.0710000000000015 17.389 6.312000000000001 17.145 L 9.824000000000002 13.584 L 14.342000000000002 15.729 C 14.832000000000003 15.960999999999999 15.416000000000002 15.851999999999999 15.788000000000002 15.456999999999999 C 16.160000000000004 15.062 16.234 14.472999999999999 15.973000000000003 13.998 L 13.625 9.73 L 16.79 6.522 C 17.172 6.135 17.259 5.545 17.006999999999998 5.063000000000001 C 16.752999999999997 4.581 16.214 4.32 15.681999999999999 4.413 Z" fill="#e95f28" id="04"></path></svg>