<svg xmlns="http://www.w3.org/2000/svg" viewBox="0 0 36 36" xml:space="preserve"><path d="M 36 18 C 36 27.941000000000003 27.941000000000003 36 18 36 S 0 27.941 0 18 S 8.059 0 18 0 S 36 8.059 36 18" fill="#ffcc4d" id="00"></path><path d="M 12.707 6.707 A 0.999 0.999 0 1 0 11.293000000000001 5.293 C 9.652 6.934 8.075 6.998 7.99 7 A 1 1 0 0 0 8 9 C 8.099 9 10.44 8.974 12.707 6.707 Z" fill="#65471b" id="01"></path><path d="M 28.994 8.011 A 1.005 1.005 0 0 0 28.011 7 C 27.944 6.999 26.358 6.944 24.707 5.293 A 0.999 0.999 0 1 0 23.293 6.707 C 25.56 8.974 27.901 9 28 9 A 0.995 0.995 0 0 0 28.994 8.011 Z" fill="#65471b" id="02"></path><path d="M 18 31 C 12.371 31 11.104 27.473 11.053 27.322 A 1 1 0 0 1 12.942 26.663999999999998 C 12.987 26.782 13.895 29 18 29 C 22.128 29 23.022 26.758 23.059 26.663 C 23.252000000000002 26.153 23.822000000000003 25.883 24.335 26.067 S 25.123 26.806 24.947 27.322 C 24.896 27.473 23.629 31 18 31 Z" fill="#65471b" id="03"></path><path d="M 29.895 15.058 C 27.709 11.632 23.801 10.522 21.738 11.399000000000001 C 20.598 11.882000000000001 20.027 13.421000000000001 20.000999999999998 16.046 C 19.994999999999997 16.662 20.019 17.34 20.072999999999997 18.078 C 20.104999999999997 18.512999999999998 20.139999999999997 18.954 20.191999999999997 19.431 C 20.325999999999997 20.650000000000002 20.968999999999998 21.612000000000002 22.050999999999995 22.21 C 22.770999999999994 22.609 23.631999999999994 22.814 24.521999999999995 22.871000000000002 C 26.044999999999995 22.967000000000002 27.658999999999995 22.625000000000004 28.802999999999994 22.072000000000003 C 30.012999999999995 21.488000000000003 30.798999999999992 20.436000000000003 30.960999999999995 19.186000000000003 C 31.122999999999994 17.943000000000005 30.773999999999994 16.437000000000005 29.894999999999996 15.058000000000003 Z" fill="#ffffff" id="04"></path><path d="M 30.962 19.186 C 31.123 17.943 30.774 16.436 29.895 15.058 A 8.85 8.85 0 0 0 28.264 13.18 A 5.958 5.958 0 0 0 25.5 12.5 A 6.005 6.005 0 0 0 20.002 16.106 C 19.997999999999998 16.707 20.02 17.363000000000003 20.073 18.079 C 20.105 18.514 20.14 18.955000000000002 20.193 19.432000000000002 C 20.327 20.651000000000003 20.970000000000002 21.613000000000003 22.052 22.211000000000002 C 22.772 22.610000000000003 23.633 22.815 24.523 22.872000000000003 C 26.046 22.968000000000004 27.66 22.626000000000005 28.804 22.073000000000004 C 30.014 21.488000000000003 30.799999999999997 20.437000000000005 30.962 19.186000000000003 Z" fill="#f4900c" id="05"></path><circle fill="#65471B" cx="25.5" cy="18" r="4" id="06"></circle><ellipse transform="rotate(-45.028 24.498 14.999)" fill="#FFF" cx="24.5" cy="15" rx="1.674" ry="1.303" id="07"></ellipse><path d="M 21.81 22.648 C 22.557 23.062 23.459 23.305 24.491999999999997 23.37 C 24.673999999999996 23.381 24.856999999999996 23.387 25.040999999999997 23.387 C 26.432999999999996 23.387 27.883999999999997 23.072 29.022 22.523 C 29.994999999999997 22.053 30.72 21.309 31.124 20.406 A 0.585 0.585 0 0 0 30.869999999999997 19.653 C 29.448999999999998 18.881999999999998 27.948999999999998 21.015 25.997999999999998 21.015 C 24.046 21.015 21.924 20.079 20.741999999999997 21.015 A 0.506 0.506 0 0 0 20.676999999999996 21.743000000000002 C 20.985999999999997 22.096000000000004 21.362999999999996 22.401000000000003 21.809999999999995 22.648000000000003 Z" fill="#5dadec" id="08"></path><path d="M 6.105 15.058 C 8.291 11.632 12.199000000000002 10.522 14.262 11.399000000000001 C 15.402000000000001 11.882000000000001 15.973 13.421000000000001 15.999 16.046 C 16.005 16.662 15.981 17.34 15.927000000000001 18.078 C 15.895000000000001 18.512999999999998 15.860000000000001 18.954 15.808000000000002 19.431 C 15.674000000000001 20.650000000000002 15.031000000000002 21.612000000000002 13.949000000000002 22.21 C 13.229000000000001 22.609 12.368000000000002 22.814 11.478000000000002 22.871000000000002 C 9.955000000000002 22.967000000000002 8.341000000000001 22.625000000000004 7.197000000000002 22.072000000000003 C 5.987000000000002 21.488000000000003 5.201000000000002 20.436000000000003 5.0390000000000015 19.186000000000003 C 4.877000000000002 17.943000000000005 5.226000000000002 16.437000000000005 6.105000000000001 15.058000000000003 Z" fill="#ffffff" id="09"></path><path d="M 15.808 19.432 C 15.674 20.651 15.031 21.613 13.949 22.211 C 13.229 22.61 12.368 22.814999999999998 11.478 22.872 C 9.955 22.968 8.341 22.626 7.197 22.073 C 5.987 21.489 5.2010000000000005 20.437 5.039 19.187 C 4.878 17.944000000000003 5.226999999999999 16.437 6.106 15.059000000000001 A 8.85 8.85 0 0 1 7.737 13.181000000000001 A 5.958 5.958 0 0 1 10.501 12.501000000000001 A 6.005 6.005 0 0 1 15.998999999999999 16.107 C 16.003 16.708 15.980999999999998 17.364 15.927999999999999 18.08 A 41.06 41.06 0 0 1 15.808 19.432 Z" fill="#f4900c" id="10"></path><circle fill="#65471B" cx="10.5" cy="18" r="4" id="11"></circle><path d="M 10.954 15 C 10.751000000000001 15.828 9.935 16.5 9.132000000000001 16.5 C 8.329 16.5 7.843000000000002 15.828 8.046000000000001 15 S 9.065000000000001 13.5 9.868000000000002 13.5 C 10.671000000000003 13.5 11.157000000000002 14.172 10.954000000000002 15 Z" fill="#ffffff" id="12"></path><path d="M 14.19 22.648 C 13.443 23.062 12.541 23.305 11.508 23.37 A 9.097 9.097 0 0 1 10.959 23.387 C 9.567 23.387 8.116 23.072 6.978 22.523 C 6.005 22.053 5.279999999999999 21.309 4.8759999999999994 20.406 A 0.585 0.585 0 0 1 5.129999999999999 19.653 C 6.550999999999999 18.881999999999998 8.050999999999998 21.015 10.001999999999999 21.015 C 11.953999999999999 21.015 14.075999999999999 20.079 15.258 21.015 A 0.506 0.506 0 0 1 15.322999999999999 21.743000000000002 A 4.178 4.178 0 0 1 14.189999999999998 22.648000000000003 Z" fill="#5dadec" id="13"></path></svg>