<svg xmlns="http://www.w3.org/2000/svg" viewBox="0 0 36 36"><path d="M 35 17 C 35 26.389 21.777 36 18 36 C 14.222 36 1 26.389 1 17 S 8.611 0 18 0 S 35 7.611 35 17 Z" fill="#ccd6dd" id="00"></path><path d="M 18 31 C 15.653 31 14.425 29.84 14.293 29.707 C 13.902 29.316000000000003 13.902 28.684 14.293 28.293 C 14.68 27.906 15.306 27.902 15.697 28.282999999999998 C 15.748 28.33 16.503 28.999999999999996 18 28.999999999999996 C 19.519 28.999999999999996 20.273 28.310999999999996 20.305 28.280999999999995 C 20.703 27.906999999999996 21.332 27.917999999999996 21.713 28.309999999999995 C 22.092000000000002 28.702999999999996 22.093 29.320999999999994 21.707 29.705999999999996 C 21.575 29.84 20.347 31 18 31 Z" fill="#292f33" id="01"></path><path d="M 22.497 14.845 C 19.373 17.969 18.107 21.768 19.669 23.33 C 21.231 24.892 25.03 23.627 28.154 20.502 C 31.279 17.377 32.545 13.578999999999999 30.982 12.017 C 29.419999999999998 10.455 25.621 11.719999999999999 22.497 14.844999999999999 Z" fill="#292f33" id="02"></path><path d="M 13.503 14.845 C 16.627 17.969 17.893 21.768 16.331 23.33 C 14.769 24.892 10.969999999999999 23.627 7.846 20.502 C 4.721 17.378 3.455 13.578999999999999 5.018000000000001 12.017 S 10.379000000000001 11.721 13.503 14.844999999999999 Z" fill="#292f33" id="03"></path></svg>