<svg xmlns="http://www.w3.org/2000/svg" viewBox="0 0 36 36"><circle fill="#FFCC4D" cx="18" cy="18" r="18" id="00"></circle><path d=" M 9.456999999999997 14.024 C 9.456999999999997 15.738 10.394999999999998 17.128 11.552999999999997 17.128 C 12.709999999999997 17.128 13.648999999999997 15.738 13.648999999999997 14.024000000000001 S 12.710999999999997 10.920000000000002 11.552999999999997 10.920000000000002 C 10.394999999999998 10.920000000000002 9.456999999999997 12.310000000000002 9.456999999999997 14.024000000000001 Z" fill="#65471b" id="01"></path><path d="M 26.624 14.024 C 26.624 15.738 25.686 17.128 24.528 17.128 C 23.371 17.128 22.432 15.738 22.432 14.024000000000001 S 23.369999999999997 10.920000000000002 24.528 10.920000000000002 C 25.686 10.920000000000002 26.624 12.310000000000002 26.624 14.024000000000001 Z" fill="#65471b" id="02"></path><path d="M 28.844 25.39 L 23.934 23.934 C 23.938000000000002 23.883000000000003 12.061000000000002 23.883000000000003 12.066 23.934 L 7.155 25.39 C 6.364 25.626 5.905 26.482 6.132000000000001 27.302 C 6.319000000000001 27.982 6.916 28.424 7.564 28.424 C 7.699 28.424 7.838 28.404 7.975 28.365 L 10.853 27.511999999999997 C 10.531 27.964999999999996 10.443999999999999 28.576999999999998 10.704 29.115999999999996 C 10.965 29.657999999999998 11.492 29.970999999999997 12.039000000000001 29.970999999999997 C 12.262000000000002 29.970999999999997 12.490000000000002 29.917999999999996 12.704 29.807999999999996 L 15.054 28.588999999999995 C 15.108 29.093999999999994 15.372 29.660999999999994 15.842 29.903999999999996 C 16.056 30.013999999999996 16.284 30.066999999999997 16.507 30.066999999999997 C 17.054000000000002 30.066999999999997 17.581000000000003 29.657999999999998 17.842000000000002 29.115999999999996 L 18 28.79 L 18.157 29.116 C 18.418 29.658 18.945 30.067 19.492 30.067 C 19.716 30.067 19.943 30.014 20.157 29.904 C 20.627 29.661 20.892 29.093 20.946 28.589 L 23.296000000000003 29.808 C 23.51 29.918 23.737000000000002 29.971 23.961000000000002 29.971 C 24.508000000000003 29.971 25.034000000000002 29.658 25.296000000000003 29.116 C 25.555000000000003 28.576999999999998 25.469 27.965 25.148000000000003 27.512 L 28.026000000000003 28.365000000000002 C 28.163000000000004 28.404000000000003 28.300000000000004 28.424000000000003 28.437000000000005 28.424000000000003 C 29.085000000000004 28.424000000000003 29.682000000000006 27.981 29.869000000000003 27.302000000000003 C 30.095000000000002 26.482000000000003 29.636000000000003 25.626000000000005 28.844000000000005 25.390000000000004 Z" fill="#292f33" id="03"></path><path d="M 24 23.6 C 24 22.606 22.746 21 21.2 21 L 21.177 21.001 C 20.977 17.3 19.489 11.8 18 11.8 C 16.537 11.8 15.076 17.277 14.835 21.002000000000002 L 14.8 21 C 13.254000000000001 21 12 22.606 12 23.6 C 12 24.53 14.103 24.946 15.684000000000001 25.651000000000003 C 16.189 26.089000000000002 16.937 26.200000000000003 18 26.200000000000003 C 18.901 26.200000000000003 19.576999999999998 26.093000000000004 20.069 25.768000000000004 C 21.668 24.989 24 24.58 24 23.6 Z" fill="#ffac33" id="04"></path><path d=" M 14.757 23.8 C 14.975 23.839000000000002 14.702 23.400000000000002 14.702 22.311 C 14.702 21.8 14.757 21.4 14.757 21 C 14.357 21 13.915 21 13.915 22.169 C 13.915999999999999 22.832 14.54 23.761 14.757 23.8 Z" fill="#c1694f" id="05"></path><path d="M 21.2 23.8 C 20.982 23.839000000000002 21.255 23.400000000000002 21.255 22.311 C 21.255 21.8 21.2 21.4 21.2 21 C 21.599999999999998 21 22.041999999999998 21 22.041999999999998 22.169 C 22.041999999999998 22.832 21.418 23.761 21.2 23.8 Z" fill="#c1694f" id="06"></path><path d=" M 21.597 24.351 C 20.826 24.576 20.311 25.133 20.446 25.595 L 20.450000000000003 25.599999999999998 C 21.341 25.217 22.359 24.910999999999998 23.080000000000002 24.555999999999997 C 22.802000000000003 24.269999999999996 22.220000000000002 24.168999999999997 21.597 24.351 Z" fill="#662113" id="07"></path><path d="M 14.403 24.351 C 13.781 24.169999999999998 13.200000000000001 24.27 12.922 24.554 C 13.643 24.909 14.661000000000001 25.214 15.553 25.596999999999998 L 15.555000000000001 25.595 C 15.689000000000002 25.133 15.174000000000001 24.575 14.403000000000002 24.351 Z" fill="#662113" id="08"></path><path d=" M 30.892 13.024000000000001 C 30.773 13.978000000000002 30.457 16.539 29.627 17.158 C 28.962999999999997 17.653000000000002 27.265 18 26.04 18 H 26.038999999999998 C 24.932 18 23.875999999999998 17.719 23.063999999999997 17.257 C 21.740999999999996 16.505000000000003 21.543999999999997 14.396 21.466999999999995 13.291 C 21.424999999999994 12.683 21.290999999999997 11.440000000000001 22.295999999999996 10.823 C 23.430999999999997 10.125 25.757999999999996 10.077 26.450999999999997 10.077 C 27.964 10.077 29.441999999999997 10.354 30.502999999999997 10.715 C 31.170999999999996 10.943 30.967999999999996 12.417 30.891999999999996 13.024000000000001 Z  M 14.614 13.277000000000001 C 14.537 14.382000000000001 14.34 16.504 13.017000000000001 17.257 C 12.206000000000001 17.719 11.149000000000001 18 10.043000000000001 18 H 10.042000000000002 C 8.817000000000002 18 7.1190000000000015 17.653 6.455000000000002 17.158 C 5.625000000000002 16.539 5.309000000000002 13.991000000000001 5.190000000000002 13.038 C 5.1140000000000025 12.431000000000001 4.910000000000002 10.948 5.578000000000002 10.72 C 6.638000000000002 10.359 8.117000000000003 10.077 9.630000000000003 10.077 C 10.323000000000002 10.077 12.651000000000003 10.12 13.785000000000004 10.818 C 14.790000000000003 11.434999999999999 14.657000000000004 12.669 14.614000000000004 13.277 Z M 34.808 9.627 C 34.637 9.461 33.541 9.901 32.432 9.336 C 30.144000000000002 8.17 24.362000000000002 7.045 20.598000000000003 9.712 C 20.195000000000004 9.997 18.511000000000003 10.045 18.040000000000003 10.025 C 17.569000000000003 10.046000000000001 15.885000000000003 9.998000000000001 15.482000000000003 9.712 C 11.719000000000003 7.045 5.937000000000003 8.17 3.6490000000000027 9.336 C 2.5400000000000027 9.901 1.4440000000000026 9.461 1.2730000000000028 9.627 C 1.026000000000003 9.866000000000001 1.026000000000003 10.823 1.2740000000000027 11.063 C 1.5200000000000027 11.302000000000001 2.751000000000003 11.578000000000001 2.9960000000000027 12.295 C 3.2430000000000025 13.013 3.2450000000000028 17.253 5.209000000000003 18.719 C 7.048000000000004 20.091 11.338000000000003 20.504 14.057000000000004 18.957 C 16.429000000000002 17.608 16.346000000000004 14.768 16.781000000000006 13.076 C 16.936000000000007 12.473 17.373000000000005 12.169 18.041000000000007 12.169 S 19.146000000000008 12.473 19.30100000000001 13.076 C 19.736000000000008 14.767000000000001 19.652000000000008 17.608 22.02500000000001 18.957 C 24.74400000000001 20.503 29.03400000000001 20.09 30.872000000000007 18.719 C 32.83700000000001 17.254 32.839000000000006 13.013000000000002 33.08500000000001 12.295000000000002 C 33.330000000000005 11.578000000000001 34.56100000000001 11.301000000000002 34.80700000000001 11.063000000000002 C 35.05500000000001 10.823000000000002 35.05600000000001 9.866000000000003 34.80800000000001 9.627000000000002 Z" fill="#292f33" id="09"></path><path d=" M 21.663 10.19 S 21.723 6.975999999999999 22.973 5.9639999999999995 C 24.288999999999998 4.898999999999999 25.354 6.558999999999999 25.354 6.558999999999999 S 25.605999999999998 4.4159999999999995 27.034 4.594999999999999 C 28.462999999999997 4.773999999999999 28.403 6.142999999999999 28.403 6.142999999999999 S 29.223 4.297999999999999 30.784 4.952999999999999 C 32.302 5.59 31.544 6.976999999999999 31.544 6.976999999999999 S 32.689 6.568 33.211 7.393999999999999 C 33.925 8.524999999999999 32.213 9.418 32.213 9.418 S 28.642 8.584999999999999 26.856 8.643999999999998 C 25.069000000000003 8.701999999999998 21.663000000000004 10.189999999999998 21.663000000000004 10.189999999999998 Z" fill="#292f33" id="12"></path><path d="M 14.337 10.19 S 14.277 6.975999999999999 13.027 5.9639999999999995 C 11.710999999999999 4.898999999999999 10.645999999999999 6.558999999999999 10.645999999999999 6.558999999999999 S 10.393999999999998 4.4159999999999995 8.966 4.594999999999999 C 7.537999999999999 4.773999999999999 7.5969999999999995 6.142999999999999 7.5969999999999995 6.142999999999999 S 6.776999999999999 4.297999999999999 5.215999999999999 4.952999999999999 C 3.6979999999999995 5.59 4.4559999999999995 6.976999999999999 4.4559999999999995 6.976999999999999 S 3.3109999999999995 6.566999999999999 2.7899999999999996 7.393 C 2.0749999999999997 8.524 3.7879999999999994 9.417 3.7879999999999994 9.417 S 7.359 8.584 9.145 8.643 C 10.931 8.702 14.337 10.190000000000001 14.337 10.190000000000001 Z" fill="#292f33" id="13"></path></svg>