<svg xmlns="http://www.w3.org/2000/svg" viewBox="0 0 36 36"><ellipse fill="#F4900C" cx="33.5" cy="14.5" rx="2.5" ry="3.5" id="00"></ellipse><ellipse fill="#F4900C" cx="2.5" cy="14.5" rx="2.5" ry="3.5" id="01"></ellipse><path d=" M 7 19 C 7 19.553 6.552 20 6 20 H 3 C 2.448 20 2 19.553 2 19 V 10 C 2 9.448 2.448 9 3 9 H 6 C 6.552 9 7 9.448 7 10 V 19 Z" fill="#ffac33" id="02"></path><path d="M 34 19 C 34 19.553 33.553 20 33 20 H 30 C 29.447 20 29 19.553 29 19 V 10 C 29 9.448 29.447 9 30 9 H 33 C 33.553 9 34 9.448 34 10 V 19 Z" fill="#ffac33" id="03"></path><path d="M 28 5 C 28 7.761 23.522 9 18 9 C 12.477 9 8 7.761 8 5 S 12.477 0 18 0 C 23.522 0 28 2.239 28 5 Z" fill="#ffcc4d" id="04"></path><path d="M 25 4.083 C 25 5.694 21.865 7 18 7 C 14.134 7 11 5.694 11 4.083 C 11 2.4720000000000004 14.134 1.1660000000000004 18 1.1660000000000004 C 21.865000000000002 1.1660000000000004 25 2.4720000000000004 25 4.083 Z" fill="#f4900c" id="05"></path><path d="M 30 5.5 C 30 6.881 28.881 7 27.5 7 H 8.5 C 7.119 7 6 6.881 6 5.5 S 7.119 3 8.5 3 H 27.5 C 28.881 3 30 4.119 30 5.5 Z" fill="#226699" id="06"></path><path d="M 30 6 H 6 C 4.896 6 4 6.896 4 8 V 34 H 32 V 8 C 32 6.896 31.104 6 30 6 Z" fill="#55acee" id="07"></path><path d="M 35 33 V 32 C 35 30.896 34.104 30 33 30 H 22.071 L 18.707 33.364 C 18.316000000000003 33.754999999999995 17.684 33.754999999999995 17.293 33.364 L 13.929 30 H 3 C 1.896 30 1 30.896 1 32 V 33 C 1 34.104 0.896 35 2 35 H 34 C 35.104 35 35 34.104 35 33 Z" fill="#3b88c3" id="08"></path><circle fill="#FFF" cx="24.5" cy="14.5" r="4.5" id="09"></circle><circle fill="#DD2E44" cx="24.5" cy="14.5" r="2.721" id="10"></circle><circle fill="#FFF" cx="11.5" cy="14.5" r="4.5" id="11"></circle><path d="M 29 25.5 C 29 26.881 27.881 28 26.5 28 H 9.5 C 8.119 28 7 26.881 7 25.5 S 8.119 23 9.5 23 H 26.5 C 27.881 23 29 24.119 29 25.5 Z" fill="#f5f8fa" id="12"></path><path d=" M 27 23.05 V 27.949 C 28.141 27.717000000000002 29 26.709000000000003 29 25.499000000000002 S 28.141 23.282000000000004 27 23.050000000000004 Z" fill="#ccd6dd" id="13"></path><path d=" M 7 25.5 C 7 26.71 7.859 27.718 9 27.95 V 23.049999999999997 C 7.859 23.281999999999996 7 24.289999999999996 7 25.499999999999996 Z" fill="#ccd6dd" id="14"></path><path d=" M 22 23 H 24 V 28 H 22 Z" fill="#ccd6dd" id="15"></path><path d=" M 12 23 H 14 V 28 H 12 Z" fill="#ccd6dd" id="16"></path><path d="M 17 23 H 19 V 28 H 17 Z" fill="#ccd6dd" id="17"></path><circle fill="#DD2E44" cx="11.5" cy="14.5" r="2.721" id="18"></circle></svg>