<svg xmlns="http://www.w3.org/2000/svg" viewBox="0 0 36 36"><path d="M 35.734 19.929 C 35.375 16.66 35 15 34 13 C 34 13 37 4 35 0.3000000000000007 C 34.326 -0.9459999999999993 27.596 1.9880000000000007 25 4.000000000000001 C 25 4.000000000000001 21 3.0020000000000007 18 3.0020000000000007 S 11 4 11 4 C 8.404 1.988 1.674 -0.946 1 0.3 C -1 4 2 13 2 13 C 1 15 0.625 16.66 0.266 19.929 C -0.129 23.513 0.657 26.37 1 27 C 1.3900000000000001 27.716 3.367 30.025 6 32 C 10 35 16 36 18 36 S 26 35 30 32 C 32.633 30.025 34.61 27.716 35 27 C 35.343 26.37 36.129 23.512999999999998 35.734 19.929000000000002 Z" fill="#ffcc4d" id="00"></path><path d="M 18 19.5 C 21 19.5 21 20 21 21 S 19.5 24 18 24 S 15 22 15 21 S 14.999 19.5 18 19.5 Z" fill="#e75a70" id="01"></path><path d=" M 34 3 C 33.553 1.658 28.36 4 27.36 5 C 27.36 5 32 8 33 11 C 33 11 35 6 34 3 Z" fill="#f18f26" id="02"></path><path d="M 2 3 C 2.447 1.658 7.64 4 8.64 5 C 8.64 5 4 8 3 11 C 3 11 1 6 2 3 Z" fill="#f18f26" id="03"></path><path d=" M 31.066000000000003 5.603 C 31.066 4.189 25 7 26 8 S 28 9.603 29 10.603 S 31.066 6.603 31.066 5.603 Z" fill="#ffcc4d" id="04"></path><path d="M 4.934 5.603 C 4.934 4.189 11 7 10 8 S 8 9.603 7 10.603 S 4.934 6.603 4.934 5.603 Z" fill="#ffcc4d" id="05"></path><path d=" M 26.430999999999997 20.337 C 26.479999999999997 20.337 26.531 20.33 26.58 20.315 C 31.369999999999997 18.818 35.317 19.968 35.357 19.979000000000003 C 35.622 20.060000000000002 35.9 19.909000000000002 35.98 19.644000000000002 C 36.059 19.379 35.909 19.101000000000003 35.644999999999996 19.022000000000002 C 35.471999999999994 18.970000000000002 31.358999999999995 17.775000000000002 26.282999999999994 19.360000000000003 C 26.018999999999995 19.443 25.871999999999993 19.723000000000003 25.954999999999995 19.987000000000002 C 26.019999999999996 20.200000000000003 26.217999999999996 20.337000000000003 26.430999999999994 20.337000000000003 Z" fill="#fee7b8" id="06"></path><path d=" M 35.299 25 C 35.447 25 35.592999999999996 24.935 35.692 24.81 C 35.863 24.593 35.826 24.279 35.609 24.107999999999997 C 35.447 23.980999999999998 31.589000000000002 20.987999999999996 24.961000000000002 21.502999999999997 C 24.686000000000003 21.522999999999996 24.48 21.763999999999996 24.501 22.038999999999998 C 24.522000000000002 22.313999999999997 24.758000000000003 22.54 25.038 22.499 C 31.271 22.025 34.953 24.865 34.989000000000004 24.894 C 35.08200000000001 24.965 35.191 25 35.29900000000001 25 Z" fill="#fee7b8" id="07"></path><path d=" M 9.569 20.337 C 9.520000000000001 20.337 9.469000000000001 20.33 9.420000000000002 20.315 C 4.630000000000002 18.818 0.6830000000000016 19.968 0.6430000000000025 19.979000000000003 C 0.37800000000000245 20.060000000000002 0.10000000000000242 19.909000000000002 0.02000000000000246 19.644000000000002 C -0.05899999999999754 19.379 0.09100000000000245 19.101000000000003 0.3550000000000025 19.022000000000002 C 0.5280000000000025 18.970000000000002 4.641000000000002 17.775000000000002 9.717000000000002 19.360000000000003 C 9.981000000000002 19.443 10.128000000000002 19.723000000000003 10.045000000000002 19.987000000000002 C 9.979000000000001 20.200000000000003 9.782000000000002 20.337000000000003 9.569000000000003 20.337000000000003 Z" fill="#fee7b8" id="08"></path><path d="M 0.701 25 C 0.5529999999999999 25 0.407 24.935 0.30799999999999994 24.81 C 0.13699999999999993 24.593 0.17399999999999993 24.279 0.39099999999999996 24.107999999999997 C 0.5529999999999999 23.980999999999998 4.411 20.987999999999996 11.039 21.502999999999997 C 11.314 21.522999999999996 11.52 21.763999999999996 11.499 22.038999999999998 C 11.478 22.313999999999997 11.242 22.54 10.962 22.499 C 4.729 22.025 1.0470000000000006 24.865 1.0109999999999992 24.894 C 0.9179999999999993 24.965 0.8089999999999993 25 0.7009999999999992 25 Z" fill="#fee7b8" id="09"></path><path d="M 25.327 25.622 C 25.175 25.49 24.958000000000002 25.463 24.776000000000003 25.553 L 20.776000000000003 27.553 C 18.905000000000005 28.488 14.049000000000003 28.5 14.000000000000004 28.5 C 13.724000000000004 28.5 13.500000000000004 28.724 13.500000000000004 29 C 13.500000000000004 29.185 13.601000000000004 29.347 13.750000000000004 29.433 V 29.434 H 13.751000000000003 V 29.435000000000002 C 13.822000000000003 29.475 13.904000000000003 29.498 13.991000000000003 29.500000000000004 H 20.999000000000002 C 23.657000000000004 29.500000000000004 25.088 27.314000000000004 25.474000000000004 26.158000000000005 C 25.538000000000004 25.966000000000005 25.480000000000004 25.755000000000006 25.327000000000005 25.622000000000003 Z" fill="#292f33" id="10"></path><g fill="#292F33" id="11"><ellipse cx="12" cy="14.5" rx="2" ry="3.5"></ellipse><ellipse cx="24" cy="14.5" rx="2" ry="3.5"></ellipse><path d=" M 15 12 C 14.744 12 14.488 11.902 14.293 11.707 C 10.667 8.082 7.031 8 6.995 8 C 6.444 7.994 6 7.545 6.003 6.995 C 6.006 6.444 6.45 6 7 6 C 7.18 6 11.463000000000001 6.049 15.707 10.293 C 16.098 10.684 16.098 11.315999999999999 15.707 11.706999999999999 C 15.512 11.902 15.256 11.999999999999998 15 11.999999999999998 Z" fill="#000000"></path><path d="M 21 12 C 20.744 12 20.488 11.902 20.293 11.707 C 19.902 11.316 19.902 10.684000000000001 20.293 10.293000000000001 C 24.537 6.049 28.819 6 29 6 C 29.553 6 30 6.448 30 7 C 30 7.551 29.555 7.998 29.005 8 C 28.939999999999998 8.001 25.317999999999998 8.096 21.707 11.707 C 21.512 11.902000000000001 21.256 12 21 12 Z" fill="#000000"></path></g></svg>