<svg xmlns="http://www.w3.org/2000/svg" viewBox="0 0 36 36"><path d="M 35 17 C 35 26.389 27.389 34 18 34 C 8.612 34 1 26.389 1 17 C 1 7.612 8.612 0 18 0 C 27.389 0 35 7.612 35 17" fill="#ffcb4c" id="00"></path><path d="M 29.332 18.888 C 29.136 18.888 28.937 18.827 28.768 18.701 C 28.732 18.674 25.168 16.056 20.833000000000002 16.056 C 20.451 16.056 20.106 15.826 19.961000000000002 15.473 C 19.814000000000004 15.120000000000001 19.895000000000003 14.714 20.166 14.444 C 23.241 11.369 28.181 11.334000000000001 28.389000000000003 11.334000000000001 C 28.910000000000004 11.334000000000001 29.332000000000004 11.756000000000002 29.333000000000002 12.277000000000001 C 29.334000000000003 12.798000000000002 28.911 13.221 28.391000000000002 13.223 C 28.357000000000003 13.223 25.762 13.248000000000001 23.425 14.420000000000002 C 27.113 15.128000000000002 29.765 17.088 29.9 17.19 C 30.317 17.503 30.401999999999997 18.093 30.09 18.511000000000003 C 29.904 18.758000000000003 29.62 18.888 29.332 18.888 Z" fill="#65471b" id="01"></path><path d="M 6.668 18.888 C 6.381 18.888 6.097 18.758000000000003 5.912 18.51 C 5.599 18.093 5.683 17.501 6.101 17.188000000000002 C 6.236 17.087000000000003 8.888 15.127000000000002 12.576 14.418000000000003 C 10.238 13.246000000000002 7.644 13.221000000000004 7.611000000000001 13.221000000000004 C 7.090000000000001 13.220000000000004 6.668000000000001 12.796000000000003 6.6690000000000005 12.275000000000004 C 6.6690000000000005 11.754000000000003 7.091 11.332000000000004 7.613 11.332000000000004 C 7.822 11.332000000000004 12.762 11.368000000000004 15.836000000000002 14.442000000000004 C 16.106 14.712000000000003 16.187 15.118000000000004 16.041 15.471000000000004 C 15.895 15.824000000000003 15.55 16.054000000000002 15.169 16.054000000000002 C 10.812000000000001 16.054000000000002 7.271000000000001 18.672 7.236000000000001 18.698 C 7.063000000000001 18.827 6.865 18.888 6.668000000000001 18.888 Z" fill="#65471b" id="02"></path><path d="M 18 27.136 C 21.335 27.136 23.547 27.524 26.284 28.056 C 26.909 28.176000000000002 28.125 28.056 28.125 26.215 C 28.125 22.533 23.895 17.930999999999997 18 17.930999999999997 S 7.875 22.533 7.875 26.215 C 7.875 28.056 9.091 28.177 9.716 28.056 C 12.452 27.524 14.665 27.136 18 27.136 Z" fill="#65471b" id="03"></path><path d="M 25.712 32.287 V 25.186 C 25.712 22.593 21.823 20.001 17.934 20.001 S 10.156000000000002 22.594 10.156000000000002 25.186 V 32.287 C 5.753000000000003 32.635999999999996 2.7970000000000024 33.272 2.7970000000000024 34 C 2.7970000000000024 35.105 9.574000000000002 36 17.934000000000005 36 S 33.071000000000005 35.105 33.071000000000005 34 C 33.071000000000005 33.272 30.115000000000006 32.636 25.712000000000003 32.287 Z" fill="#77af57" id="04"></path><circle fill="#5D8F3F" cx="15.875" cy="23.228" r="1.235" id="05"></circle><circle fill="#5D8F3F" cx="20.698" cy="25.64" r="1.235" id="06"></circle><circle transform="rotate(-80.781 21.232 30.514)" fill="#5D8F3F" cx="21.232" cy="30.515" r="1.235" id="07"></circle><circle transform="rotate(-80.781 15.107 32.548)" fill="#5D8F3F" cx="15.107" cy="32.548" r="1.765" id="08"></circle></svg>