<svg xmlns="http://www.w3.org/2000/svg" viewBox="0 0 36 36"><circle fill="#AA8DD8" cx="18" cy="18" r="18" id="00"></circle><path d=" M 34.766 0.153 C 34.016 -0.158 33.159 0.013999999999999985 32.586 0.587 C 31.7 1.472 28.589 4 26 4 C 25.307 4 24.663 4.359 24.299 4.949 C 23.935 5.538 23.902 6.275 24.211 6.895 L 26.211 10.895 C 26.55 11.572 27.242 12 28 12 C 34.328 12 36 5.459 36 2 C 36 1.1909999999999998 35.513 0.46199999999999997 34.766 0.15300000000000002 Z" fill="#aa8dd8" id="01"></path><path d="M 10 4 C 7.42 4 4.369 1.534 3.414 0.586 C 2.843 0.014 1.981 -0.157 1.235 0.153 C 0.487 0.462 0 1.191 0 2 C 0 5.459 1.672 12 8 12 C 8.757 12 9.45 11.572 9.789 10.894 L 11.789 6.894 C 12.099 6.274 12.065999999999999 5.538 11.701 4.948 C 11.337 4.359 10.693 4 10 4 Z" fill="#aa8dd8" id="02"></path><path d=" M 29 15 C 28.779 15 23.549 15.038 20.293 18.293 C 19.902 18.683999999999997 19.902 19.316 20.293 19.707 C 20.488 19.902 20.744 20 21 20 C 21.013 20 21.024 19.993 21.036 19.993 C 21.020000000000003 20.16 21 20.325999999999997 21 20.5 C 21 22.434 22.119 24 23.5 24 S 26 22.434 26 20.5 C 26 19.371 25.611 18.377 25.018 17.737000000000002 C 27.076 17.022000000000002 28.972 17.000000000000004 29.002000000000002 17.000000000000004 C 29.553 16.999000000000002 30.000000000000004 16.550000000000004 29.999000000000002 15.998000000000003 C 29.998 15.447000000000003 29.552000000000003 15.000000000000004 29.000000000000004 15.000000000000004 Z" fill="#553986" id="03"></path><path d=" M 15.707 18.293 C 12.452 15.038 7.221 15 7 15 C 6.448 15 6.001 15.447 6.001 15.998 C 6 16.55 6.447 16.999 6.9990000000000006 17 C 7.0280000000000005 17 8.924000000000001 17.022 10.982000000000001 17.737 C 10.389000000000001 18.377 10.000000000000002 19.371 10.000000000000002 20.5 C 10.000000000000002 22.434 11.119000000000002 24 12.500000000000002 24 S 15.000000000000002 22.434 15.000000000000002 20.5 C 15.000000000000002 20.326 14.981000000000002 20.16 14.963000000000001 19.993 C 14.976 19.993 14.988000000000001 20 15.000000000000002 20 C 15.256000000000002 20 15.512000000000002 19.902 15.707000000000003 19.707 C 16.098000000000003 19.316000000000003 16.098000000000003 18.684 15.707000000000003 18.293 Z" fill="#553986" id="04"></path><path d="M 27.335 25.629 C 27.157 25.468 26.891000000000002 25.458000000000002 26.7 25.6 C 26.660999999999998 25.629 22.778 28.5 18 28.5 C 13.234 28.5 9.338 25.629 9.3 25.6 C 9.109 25.458000000000002 8.843 25.470000000000002 8.665000000000001 25.629 C 8.488000000000001 25.789 8.448 26.053 8.571000000000002 26.257 C 8.7 26.472 11.788 31.5 18 31.5 S 27.301000000000002 26.472 27.429000000000002 26.256999999999998 C 27.552000000000003 26.052 27.513 25.788999999999998 27.335 25.628999999999998 Z" fill="#553986" id="05"></path></svg>