<svg xmlns="http://www.w3.org/2000/svg" viewBox="0 0 36 36"><circle fill="#FFCC4D" cx="18" cy="18" r="18" id="00"></circle><path d="M 27.335 23.629 C 27.157 23.468 26.891000000000002 23.458000000000002 26.7 23.6 C 26.660999999999998 23.629 22.778 26.5 18 26.5 C 13.234 26.5 9.338 23.629 9.3 23.6 C 9.109 23.458000000000002 8.843 23.470000000000002 8.665000000000001 23.629 C 8.488000000000001 23.789 8.448 24.053 8.571000000000002 24.257 C 8.7 24.472 11.788 29.5 18 29.5 S 27.301000000000002 24.472 27.429000000000002 24.256999999999998 C 27.552000000000003 24.052 27.513 23.788999999999998 27.335 23.628999999999998 Z" fill="#664500" id="01"></path><path d="M 18 26.591 C 17.852 26.591 17.709 26.580000000000002 17.562 26.575000000000003 V 31.091 H 18.437 V 26.574 C 18.292 26.579 18.148 26.591 18 26.591 Z" fill="#65471b" id="02"></path><path d="M 14 26 C 13.984 25.996 15.45 26.378 16.446 26.486 C 16.812 26.528000000000002 17.183 26.562 17.563000000000002 26.575 V 31.092 H 16 C 14.9 31.092 14 30.192 14 29.092 V 26 Z" fill="#ffffff" id="03"></path><path d="M 22 26 C 22.016 25.996 20.55 26.378 19.554 26.486 C 19.188 26.528000000000002 18.817 26.562 18.436999999999998 26.575 V 31.092 H 20 C 21.1 31.092 22 30.192 22 29.092 V 26 Z" fill="#ffffff" id="04"></path><path d="M 9.457 14.024000000000001 C 9.457 15.738000000000001 10.395000000000001 17.128 11.553 17.128 C 12.71 17.128 13.649000000000001 15.738 13.649000000000001 14.024000000000001 S 12.711 10.920000000000002 11.553 10.920000000000002 C 10.395000000000001 10.920000000000002 9.457 12.310000000000002 9.457 14.024000000000001 Z" fill="#65471b" id="05"></path><path d="M 26.624000000000002 14.024000000000001 C 26.624000000000002 15.738000000000001 25.686000000000003 17.128 24.528000000000002 17.128 C 23.371000000000002 17.128 22.432000000000002 15.738 22.432000000000002 14.024000000000001 S 23.37 10.920000000000002 24.528000000000002 10.920000000000002 C 25.686000000000003 10.920000000000002 26.624000000000002 12.310000000000002 26.624000000000002 14.024000000000001 Z" fill="#65471b" id="06"></path><path d="M 27.335 23.629 C 27.157 23.468 26.891000000000002 23.458000000000002 26.7 23.6 C 26.669999999999998 23.622 24.441 25.268 21.289 26.07 C 20.846 26.183 19.425 26.5 18.003 26.501 C 16.579 26.501 15.154 26.183 14.711 26.07 C 11.559000000000001 25.268 9.33 23.622 9.3 23.6 C 9.110000000000001 23.458000000000002 8.843 23.468 8.665000000000001 23.629 C 8.487 23.789 8.448 24.052 8.571000000000002 24.257 C 8.668000000000001 24.419 10.456000000000001 27.324 14.000000000000002 28.738 V 26.909 C 13.984000000000002 26.904999999999998 15.450000000000001 27.287 16.446 27.395 C 16.812 27.437 17.183 27.471 17.563000000000002 27.483999999999998 C 17.709000000000003 27.488999999999997 17.852000000000004 27.499999999999996 18.000000000000004 27.499999999999996 C 18.148000000000003 27.499999999999996 18.291000000000004 27.488999999999997 18.438000000000002 27.483999999999998 C 18.818 27.470999999999997 19.189000000000004 27.438 19.555000000000003 27.395 C 20.551000000000002 27.287 22.017000000000003 26.905 22.001000000000005 26.909 V 28.738 C 25.545000000000005 27.323999999999998 27.333000000000006 24.419 27.430000000000007 24.256999999999998 C 27.552000000000007 24.052 27.513000000000005 23.788999999999998 27.335000000000008 23.628999999999998 Z" fill="#65471b" id="07"></path><path d="M 30.892 13.024000000000001 C 30.773 13.978000000000002 30.457 16.539 29.627 17.158 C 28.962999999999997 17.653000000000002 27.265 18 26.04 18 H 26.038999999999998 C 24.932 18 23.875999999999998 17.719 23.063999999999997 17.257 C 21.740999999999996 16.505000000000003 21.543999999999997 14.396 21.466999999999995 13.291 C 21.424999999999994 12.683 21.290999999999997 11.440000000000001 22.295999999999996 10.823 C 23.430999999999997 10.125 25.757999999999996 10.077 26.450999999999997 10.077 C 27.964 10.077 29.441999999999997 10.354 30.502999999999997 10.715 C 31.170999999999996 10.943 30.967999999999996 12.417 30.891999999999996 13.024000000000001 Z M 14.614 13.277000000000001 C 14.537 14.382000000000001 14.34 16.504 13.017000000000001 17.257 C 12.206000000000001 17.719 11.149000000000001 18 10.043000000000001 18 H 10.042000000000002 C 8.817000000000002 18 7.1190000000000015 17.653 6.455000000000002 17.158 C 5.625000000000002 16.539 5.309000000000002 13.991000000000001 5.190000000000002 13.038 C 5.1140000000000025 12.431000000000001 4.910000000000002 10.948 5.578000000000002 10.72 C 6.638000000000002 10.359 8.117000000000003 10.077 9.630000000000003 10.077 C 10.323000000000002 10.077 12.651000000000003 10.12 13.785000000000004 10.818 C 14.790000000000003 11.434999999999999 14.657000000000004 12.669 14.614000000000004 13.277 Z M 34.808 9.627 C 34.637 9.461 33.541 9.901 32.432 9.336 C 30.144000000000002 8.17 24.362000000000002 7.045 20.598000000000003 9.712 C 20.195000000000004 9.997 18.511000000000003 10.045 18.040000000000003 10.025 C 17.569000000000003 10.046000000000001 15.885000000000003 9.998000000000001 15.482000000000003 9.712 C 11.719000000000003 7.045 5.937000000000003 8.17 3.6490000000000027 9.336 C 2.5400000000000027 9.901 1.4440000000000026 9.461 1.2730000000000028 9.627 C 1.026000000000003 9.866000000000001 1.026000000000003 10.823 1.2740000000000027 11.063 C 1.5200000000000027 11.302000000000001 2.751000000000003 11.578000000000001 2.9960000000000027 12.295 C 3.2430000000000025 13.013 3.2450000000000028 17.253 5.209000000000003 18.719 C 7.048000000000004 20.091 11.338000000000003 20.504 14.057000000000004 18.957 C 16.429000000000002 17.608 16.346000000000004 14.768 16.781000000000006 13.076 C 16.936000000000007 12.473 17.373000000000005 12.169 18.041000000000007 12.169 S 19.146000000000008 12.473 19.30100000000001 13.076 C 19.736000000000008 14.767000000000001 19.652000000000008 17.608 22.02500000000001 18.957 C 24.74400000000001 20.503 29.03400000000001 20.09 30.872000000000007 18.719 C 32.83700000000001 17.254 32.839000000000006 13.013000000000002 33.08500000000001 12.295000000000002 C 33.330000000000005 11.578000000000001 34.56100000000001 11.301000000000002 34.80700000000001 11.063000000000002 C 35.05500000000001 10.823000000000002 35.05600000000001 9.866000000000003 34.80800000000001 9.627000000000002 Z" fill="#292f33" id="08"></path></svg>