<svg xmlns="http://www.w3.org/2000/svg" viewBox="0 0 36 36"><circle fill="#FFCC4D" cx="18" cy="18" r="18" id="00"></circle><ellipse fill="#664500" cx="12.5" cy="16.5" rx="2.5" ry="3.5" id="01"></ellipse><ellipse fill="#664500" cx="23.5" cy="16.5" rx="2.5" ry="3.5" id="02"></ellipse><path d="M 7 11.994 C 6.448 11.994 6 11.546 6 10.994 S 6.448 9.994 7 9.994 C 12.083 9.994 12.996 6.874 13.033000000000001 6.741 C 13.178 6.212999999999999 13.723 5.893 14.252 6.032 C 14.782 6.171 15.103000000000002 6.705 14.97 7.237 C 14.921000000000001 7.431 13.704 11.994 7.000000000000001 11.994 Z" fill="#664500" id="03"></path><path d="M 29 12 C 23.445999999999998 12 21.198 7.633 21.105 7.447 C 20.858 6.953 21.058 6.352 21.552 6.105 C 22.044 5.8580000000000005 22.644 6.057 22.892 6.548 C 22.967 6.694 24.713 10 29 10 C 29.553 10 30 10.448 30 11 C 30 11.553 29.553 12 29 12 Z" fill="#664500" id="04"></path><path d="M 35.968 17.068 L 31.963000000000005 17.881 L 15.776000000000003 28.389 L 22.894000000000005 29.352 L 34.57900000000001 22.141 C 35.28200000000001 21.709999999999997 35.57300000000001 21.305999999999997 35.77700000000001 20.394 S 35.96800000000001 17.067999999999998 35.96800000000001 17.067999999999998 Z" fill="#ffac33" id="05"></path><path d="M 23.485 29.379 C 23.474 29.335 22.34 26.5 18 26.5 S 12.526 29.335 12.515 29.379 C 12.462 29.592000000000002 12.559000000000001 29.810000000000002 12.747 29.923000000000002 C 12.935 30.035 13.18 30.009 13.343 29.863000000000003 C 13.352 29.855 14.356 29 18 29 C 21.59 29 22.617 29.83 22.656 29.863 C 22.750999999999998 29.953 22.875 30 23 30 C 23.084 30 23.169 29.979 23.246 29.936 C 23.442 29.824 23.54 29.597 23.485 29.379 Z" fill="#664500" id="06"></path><path d="M 35.474 15.729 C 34.644999999999996 14.625 33.077 14.401 31.972999999999995 15.229 L 14.767 28.137 C 15.413 27.895 16.277 27.693 17.381999999999998 27.615000000000002 C 17.637999999999998 27.597 20.041999999999998 26.988000000000003 20.041999999999998 26.988000000000003 L 21.334999999999997 28.024000000000004 S 22.246 28.391000000000005 22.531999999999996 28.563000000000006 L 34.976 19.228000000000005 C 36.079 18.401000000000003 36.302 16.833000000000006 35.474 15.729000000000005 Z" fill="#ccd6dd" id="07"></path><path d="M 28.686 20.87 C 28.238 20.274 27.899 19.725 27.303 20.172 L 17.381 27.615000000000002 C 17.637 27.597 17.881 27.573 18.164 27.571 C 19.524 27.562 20.564 27.766000000000002 21.334000000000003 28.023000000000003 L 28.922000000000004 22.331000000000003 C 29.518000000000004 21.884000000000004 29.133000000000003 21.467000000000002 28.686000000000003 20.870000000000005 Z" fill="#da2f47" id="08"></path><path d="M 29.565 17.029 L 30.8 18.627 L 31.54 18.032 L 30.343999999999998 16.445 Z" fill="#67757f" id="09"></path><path d="M 27.425 18.647 L 28.66 20.244999999999997 L 29.4 19.65 L 28.203999999999997 18.063 Z" fill="#67757f" id="10"></path><path d="M 25.187 20.288 L 26.422 21.885 L 27.163 21.291 L 25.966 19.704 Z" fill="#67757f" id="11"></path><path d="M 23.006 21.948 L 24.240000000000002 23.546 L 24.981 22.951 L 23.784000000000002 21.364 Z" fill="#67757f" id="12"></path><path d="M 20.822 23.567 L 22.057 25.165 L 22.798 24.57 L 21.601 22.983 Z" fill="#67757f" id="13"></path><path d="M 18.599 25.228 L 19.833 26.826 L 20.573999999999998 26.231 L 19.377 24.644000000000002 Z" fill="#67757f" id="14"></path><path d="M 22.531 28.563 L 23.336 29.084999999999997 S 23.139 28.723 22.81 28.358999999999998 L 22.531 28.563 Z" fill="#452e04" id="15"></path></svg>