<svg xmlns="http://www.w3.org/2000/svg" viewBox="0 0 36 36"><path d="M 36 18 C 36 27.941000000000003 27.941000000000003 36 18 36 S 0 27.941 0 18 S 8.059 0 18 0 S 36 8.059 36 18" fill="#ffcc4d" id="00"></path><path d="M 26.001 27 C 25.696 27 25.397000000000002 26.862 25.200000000000003 26.6 C 25.175000000000004 26.566000000000003 22.418000000000003 23 18.000000000000004 23 C 13.583000000000004 23 10.826000000000004 26.566 10.798000000000004 26.603 C 10.465000000000003 27.041 9.837000000000003 27.128 9.398000000000003 26.797 C 8.958000000000004 26.465 8.869000000000003 25.841 9.200000000000003 25.400000000000002 C 9.335000000000003 25.220000000000002 12.562000000000003 21 18.000000000000004 21 S 26.665000000000003 25.221 26.800000000000004 25.4 C 27.132000000000005 25.840999999999998 27.042000000000005 26.468 26.600000000000005 26.799 C 26.420000000000005 26.935 26.210000000000004 27 26.001000000000005 27 Z" fill="#664500" id="01"></path><path d="M 24.591 17.892 C 23.419 17.892 22.046 17.641 20.553 16.894 C 20.059 16.647 19.859 16.046 20.106 15.551999999999998 C 20.354000000000003 15.057999999999998 20.954 14.857999999999997 21.448 15.104999999999999 C 24.848 16.805 27.347 15.230999999999998 27.451999999999998 15.163999999999998 C 27.912 14.865999999999998 28.532999999999998 14.993999999999998 28.834 15.452999999999998 C 29.136 15.911999999999997 29.012999999999998 16.526999999999997 28.556 16.831999999999997 C 28.46 16.894999999999996 26.925 17.891999999999996 24.591 17.891999999999996 Z" fill="#664500" id="02"></path><path d="M 11.410000000000002 17.892 C 9.075000000000003 17.892 7.540000000000002 16.895 7.4460000000000015 16.832 C 6.987000000000002 16.526 6.863000000000001 15.905000000000001 7.169000000000001 15.445 C 7.475000000000001 14.985 8.095 14.86 8.556000000000001 15.168000000000001 C 8.655000000000001 15.232000000000001 11.158000000000001 16.804000000000002 14.554000000000002 15.106000000000002 C 15.049000000000001 14.859000000000002 15.649000000000003 15.060000000000002 15.896000000000003 15.553 C 16.143000000000004 16.047 15.943000000000003 16.648 15.449000000000003 16.895 C 13.954000000000004 17.641 12.581000000000003 17.892 11.410000000000004 17.892 Z" fill="#664500" id="03"></path><path d="M 15.999000000000002 13 C 15.520000000000003 13 15.097000000000003 12.655 15.014000000000003 12.167 C 14.977 11.957 14.059 7 9 7 C 8.448 7 8 6.552 8 6 S 8.448 5 9 5 C 14.416 5 16.592 9.471 16.986 11.835 C 17.077 12.38 16.709 12.895000000000001 16.164 12.986 C 16.109 12.996 16.053 13 15.999000000000002 13 Z" fill="#664500" id="04"></path><path d="M 20.001 13 C 19.946 13 19.892 12.996 19.836000000000002 12.986 C 19.291 12.895000000000001 18.923000000000002 12.38 19.014000000000003 11.835 C 19.407 9.471 21.584 5 27 5 C 27.553 5 28 5.448 28 6 S 27.553 7 27 7 C 21.905 7 21.021 11.954 20.986 12.165 C 20.905 12.652999999999999 20.481 13 20.001 13 Z" fill="#664500" id="05"></path><path d="M 26.848 28.47 L 21.848 20.47 C 21.586 20.052 21.061 19.886 20.61 20.08 C 20.157 20.272 19.910999999999998 20.766 20.031 21.241999999999997 L 22.031 29.241999999999997 C 22.142 29.688 22.541 29.999999999999996 23 29.999999999999996 H 26 C 26.363 29.999999999999996 26.698 29.802999999999997 26.875 29.483999999999995 C 27.051 29.166999999999994 27.041 28.777999999999995 26.848 28.469999999999995 Z" fill="#f5f8fa" id="06"></path><path d="M 15.391 20.08 C 14.938 19.884999999999998 14.412 20.052999999999997 14.152 20.47 L 9.152 28.47 C 8.959999999999999 28.779 8.949 29.166999999999998 9.126 29.485 C 9.302 29.803 9.636 30 10 30 H 13 C 13.459 30 13.859 29.688 13.97 29.242 L 15.97 21.242 C 16.089000000000002 20.766000000000002 15.844000000000001 20.272000000000002 15.391 20.080000000000002 Z" fill="#f5f8fa" id="07"></path><path d="M 11 28 C 10.458 28 9.943999999999999 28.11 9.473 28.305 C 8.932 27.518 8.027 27 7 27 C 5.344 27 4 28.344 4 30 C 4 30.061 4.014 30.118 4.018 30.178 C 2.846 30.586 2 31.688 2 33 C 2 34.657 3.343 36 5 36 C 6.202 36 7.231 35.289 7.709 34.269 C 8.432 35.313 9.634 36 11 36 C 13.209 36 15 34.209 15 32 S 13.209 28 11 28 Z" fill="#e1e8ed" id="08"></path><path d="M 31.982 30.178 C 31.985 30.118000000000002 32 30.061 32 30 C 32 28.344 30.656 27 29 27 C 27.973 27 27.068 27.518 26.527 28.305 C 26.057 28.11 25.541 28 25 28 C 22.791 28 21 29.791 21 32 S 22.791 36 25 36 C 26.365 36 27.568 35.313 28.29 34.269 C 28.77 35.289 29.798 36 31 36 C 32.657 36 34 34.657 34 33 C 34 31.688 33.154 30.586 31.982 30.178 Z" fill="#e1e8ed" id="09"></path></svg>