<svg xmlns="http://www.w3.org/2000/svg" viewBox="0 0 36 36"><path d="M 18 0 C 8.06 0 0 8.06 0 18 C 0 24.051000000000002 2.996 29.392 7.574 32.655 C 7.678 26.217 5.337 19 1.404 19 C 0.94 19 0.564 19.066 0.2509999999999999 19.183 C 0.554 18.426 1.211 18 2.44 18 C 6.709999999999999 18 9.106 26.506 8.532 33.288 C 11.286 34.997 14.522 36 18 36 C 21.479 36 24.716 34.996 27.47 33.287 C 26.893 26.48 29.288 18 33.561 18 C 34.794 18 35.453 18.426 35.753 19.183 C 35.439 19.066 35.062 19 34.596000000000004 19 C 30.658000000000005 19 28.318000000000005 26.198999999999998 28.426000000000002 32.655 C 33.005 29.392 36 24.051 36 18 C 36 8.06 27.941000000000003 0 18 0 Z" fill="#ffcc4d" id="00"></path><path d="M 18 0 C 8.06 0 0 8.06 0 18 C 0 19.192 0.123 20.356 0.344 21.484 C 0.578 20.621000000000002 0.944 19.793000000000003 1.4020000000000001 19 C 0.9390000000000001 19 0.5640000000000002 19.066 0.2520000000000002 19.183 C 0.5160000000000002 18.524 1.0740000000000003 18.134999999999998 2.0200000000000005 18.041 C 5.012 13.862 11.037 11 18 11 C 24.964 11 30.988 13.861 33.980000000000004 18.04 C 34.93000000000001 18.134 35.49 18.522 35.752 19.183 C 35.440000000000005 19.066 35.063 19 34.599000000000004 19 C 35.057 19.793 35.422000000000004 20.621 35.657000000000004 21.484 C 35.878 20.356 36.00000000000001 19.192 36.00000000000001 18 C 36.00000000000001 8.06 27.94100000000001 0 18.000000000000007 0 Z" fill="#bdddf4" id="01"></path><path d="M 28.652 11.91 C 29.598000000000003 15.086 28.545 18.203 26.3 18.872 C 24.054000000000002 19.542 21.466 17.509999999999998 20.521 14.334 C 19.575 11.158999999999999 20.628 8.041 22.872 7.372 C 25.117 6.702999999999999 27.705 8.735 28.652 11.91 Z" fill="#f5f8fa" id="02"></path><path d="M 7.347 11.91 C 6.401000000000001 15.086 7.454000000000001 18.203 9.700000000000001 18.872 C 11.946000000000002 19.542 14.534 17.509999999999998 15.479000000000001 14.334 C 16.425 11.158999999999999 15.373000000000001 8.041 13.128 7.372 C 10.882 6.702999999999999 8.294 8.735 7.347 11.91 Z" fill="#f5f8fa" id="03"></path><path d="M 18 18 C 15.243 18 13 20.243 13 23 V 29 C 13 31.757 15.243 34 18 34 S 23 31.757 23 29 V 23 C 23 20.243 20.757 18 18 18 Z" fill="#664500" id="04"></path><path d="M 35.753 19.183 C 35.439 19.066 35.062 19 34.596000000000004 19 C 29.955000000000005 19 27.531000000000002 29.002000000000002 28.723000000000003 36 H 35.183 C 33.277 28.955 36.839 21.911 35.753 19.183 Z" fill="#fcab40" id="05"></path><path d="M 1.404 19 C 0.94 19 0.564 19.066 0.2509999999999999 19.183 C 0.3229999999999999 19.004 0.4179999999999999 18.847 0.5319999999999999 18.707 C -1.33 20.998 2.849 28.54 0.818 36 H 7.278 C 8.468 29.04 6.042999999999999 19 1.404 19 Z" fill="#fcab40" id="06"></path></svg>