<svg xmlns="http://www.w3.org/2000/svg" viewBox="0 0 36 36"><circle fill="#50A5E6" cx="18" cy="18" r="18" id="00"></circle><ellipse fill="#1C6399" cx="11.985" cy="15.188" rx="2.5" ry="3.5" id="01"></ellipse><ellipse fill="#1C6399" cx="23.985" cy="15.188" rx="2.5" ry="3.5" id="02"></ellipse><path d="M 24.985 21.833 C 27.194 21.833 28.985 23.624 28.985 25.833 S 27.194 29.833 24.985 29.833 H 10.985 C 8.776 29.833 6.984999999999999 28.041999999999998 6.984999999999999 25.833 S 8.776 21.833 10.985 21.833 H 24.985 Z" fill="#ffffff" id="03"></path><path d="M 24.985 28.812 H 24.485 V 26.312 H 27.933999999999997 C 27.694999999999997 27.728 26.467999999999996 28.812 24.985 28.812 Z M 20.485 28.812 V 26.312 H 23.485 V 28.812 H 20.485 Z M 16.485 28.812 V 26.312 H 19.485 V 28.812 H 16.485 Z M 12.485 28.812 V 26.312 H 15.485 V 28.812 H 12.485 Z M 10.985 28.812 C 9.501999999999999 28.812 8.274999999999999 27.728 8.036 26.312 H 11.485 V 28.812 H 10.985 Z M 10.985 22.812 H 11.485 V 25.312 H 8.035 C 8.275 23.897000000000002 9.502 22.812 10.985 22.812 Z M 15.485 22.812 V 25.312 H 12.485 V 22.812 H 15.485 Z M 19.485 22.812 V 25.312 H 16.485 V 22.812 H 19.485 Z M 23.485 22.812 V 25.312 H 20.485 V 22.812 H 23.485 Z M 24.985 22.812 C 26.468 22.812 27.695 23.896 27.933999999999997 25.312 H 24.485 V 22.812 H 24.985 Z M 24.985 20.812 H 10.985 C 8.228 20.812 5.984999999999999 23.055 5.984999999999999 25.812 S 8.228 30.812 10.985 30.812 H 24.985 C 27.742 30.812 29.985 28.569000000000003 29.985 25.812 S 27.742 20.812 24.985 20.812 Z" fill="#1c6399" id="04"></path><path d="M 0.313 21.375 C 0.313 21.085 0.9259999999999999 22.539 1.4609999999999999 22.863 C 2.151 23.281 2.691 24.063 3.501 24.75 S 4.309 26.724 4.277 27.344 C 4.141 30 3.7910000000000004 32.643 3.715 32.969 C 3.639 33.300000000000004 3.3569999999999998 35.792 2.985 35.792 S 2.432 34.914 2.292 34.308 L 2.0669999999999997 33.331 C 1.9969999999999997 33.029 1.9469999999999996 32.7 1.8669999999999998 32.355000000000004 C 1.7949999999999997 32.041000000000004 1.4459999999999997 29.768000000000004 1.3709999999999998 29.442000000000004 C 1.2949999999999997 29.111000000000004 0.9649999999999997 27.799000000000003 0.8919999999999998 27.484000000000005 C 0.8119999999999998 27.137000000000004 0.7779999999999998 26.800000000000004 0.7019999999999997 26.497000000000007 C 0.3749999999999997 25.197000000000006 0.3129999999999997 21.376000000000005 0.3129999999999997 21.375000000000007 Z" fill="#bbddf5" id="15"></path><path d="M 35.756 15.188 C 35.756 14.743 35.71 17.428 32.004 18.582 C 30.543 19.037 30.715999999999998 21.162 30.738999999999997 21.734 C 30.818999999999996 23.709000000000003 31.136999999999997 25.626 31.235999999999997 26.126 C 31.336 26.633000000000003 31.743 28.232 31.837999999999997 28.715 C 31.942999999999998 29.247 32.079 31.121 32.171 31.588 C 32.282 32.151 32.386 32.556 32.471 32.986000000000004 C 32.654999999999994 33.915000000000006 32.894999999999996 34.584 33.303 34.584 C 33.711999999999996 34.584 33.718999999999994 33.459 33.901999999999994 32.531000000000006 C 33.986999999999995 32.102000000000004 34.00899999999999 31.744000000000007 34.12 31.182000000000006 C 34.211999999999996 30.718000000000007 34.483 27.541000000000004 34.585 27.026000000000007 C 34.682 26.535000000000007 35.221000000000004 24.458000000000006 35.319 23.959000000000007 C 35.419000000000004 23.452000000000005 35.718 21.465000000000007 35.798 20.980000000000008 C 36.276 18.08300000000001 35.756 15.189000000000007 35.756 15.188000000000008 Z" fill="#bbddf5" id="16"></path><path d="M 29.986 11.375 C 29.802 11.375 25.449 11.325 22.186 6.975 C 21.854 6.5329999999999995 21.944 5.906 22.386 5.574999999999999 C 22.826999999999998 5.241999999999999 23.453 5.332999999999999 23.785 5.7749999999999995 C 26.426000000000002 9.296 29.847 9.373999999999999 29.991 9.375 C 30.541 9.381 30.985 9.831 30.982 10.379999999999999 C 30.98 10.931 30.535999999999998 11.374999999999998 29.986 11.374999999999998 Z" fill="#1c6399" id="17"></path><path d="M 5.986 11.375 C 5.433999999999999 11.375 4.986 10.927 4.986 10.375 C 4.986 9.824 5.431 9.377 5.981999999999999 9.375 C 6.137999999999999 9.373 9.550999999999998 9.289 12.187 5.775 C 12.517999999999999 5.335 13.144 5.243 13.587 5.575 C 14.029 5.906000000000001 14.118 6.533 13.786999999999999 6.975 C 10.524 11.325 6.169999999999999 11.375 5.985999999999999 11.375 Z" fill="#1c6399" id="18"></path><path d="M 5.875 9.379 S 6.606 9.215 7.302 9.07 C 7.755 8.976 8.113999999999999 8.611 8.855 8.341000000000001 C 9.626000000000001 8.06 10.122 7.817000000000001 10.122 7.817000000000001 S 10.185 9.122000000000002 10.013 9.773000000000001 C 9.874 10.298000000000002 9.801 10.976 9.737 11.353000000000002 C 9.667 11.761000000000001 9.628 12.242 9.540000000000001 12.757000000000001 C 9.464 13.202000000000002 9.324000000000002 13.667000000000002 9.241000000000001 14.151000000000002 C 9.161000000000001 14.618000000000002 9.097000000000001 15.165000000000001 9.017000000000001 15.632000000000001 C 8.934000000000001 16.117 8.912 16.534000000000002 8.835 16.981 C 8.746 17.499000000000002 8.813 17.551000000000002 8.742 17.961000000000002 C 8.597000000000001 18.804000000000002 8.577000000000002 18.688000000000002 8.530000000000001 19.147000000000002 C 8.483 19.606 8.136000000000001 19.663000000000004 7.986000000000001 19.327 C 7.836 18.991000000000003 7.995000000000001 18.806 7.8500000000000005 17.96 C 7.78 17.552 7.523000000000001 16.473 7.44 15.99 C 7.36 15.523 7.252000000000001 14.791 7.172000000000001 14.324 C 7.089 13.839 7.0680000000000005 13.057 6.9910000000000005 12.609 C 6.902 12.091 6.766000000000001 11.771 6.696000000000001 11.361 C 6.551000000000001 10.520000000000001 5.875000000000001 9.379000000000001 5.875000000000001 9.379000000000001 Z" fill="#bbddf5" id="19"></path><path d="M 24.266 1.125 S 23.275 0.704 22.948999999999998 0.604 C 22.662 0.516 21.756 0.328 21.196 0.22 C 20.571 0.099 19.902 0.105 19.902 0.105 S 19.872 0.507 20.016000000000002 1.13 C 20.132 1.632 20.42 2.328 20.474 2.689 C 20.533 3.08 20.542 3.544 20.615 4.037 C 20.679 4.463 20.743 4.917 20.811999999999998 5.379 C 20.878999999999998 5.824999999999999 20.993999999999996 6.273 21.060999999999996 6.72 C 21.130999999999997 7.184 21.162999999999997 7.645 21.227999999999998 8.073 C 21.302 8.569 21.217999999999996 9.051 21.276999999999997 9.444 C 21.397999999999996 10.25 21.609999999999996 11.376000000000001 21.839 11.376000000000001 C 22.067999999999998 11.376000000000001 22.27 10.357000000000001 22.391 9.548000000000002 C 22.45 9.157000000000002 22.363999999999997 8.853000000000002 22.438 8.360000000000001 C 22.502 7.934000000000001 22.555999999999997 7.510000000000002 22.625999999999998 7.048000000000001 C 22.692999999999998 6.602000000000001 22.746999999999996 6.166000000000001 22.813999999999997 5.720000000000001 C 22.883999999999997 5.256 22.874999999999996 4.804 22.938999999999997 4.376 C 23.012999999999998 3.8800000000000003 23.301999999999996 3.269 23.360999999999997 2.8760000000000003 C 23.479999999999997 2.0700000000000003 24.266 1.1250000000000004 24.266 1.1250000000000004 Z" fill="#bbddf5" id="20"></path></svg>