<svg xmlns="http://www.w3.org/2000/svg" viewBox="0 0 36 36"><circle fill="#FFCC4D" cx="18" cy="18" r="18" id="00"></circle><path d="M 20.996 27 C 20.892999999999997 27 20.79 26.984 20.686999999999998 26.951 C 18.926999999999996 26.38 17.071999999999996 26.38 15.311999999999998 26.951 C 14.787999999999997 27.12 14.222999999999997 26.834 14.051999999999998 26.309 C 13.880999999999998 25.784000000000002 14.168999999999999 25.220000000000002 14.694999999999999 25.049 C 16.857 24.347 19.142 24.347 21.304 25.049 C 21.828999999999997 25.22 22.116999999999997 25.784 21.947 26.309 C 21.81 26.73 21.418 27 20.996 27 Z" fill="#65471b" id="01"></path><path d="M 30.335 12.068 C 29.432000000000002 14.812999999999999 26.85 16.783 23.841 16.783 C 23.697000000000003 16.783 23.552 16.778000000000002 23.406000000000002 16.769000000000002 C 21.929000000000002 16.676000000000002 20.564000000000004 16.114 19.456000000000003 15.185000000000002 C 19.492000000000004 15.680000000000001 19.532000000000004 16.182000000000002 19.592000000000002 16.725 C 19.744000000000003 18.113 20.476000000000003 19.207 21.708000000000002 19.888 C 22.528000000000002 20.342000000000002 23.508000000000003 20.576 24.521 20.64 C 26.255000000000003 20.749000000000002 28.091 20.36 29.394000000000002 19.731 C 30.771 19.066000000000003 31.666 17.869 31.85 16.446 C 32.033 15.031000000000002 31.496000000000002 13.522000000000002 30.335 12.068000000000001 Z" fill="#ffffff" id="02"></path><path d="M 21.351 7.583 C 20.054 8.133000000000001 19.404 9.884 19.374 12.872 L 19.413 12.94 C 20.31 14.259 21.786 15.164 23.501 15.271999999999998 C 23.615000000000002 15.278999999999998 23.729000000000003 15.282999999999998 23.842000000000002 15.282999999999998 C 26.476000000000003 15.282999999999998 28.691000000000003 13.345999999999998 29.095000000000002 10.758999999999997 C 28.980000000000004 10.653999999999996 28.874000000000002 10.546999999999997 28.752000000000002 10.442999999999996 C 25.037000000000003 7.272999999999996 22.285000000000004 7.185999999999996 21.351000000000003 7.582999999999997 Z" fill="#65471b" id="03"></path><path d="M 23.841 16.783 C 26.85 16.783 29.432000000000002 14.813 30.335 12.068000000000001 C 29.981 11.625000000000002 29.564 11.188 29.094 10.759000000000002 C 28.69 13.346000000000002 26.475 15.283000000000001 23.841 15.283000000000001 C 23.728 15.283000000000001 23.614 15.279000000000002 23.5 15.272000000000002 C 21.785 15.164000000000001 20.309 14.259000000000002 19.412 12.940000000000001 L 19.372999999999998 12.872000000000002 C 19.365999999999996 13.573000000000002 19.394 14.345000000000002 19.455999999999996 15.185000000000002 C 20.563999999999997 16.114 21.928999999999995 16.676000000000002 23.405999999999995 16.769000000000002 C 23.551999999999996 16.779000000000003 23.696999999999996 16.783 23.840999999999994 16.783 Z" fill="#f4900c" id="04"></path><circle fill="#FFF" cx="21.413" cy="10.705" r="1.107" id="05"></circle><path d="M 12.159 16.783 C 9.15 16.783 6.5680000000000005 14.813 5.665000000000001 12.068000000000001 C 4.504000000000001 13.522000000000002 3.968000000000001 15.031000000000002 4.150000000000001 16.445 C 4.335000000000001 17.868000000000002 5.229000000000001 19.066 6.606000000000002 19.73 C 7.909000000000002 20.359 9.744000000000002 20.748 11.479000000000003 20.639 C 12.492000000000003 20.575 13.472000000000003 20.342 14.292000000000003 19.887 C 15.523000000000003 19.206 16.255000000000003 18.112000000000002 16.408000000000005 16.724 C 16.468000000000004 16.182 16.508000000000006 15.682 16.544000000000004 15.188 C 15.441000000000004 16.111 14.074000000000003 16.675 12.594000000000005 16.768 C 12.448000000000004 16.779 12.303000000000004 16.783 12.159000000000004 16.783 Z" fill="#ffffff" id="06"></path><path d="M 12.159 15.283 C 12.272 15.283 12.386000000000001 15.279 12.5 15.272 C 14.215 15.164 15.690999999999999 14.259 16.588 12.940000000000001 L 16.627000000000002 12.872000000000002 C 16.596000000000004 9.884000000000002 15.947000000000003 8.133000000000003 14.650000000000002 7.583000000000002 C 13.716000000000003 7.186000000000002 10.963000000000003 7.273000000000002 7.249000000000002 10.442000000000002 C 7.1270000000000024 10.546000000000001 7.022000000000002 10.653000000000002 6.906000000000002 10.758000000000003 C 7.310000000000002 13.346000000000004 9.525000000000002 15.283000000000003 12.159000000000002 15.283000000000003 Z" fill="#65471b" id="07"></path><path d="M 16.626 12.872 L 16.587 12.94 C 15.69 14.259 14.213999999999999 15.164 12.498999999999999 15.271999999999998 C 12.384999999999998 15.278999999999998 12.270999999999999 15.282999999999998 12.158 15.282999999999998 C 9.524 15.282999999999998 7.308999999999999 13.345999999999998 6.904999999999999 10.758999999999997 C 6.435 11.187999999999997 6.017999999999999 11.624999999999996 5.664 12.067999999999996 C 6.567 14.812999999999995 9.149 16.782999999999994 12.158 16.782999999999994 C 12.302 16.782999999999994 12.447 16.777999999999995 12.593 16.768999999999995 C 14.073 16.675999999999995 15.44 16.111999999999995 16.543 15.188999999999995 C 16.605 14.347999999999995 16.634 13.574999999999994 16.625999999999998 12.871999999999995 Z" fill="#f4900c" id="08"></path><path d="M 9.781 11.81 C 10.391 11.772 10.855 11.246 10.816 10.636000000000001 C 10.778 10.026000000000002 10.252 9.562000000000001 9.642000000000001 9.600000000000001 C 9.032000000000002 9.638000000000002 8.568000000000001 10.164000000000001 8.606000000000002 10.774000000000001 C 8.645000000000001 11.384 9.171000000000001 11.848 9.781000000000002 11.81 Z" fill="#ffffff" id="09"></path></svg>