<svg xmlns="http://www.w3.org/2000/svg" viewBox="0 0 36 36"><path d="M 35 17 C 35 26.389 27.389 34 18 34 S 1 26.389 1 17 S 8.611 0 18 0 S 35 7.611 35 17" fill="#ffcb4c" id="00"></path><ellipse fill="#65471B" cx="17.812" cy="23.125" rx="4.062" ry="1.93" id="01"></ellipse><path d="M 25.35 25.981 L 25.317 25.961000000000002 C 24.478 25.446 23.37 25.711000000000002 22.855 26.55 L 22.704 26.795 C 22.162 26.233 21.454 25.821 20.636 25.654000000000003 L 19.237 25.368000000000002 L 20.508999999999997 19.144000000000002 C 20.705999999999996 18.179000000000002 20.077999999999996 17.229000000000003 19.113999999999997 17.032000000000004 L 19.075999999999997 17.024000000000004 C 18.110999999999997 16.827000000000005 17.160999999999998 17.455000000000005 16.964 18.419000000000004 L 15.290999999999999 26.602000000000004 L 15.275999999999998 26.676000000000005 L 14.962999999999997 28.207000000000004 L 14.961999999999998 28.217000000000006 L 13.833999999999998 33.75000000000001 C 13.613999999999997 34.82800000000001 14.103999999999997 36.00000000000001 15.728999999999997 36.00000000000001 H 19 C 21.804 36.00000000000001 22.634999999999998 34.99000000000001 23.198 32.90700000000001 L 25.939 28.44400000000001 C 26.453 27.60500000000001 26.189 26.49700000000001 25.35 25.98100000000001 Z" fill="#f19020" id="02"></path><path d="M 6.114 10.271 C 5.8919999999999995 10.271 5.669 10.202 5.477 10.058000000000002 C 5.008 9.706000000000001 4.913 9.040000000000001 5.265000000000001 8.571000000000002 C 8.731000000000002 3.9490000000000016 13.357000000000001 3.8960000000000017 13.552000000000001 3.8960000000000017 C 14.139000000000001 3.8960000000000017 14.614 4.372000000000002 14.614 4.959000000000001 C 14.614 5.544000000000001 14.141 6.019000000000002 13.556000000000001 6.021000000000002 C 13.39 6.0230000000000015 9.764000000000001 6.112000000000002 6.964000000000001 9.846000000000002 C 6.756000000000001 10.124000000000002 6.437000000000001 10.271000000000003 6.114000000000002 10.271000000000003 Z" fill="#65471b" id="03"></path><path d="M 21.777999999999995 13.221999999999998 C 21.777999999999995 14.612999999999998 22.623999999999995 15.740999999999998 23.666999999999994 15.740999999999998 C 24.709999999999994 15.740999999999998 25.555999999999994 14.613999999999997 25.555999999999994 13.221999999999998 C 25.555999999999994 11.830999999999998 24.710999999999995 10.702999999999998 23.666999999999994 10.702999999999998 C 22.622999999999994 10.703999999999997 21.777999999999995 11.830999999999998 21.777999999999995 13.221999999999998 Z" fill="#65471b" id="04"></path><path d="M 29.885999999999996 10.270999999999997 C 30.107999999999997 10.270999999999997 30.330999999999996 10.201999999999996 30.522999999999996 10.057999999999998 C 30.992999999999995 9.705999999999998 31.086999999999996 9.039999999999997 30.734999999999996 8.570999999999998 C 27.268999999999995 3.948999999999998 22.642999999999994 3.895999999999998 22.447999999999993 3.895999999999998 C 21.860999999999994 3.895999999999998 21.385999999999992 4.371999999999998 21.385999999999992 4.958999999999998 C 21.385999999999992 5.543999999999998 21.85899999999999 6.018999999999998 22.443999999999992 6.020999999999998 C 22.609999999999992 6.022999999999998 26.23599999999999 6.111999999999998 29.03599999999999 9.845999999999998 C 29.24399999999999 10.123999999999999 29.56299999999999 10.270999999999999 29.885999999999992 10.270999999999999 Z" fill="#65471b" id="05"></path><path d="M 14.221999999999998 13.221999999999998 C 14.221999999999998 14.612999999999998 13.375999999999998 15.740999999999998 12.332999999999998 15.740999999999998 C 11.29 15.740999999999998 10.443999999999999 14.613999999999997 10.443999999999999 13.221999999999998 C 10.443999999999999 11.830999999999998 11.289 10.702999999999998 12.332999999999998 10.702999999999998 C 13.375999999999998 10.703999999999997 14.221999999999998 11.830999999999998 14.221999999999998 13.221999999999998 Z" fill="#65471b" id="06"></path><path d="M 19.15 35.473 C 18.897 35.473 18.619999999999997 35.442 18.317 35.371 C 17.707 35.227000000000004 17.277 34.872 17.137 34.396 C 17.019000000000002 33.995 17.127 33.571 17.426000000000002 33.261 C 17.814000000000004 32.859 18.429000000000002 32.727000000000004 19.121000000000002 32.903000000000006 C 19.302000000000003 32.949000000000005 19.412000000000003 33.13400000000001 19.366000000000003 33.316 C 19.320000000000004 33.496 19.137000000000004 33.607 18.953000000000003 33.561 C 18.508000000000003 33.447 18.128000000000004 33.511 17.915000000000003 33.732 C 17.787000000000003 33.864 17.740000000000002 34.041 17.788000000000004 34.205 C 17.857000000000003 34.440999999999995 18.107000000000003 34.626 18.473000000000003 34.711 C 19.653000000000002 34.988 20.306 34.525 20.647000000000002 34.086 C 21.155 33.433 21.215000000000003 32.548 21.034000000000002 32.201 C 20.612000000000002 31.389 18.985000000000003 31.209 18.394000000000002 31.208000000000002 C 18.207 31.208000000000002 18.055000000000003 31.056 18.055000000000003 30.869000000000003 C 18.055000000000003 30.682000000000002 18.207000000000004 30.530000000000005 18.394000000000002 30.530000000000005 C 18.497000000000003 30.530000000000005 20.936 30.545000000000005 21.636000000000003 31.889000000000003 C 21.941000000000003 32.474000000000004 21.854000000000003 33.64 21.182000000000002 34.503 C 20.874000000000002 34.897 20.239 35.473 19.150000000000002 35.473 Z" fill="#65471b" id="07"></path><path d="M 22.409 30.743 C 22.389 30.743 22.366999999999997 30.741 22.345 30.737 C 22.160999999999998 30.703 22.04 30.525 22.076 30.34 C 22.135 30.028 22.074 29.753 21.889 29.501 C 21.299 28.693 19.599999999999998 28.326 18.994999999999997 28.253 C 18.808999999999997 28.231 18.676 28.061 18.698999999999998 27.876 C 18.720999999999997 27.69 18.883 27.555 19.075999999999997 27.580000000000002 C 19.176999999999996 27.591 21.549999999999997 27.89 22.435999999999996 29.101000000000003 C 22.733999999999995 29.508000000000003 22.836999999999996 29.969 22.741999999999997 30.469 C 22.711 30.630000000000003 22.569 30.743000000000002 22.409 30.743000000000002 Z" fill="#65471b" id="08"></path></svg>