<svg xmlns="http://www.w3.org/2000/svg" viewBox="0 0 36 36"><path d="M 36 18 C 36 27.941000000000003 27.941000000000003 36 18 36 C 8.06 36 0 27.941000000000003 0 18 C 0 8.06 8.06 0 18 0 C 27.941000000000003 0 36 8.06 36 18" fill="#ffcc4d" id="00"></path><path d="M 7 21.263 C 7 25.227 11.596 30.263 18 30.263 S 29 25.263 29 21.263 C 29 21.263 18.667 24.019000000000002 7 21.263 Z" fill="#664500" id="01"></path><path d="M 12 23.003 V 29.964 C 12 32.964 14 35.964 18 35.964 S 24 32.964 24 29.964 V 23.043999999999997 C 17.709 24.336 12 23.002999999999997 12 23.002999999999997 Z" fill="#5d9040" id="02"></path><path d="M 26.694000000000003 14.736 C 26.694000000000003 13.332 25.279000000000003 12.786000000000001 24.142000000000003 12.347000000000001 C 23.386000000000003 12.055000000000001 22.672000000000004 11.779000000000002 22.672000000000004 11.379000000000001 C 22.672000000000004 10.72 23.556000000000004 10.686000000000002 23.733000000000004 10.686000000000002 C 24.358000000000004 10.686000000000002 24.668000000000003 10.920000000000002 24.943000000000005 11.127000000000002 C 25.154000000000003 11.286000000000003 25.371000000000006 11.450000000000003 25.673000000000005 11.450000000000003 C 26.238000000000007 11.450000000000003 26.495000000000005 11.053000000000003 26.495000000000005 10.684000000000003 C 26.495000000000005 9.947000000000003 25.593000000000004 9.428000000000003 24.637000000000004 9.210000000000003 V 8.818000000000003 C 24.637000000000004 8.300000000000002 24.215000000000003 7.879000000000003 23.698000000000004 7.879000000000003 C 23.180000000000003 7.879000000000003 22.758000000000003 8.300000000000002 22.758000000000003 8.818000000000003 V 9.244000000000003 C 21.615000000000002 9.577000000000004 20.913000000000004 10.418000000000003 20.913000000000004 11.479000000000003 C 20.913000000000004 12.790000000000003 22.206000000000003 13.328000000000003 23.347000000000005 13.802000000000003 C 24.164000000000005 14.142000000000003 24.936000000000003 14.463000000000003 24.936000000000003 14.964000000000002 C 24.936000000000003 15.330000000000002 24.477000000000004 15.726000000000003 23.734 15.726000000000003 C 22.984 15.726000000000003 22.554000000000002 15.426000000000002 22.175 15.162000000000003 C 21.912 14.979000000000003 21.664 14.806000000000003 21.369 14.806000000000003 C 20.938 14.806000000000003 20.602 15.168000000000003 20.602 15.630000000000003 C 20.602 16.309 21.533 16.986000000000004 22.758 17.224000000000004 V 17.694000000000003 C 22.758 18.211000000000002 23.180999999999997 18.632 23.698999999999998 18.632 S 24.636999999999997 18.211000000000002 24.636999999999997 17.694000000000003 L 24.633999999999997 17.196 C 25.928999999999995 16.879 26.693999999999996 15.973 26.693999999999996 14.736 Z" fill="#664500" id="03"></path><path d="M 12.284 12.33 C 11.528 12.038 10.813 11.762 10.813 11.362 C 10.813 10.703 11.697000000000001 10.669 11.874 10.669 C 12.499 10.669 12.81 10.903 13.084 11.110000000000001 C 13.294 11.269000000000002 13.512 11.433000000000002 13.815 11.433000000000002 C 14.379 11.433000000000002 14.636 11.036000000000001 14.636 10.667000000000002 C 14.636 9.931000000000001 13.734 9.411000000000001 12.777999999999999 9.193000000000001 V 8.8 C 12.777999999999999 8.282 12.357 7.861000000000001 11.838999999999999 7.861000000000001 S 10.899999999999999 8.282 10.899999999999999 8.8 V 9.226 C 9.755999999999998 9.559000000000001 9.054999999999998 10.4 9.054999999999998 11.461 C 9.054999999999998 12.772 10.347999999999997 13.31 11.488999999999997 13.784 C 12.305999999999997 14.124 13.077999999999998 14.445 13.077999999999998 14.946000000000002 C 13.077999999999998 15.312000000000001 12.617999999999997 15.708000000000002 11.874999999999998 15.708000000000002 C 11.124999999999998 15.708000000000002 10.694999999999999 15.408000000000001 10.314999999999998 15.144000000000002 C 10.052999999999997 14.961000000000002 9.804999999999998 14.788000000000002 9.508999999999997 14.788000000000002 C 9.078999999999997 14.788000000000002 8.742999999999997 15.150000000000002 8.742999999999997 15.612000000000002 C 8.742999999999997 16.291 9.673999999999996 16.968000000000004 10.899999999999997 17.206000000000003 V 17.676000000000002 C 10.899999999999997 18.194000000000003 11.320999999999996 18.614 11.838999999999997 18.614 S 12.777999999999997 18.193 12.777999999999997 17.676000000000002 L 12.772999999999996 17.178 C 14.068999999999996 16.863 14.834999999999996 15.956000000000001 14.834999999999996 14.719000000000001 C 14.835999999999995 13.315000000000001 13.420999999999996 12.769000000000002 12.283999999999995 12.330000000000002 Z" fill="#664500" id="04"></path><path d="M 20.97 31.069 C 20.97 29.701 19.590999999999998 29.168 18.482999999999997 28.74 C 17.746 28.456 17.048999999999996 28.186 17.048999999999996 27.796999999999997 C 17.048999999999996 27.153999999999996 17.909999999999997 27.121999999999996 18.082999999999995 27.121999999999996 C 18.691999999999993 27.121999999999996 18.994999999999994 27.350999999999996 19.262999999999995 27.551999999999996 C 19.467999999999993 27.706999999999997 19.680999999999994 27.866999999999997 19.975999999999996 27.866999999999997 C 20.525999999999996 27.866999999999997 20.776999999999994 27.478999999999996 20.776999999999994 27.119999999999997 C 20.776999999999994 26.403 19.897999999999993 25.895999999999997 18.964999999999993 25.682999999999996 V 25.3 C 18.964999999999993 24.795 18.55399999999999 24.384 18.048999999999992 24.384 S 17.132999999999992 24.795 17.132999999999992 25.3 V 25.715 C 16.017999999999994 26.039 15.333999999999993 26.86 15.333999999999993 27.894 C 15.333999999999993 29.171999999999997 16.59499999999999 29.697 17.706999999999994 30.159 C 18.503999999999994 30.49 19.255999999999993 30.802999999999997 19.255999999999993 31.291 C 19.255999999999993 31.648 18.807999999999993 32.034 18.08299999999999 32.034 C 17.35199999999999 32.034 16.932999999999993 31.741999999999997 16.56299999999999 31.483 C 16.307999999999993 31.305 16.065999999999992 31.136 15.777999999999992 31.136 C 15.358999999999991 31.136 15.029999999999992 31.49 15.029999999999992 31.939999999999998 C 15.029999999999992 32.602999999999994 15.936999999999992 33.262 17.13199999999999 33.494 V 33.953 C 17.13199999999999 34.457 17.542999999999992 34.867000000000004 18.048999999999992 34.867000000000004 C 18.55399999999999 34.867000000000004 18.96399999999999 34.45700000000001 18.96399999999999 33.953 L 18.96099999999999 33.467000000000006 C 20.22399999999999 33.15800000000001 20.96999999999999 32.27400000000001 20.96999999999999 31.069000000000006 Z" fill="#ffffff" id="05"></path></svg>