<svg xmlns="http://www.w3.org/2000/svg" viewBox="0 0 36 36"><path d="M 35 18.619 C 35 14.825 31.925 11.75 28.131 11.75 C 27.152 11.75 25.379 12.328 25.379 12.328 L 12.253000000000002 13.712 S 9.536000000000001 12.131 7.870000000000002 12.131 C 4.075 12.131 1 15.206 1 19 C 1 19.237 1.012 19.471 1.035 19.701999999999998 C 1.406 28.763 8.849 36 18 36 C 27.389 36 35 28.389 35 19 C 35 18.948 34.991 18.899 34.988 18.847 C 34.991 18.771 35 18.696 35 18.619 Z" fill="#ffcb4c" id="00"></path><path d="M 30.126 13.751 C 29.185000000000002 13.507 29.117 14.136999999999999 27.924 13.997 C 26.756 13.86 28.352999999999998 13.258 27.729 12.905 C 27.519 12.786 27.218 12.761 26.846999999999998 12.806999999999999 C 25.794999999999998 12.935999999999998 9.892999999999997 13.350999999999999 9.299999999999997 13.636999999999999 C 8.772999999999998 13.890999999999998 8.460999999999997 14.184999999999999 7.9819999999999975 13.738 C 7.378999999999998 13.176 6.515999999999997 13.5 6.265999999999997 13.687 C 5.943999999999997 13.928999999999998 5.876999999999997 14.408999999999999 6.499999999999997 14.963999999999999 C 7.120999999999997 15.383999999999999 8.172999999999998 15.822999999999999 9.964999999999996 16.122999999999998 C 10.161999999999995 16.156 10.329999999999997 16.168999999999997 10.486999999999997 16.174999999999997 C 11.713999999999997 16.215999999999998 11.883999999999997 14.504999999999997 13.616999999999997 14.458999999999998 C 14.752999999999997 14.428999999999998 24.769999999999996 15.528999999999998 25.595 15.416999999999998 C 25.695999999999998 15.402999999999999 25.802 15.392999999999999 25.924 15.392999999999999 C 27.487 15.392999999999999 27.849999999999998 16.843 29.512999999999998 15.709 C 30.217999999999996 15.136 31.323999999999998 14.061 30.125999999999998 13.751 Z" fill="#f19020" id="01"></path><path d="M 5.938 9.115 C 7.460999999999999 10.642 8.542 12.26 9.3 13.638 C 9.866000000000001 14.667 10.256 15.567 10.487 16.176 C 11.714 16.217 11.884 15.505999999999998 13.617 15.459999999999999 C 14.753 15.43 15.4 16.229 16.240000000000002 16.689 C 17.742 17.511 18.809 15.959 19.959000000000003 15.959 C 20.809000000000005 15.959 22.178000000000004 17.166 23.135000000000005 16.723 C 24.522000000000006 16.08 24.770000000000007 15.531999999999998 25.595000000000006 15.418999999999999 C 25.917000000000005 14.627999999999998 26.336000000000006 13.722999999999999 26.847000000000005 12.809999999999999 C 27.587000000000003 11.485999999999999 28.525000000000006 10.145 29.688000000000006 9.116999999999999 H 5.938 Z" fill="#f36c24" id="02"></path><path d="M 29.306 9.435 C 30.587 8.172 6.2669999999999995 9.451 6.965 10.223 C 7.952999999999999 11.317 9.165 13.376000000000001 9.165 13.376000000000001 S 13.921999999999999 15.781 17.516 12.750000000000002 C 20.016 14.250000000000002 23.516 13.719000000000001 25.078 11.141000000000002 C 25.078 11.141000000000002 26.294999999999998 11.594000000000001 27.529 11.672000000000002 C 27.529 11.672000000000002 28.482 10.247000000000002 29.306 9.435000000000002 Z" fill="#ce5c1f" id="03"></path><ellipse fill="#65471B" cx="18" cy="28.638" rx="4.332" ry="4.95" id="04"></ellipse><path d=" M 26 20.605 C 26 22.078 25.105 23.272 24 23.272 S 22 22.078 22 20.604999999999997 C 22 19.132999999999996 22.896 17.937999999999995 24 17.937999999999995 C 25.105 17.938999999999997 26 19.132999999999996 26 20.604999999999997 Z" fill="#65471b" id="05"></path><path d="M 14 20.606 C 14 22.079 13.104 23.273000000000003 12 23.273000000000003 C 10.895 23.273000000000003 10 22.079000000000004 10 20.606 C 10 19.133000000000003 10.895 17.939 12 17.939 C 13.104 17.939 14 19.133 14 20.606 Z" fill="#65471b" id="06"></path><path d="M 31.125 3.725 C 30.885 3.725 30.658 3.77 30.439 3.834 C 29.751 2.989 28.716 2.438 27.541 2.438 C 27.454 2.438 27.372 2.458 27.286 2.464 C 26.552 1.637 25.492 1.105 24.299 1.105 C 22.794 1.105 21.499 1.944 20.813 3.171 C 20.467 2.3729999999999998 19.674 1.8139999999999998 18.749 1.8139999999999998 C 18.031 1.8139999999999998 17.4 2.1559999999999997 16.988 2.679 C 16.48 1.209 15.1 0.147 13.458 0.147 C 12.135 0.147 10.978 0.836 10.31 1.87 C 10.126000000000001 1.8410000000000002 9.942 1.812 9.75 1.812 C 8.318 1.812 7.089 2.624 6.457 3.8040000000000003 C 6.254 3.7660000000000005 6.047 3.741 5.833 3.741 C 3.9690000000000003 3.741 2.458 5.252 2.458 7.116 S 3.9690000000000003 10.491 5.833 10.491 C 6.421 10.491 6.968 10.331999999999999 7.447 10.065999999999999 C 7.823 10.347999999999999 8.285 10.521999999999998 8.792 10.521999999999998 C 8.937 10.521999999999998 9.077 10.505999999999998 9.214 10.479 C 10.069 11.857999999999999 11.581 12.782 13.323 12.782 C 15.032 12.782 16.529 11.897 17.396 10.565 C 18.116 11.447 19.198 12.022 20.425 12.022 C 22.240000000000002 12.022 23.752000000000002 10.784 24.201 9.111 C 24.235 9.112 24.266000000000002 9.121 24.3 9.121 C 24.583000000000002 9.121 24.859 9.09 25.126 9.034 C 25.78 9.59 26.617 9.938 27.543 9.938 C 28.717 9.938 29.753 9.387 30.439999999999998 8.542000000000002 C 30.659 8.606000000000002 30.886 8.651000000000002 31.125999999999998 8.651000000000002 C 32.486 8.651000000000002 33.589 7.548000000000002 33.589 6.1880000000000015 S 32.485 3.7250000000000014 31.125 3.7250000000000014 Z" fill="#ccd6dd" id="07"></path><circle fill="#E1E8ED" cx="27.795" cy="5.767" r="2.121" id="08"></circle><path d="M 19.876 5.903 C 19.876 4.709999999999999 18.909000000000002 3.7419999999999995 17.716 3.7419999999999995 C 17.348000000000003 3.7419999999999995 17.006 3.8429999999999995 16.703000000000003 4.005 C 16.452 3.404 15.859000000000004 2.981 15.166000000000004 2.981 C 14.599000000000004 2.981 14.099000000000004 3.266 13.798000000000004 3.699 C 13.128000000000004 3.0759999999999996 12.237000000000004 2.686 11.250000000000004 2.686 C 9.495000000000005 2.686 8.034000000000002 3.896 7.6250000000000036 5.524 C 7.260000000000003 5.157 6.7550000000000034 4.929 6.196000000000003 4.929 C 5.0850000000000035 4.929 4.184000000000003 5.83 4.184000000000003 6.941000000000001 S 5.085000000000003 8.953000000000001 6.196000000000003 8.953000000000001 C 6.899000000000004 8.953000000000001 7.515000000000003 8.592 7.8750000000000036 8.046000000000001 C 8.392000000000003 9.127 9.404000000000003 9.919 10.624000000000004 10.125000000000002 C 11.014000000000005 10.795000000000002 11.731000000000003 11.250000000000002 12.562000000000005 11.250000000000002 C 13.636000000000005 11.250000000000002 14.531000000000004 10.496000000000002 14.755000000000004 9.490000000000002 C 15.079000000000004 9.670000000000002 15.446000000000005 9.782000000000002 15.842000000000004 9.782000000000002 C 16.912000000000003 9.782000000000002 17.804000000000006 9.033000000000001 18.032000000000004 8.032000000000002 C 19.074000000000005 7.877000000000002 19.876000000000005 6.988000000000001 19.876000000000005 5.903000000000002 Z" fill="#e1e8ed" id="09"></path></svg>