<svg xmlns="http://www.w3.org/2000/svg" viewBox="0 0 36 36"><path d="M 32.664 8.519 C 29.364 5.134 23.42 4.75 18 4.75 S 6.636 5.134 3.336 8.519 C 0.582 11.344 0 15.751 0 19.791 C 0 25.054000000000002 1.982 31.102 6.357 34.035 C 9.364 36.051 13.95 35.871 18 35.871 S 26.636 36.051 29.643 34.035000000000004 C 34.018 31.101 36 25.054 36 19.791 C 36 15.751000000000001 35.418 11.344000000000001 32.664 8.519 Z" fill="#f4900c" id="00"></path><path d="M 20.783 5.444 C 20.852 5.864 20.561 6.208 20.136000000000003 6.208 H 15.685000000000002 C 15.259000000000002 6.208 14.968000000000002 5.864 15.038000000000002 5.444 L 15.783000000000001 0.9719999999999995 C 15.853000000000002 0.5509999999999995 16.259 0.20799999999999952 16.685000000000002 0.20799999999999952 H 19.136000000000003 C 19.562 0.20799999999999952 19.968000000000004 0.5519999999999995 20.037000000000003 0.9719999999999995 L 20.783 5.444 Z" fill="#3f7123" id="01"></path><path d=" M 8.023999999999997 15.421 C 7.894999999999998 17.548 8.807999999999998 19.227 11.228999999999997 19.374 C 13.648999999999997 19.52 14.757999999999997 17.962999999999997 14.886999999999997 15.837 S 13.654999999999998 10.716999999999999 11.759999999999998 10.603 S 8.151999999999997 13.294 8.023999999999997 15.421 Z" fill="#642116" id="02"></path><path d=" M 27.976 15.421 C 28.105 17.548 27.192 19.227 24.771 19.374 C 22.351 19.52 21.242 17.962999999999997 21.113 15.837 S 22.345 10.716999999999999 24.24 10.603 C 26.136 10.487 27.848 13.294 27.976 15.421 Z" fill="#642116" id="03"></path><path d=" M 30.162 24.351 C 30.116999999999997 24.276 30.035999999999998 24.23 29.948 24.23 H 29.107 C 29.038999999999998 24.23 28.973 24.258 28.926 24.307000000000002 L 26.695 26.641000000000002 L 23.997 24.472 C 23.946 24.431 23.88 24.414 23.812 24.419 C 23.746000000000002 24.426000000000002 23.685000000000002 24.46 23.644000000000002 24.513 L 21.236 27.575000000000003 L 18.182000000000002 24.309000000000005 C 18.169 24.295000000000005 18.149 24.292000000000005 18.134000000000004 24.281000000000006 C 18.119000000000003 24.271000000000004 18.109000000000005 24.254000000000005 18.091000000000005 24.247000000000007 C 18.085000000000004 24.245000000000008 18.078000000000003 24.247000000000007 18.072000000000006 24.245000000000008 C 18.048000000000005 24.238000000000007 18.025000000000006 24.24000000000001 18.000000000000007 24.24000000000001 C 17.97500000000001 24.24000000000001 17.95200000000001 24.23800000000001 17.928000000000008 24.24600000000001 C 17.922000000000008 24.248000000000008 17.915000000000006 24.245000000000008 17.90800000000001 24.248000000000008 C 17.890000000000008 24.25500000000001 17.881000000000007 24.27200000000001 17.86500000000001 24.282000000000007 C 17.84900000000001 24.29200000000001 17.83000000000001 24.29500000000001 17.81700000000001 24.309000000000008 L 14.76400000000001 27.57500000000001 L 12.355000000000011 24.51300000000001 C 12.31400000000001 24.460000000000008 12.25300000000001 24.42600000000001 12.187000000000012 24.419000000000008 C 12.121000000000011 24.413000000000007 12.054000000000013 24.431000000000008 12.002000000000011 24.47200000000001 L 9.304000000000011 26.64100000000001 L 7.0740000000000105 24.30700000000001 C 7.027000000000011 24.25800000000001 6.96200000000001 24.230000000000008 6.8930000000000105 24.230000000000008 H 6.05200000000001 C 5.9650000000000105 24.230000000000008 5.883000000000011 24.276000000000007 5.83800000000001 24.351000000000006 C 5.79300000000001 24.426000000000005 5.79000000000001 24.519000000000005 5.83100000000001 24.596000000000007 L 8.58500000000001 29.81500000000001 C 8.61900000000001 29.87900000000001 8.67800000000001 29.925000000000008 8.74900000000001 29.942000000000007 S 8.894000000000009 29.944000000000006 8.952000000000009 29.902000000000008 L 10.986000000000008 28.44400000000001 L 13.990000000000007 32.07700000000001 C 14.033000000000007 32.13000000000001 14.096000000000007 32.16200000000001 14.164000000000007 32.167000000000016 L 14.183000000000007 32.16800000000001 C 14.245000000000006 32.16800000000001 14.304000000000007 32.146000000000015 14.350000000000007 32.10500000000001 L 18 28.836 L 21.65 32.104 C 21.695999999999998 32.144999999999996 21.755 32.167 21.817 32.167 L 21.836 32.166000000000004 C 21.904 32.161 21.967 32.129000000000005 22.009999999999998 32.076 L 25.014999999999997 28.443 L 27.048999999999996 29.901 C 27.108999999999995 29.944 27.181999999999995 29.961 27.251999999999995 29.941 C 27.321999999999996 29.924 27.381999999999994 29.878999999999998 27.414999999999996 29.814999999999998 L 30.169999999999995 24.595999999999997 C 30.209999999999994 24.518999999999995 30.207999999999995 24.425999999999995 30.161999999999995 24.350999999999996 Z" fill="#642116" id="04"></path><path d="M 20.654 21.159 L 19.056 18.563 C 18.765 18.020999999999997 18.383000000000003 17.75 17.999000000000002 17.746 C 17.616000000000003 17.75 17.233000000000004 18.020999999999997 16.942000000000004 18.563 L 15.344000000000003 21.159 C 14.757000000000003 22.252 16.217000000000002 22.875 17.998000000000005 22.875 S 21.241000000000003 22.251 20.654000000000003 21.159 Z" fill="#642116" id="05"></path></svg>