<svg xmlns="http://www.w3.org/2000/svg" viewBox="0 0 36 36"><path d="M 35.597 14.232 C 37.68 23.951999999999998 31.489 33.521 21.769000000000002 35.604 C 12.049 37.687 2.48 31.496 0.397 21.776 C -1.686 12.056 4.506 2.487 14.225 0.404 C 23.945 -1.6800000000000002 33.514 4.512 35.597 14.232" fill="#ffcb4c" id="00"></path><path d="M 29.284 9.012 C 30.063 12.648 27.747 16.228 24.110999999999997 17.007 C 20.474999999999998 17.786 16.894999999999996 15.470000000000002 16.114999999999995 11.834000000000001 C 15.335999999999995 8.198 17.651999999999994 4.618000000000001 21.287999999999997 3.8390000000000013 S 28.504999999999995 5.375000000000002 29.284 9.012 Z" fill="#f4f7f9" id="01"></path><circle fill="#292F33" cx="22.306" cy="9.291" r="2.037" id="02"></circle><path d="M 14.088 14.282 C 14.543999999999999 16.408 13.189 18.501 11.062999999999999 18.957 S 6.8439999999999985 18.058 6.387999999999999 15.932 C 5.931999999999999 13.806000000000001 7.286999999999999 11.713000000000001 9.412999999999998 11.257000000000001 S 13.631999999999998 12.156000000000002 14.087999999999997 14.282000000000002 Z" fill="#f4f7f9" id="03"></path><ellipse transform="rotate(-12.095 10.236 15.853)" fill="#292F33" cx="10.238" cy="15.857" rx="1.942" ry="1.942" id="04"></ellipse><path d="M 18.625 20.937 C 15.082 21.696 12.644 21.787000000000003 9.615 21.845000000000002 C 8.924 21.860000000000003 7.66 22.264000000000003 8.079 24.220000000000002 C 8.917 28.131000000000004 14.458 32.057 20.721 30.715000000000003 C 26.983 29.373000000000005 30.429000000000002 23.521000000000004 29.591 19.610000000000003 C 29.172 17.654000000000003 27.852 17.802000000000003 27.216 18.074 C 24.43 19.261000000000003 22.168 20.178 18.625 20.937 Z" fill="#65471b" id="05"></path><path d="M 11 24.004 V 30.004 C 11 33.004000000000005 13 36.004000000000005 17 36.004000000000005 S 23 33.004000000000005 23 30.004000000000005 V 24.004000000000005 H 11 Z" fill="#e8596e" id="06"></path><path d="M 17 31.883 C 17.301 31.883 17.545 31.639 17.545 31.337999999999997 V 25.043 H 16.454 V 31.338 C 16.455000000000002 31.639 16.699 31.883000000000003 17 31.883000000000003 Z" fill="#dd2f45" id="07"></path><path d="M 10.034 23.801 S 13.177 24.15 19.044 22.892999999999997 C 24.911 21.635999999999996 27.634999999999998 20.028999999999996 27.634999999999998 20.028999999999996 S 26.517999999999997 24.358999999999995 19.673 25.825999999999997 C 12.828 27.292999999999996 10.033999999999999 23.801 10.033999999999999 23.801 Z" fill="#ffffff" id="08"></path></svg>