<svg xmlns="http://www.w3.org/2000/svg" viewBox="0 0 36 36"><path d="M 35.99 18 C 35.99 27.941000000000003 27.931000000000004 36 17.990000000000002 36 C 8.050000000000002 36 -0.00999999999999801 27.941000000000003 -0.00999999999999801 18 C -0.00999999999999801 8.06 8.050000000000002 0 17.990000000000002 0 S 35.99 8.06 35.99 18" fill="#77b255" id="00"></path><path d="M 14.755999999999998 11.533999999999999 C 14.7 11.533999999999999 8.172999999999998 12.735999999999999 7.9289999999999985 13.036 C 7.8809999999999985 13.094999999999999 7.860999999999999 13.176 7.876999999999999 13.248999999999999 C 8.265999999999998 15.088999999999999 9.815999999999999 16.424999999999997 11.562999999999999 16.424999999999997 C 11.799 16.424999999999997 12.036999999999999 16.4 12.27 16.350999999999996 C 14.241999999999999 15.933999999999996 15.481 13.864999999999995 15.032 11.737999999999996 C 15.008000000000001 11.622999999999996 14.875 11.533999999999995 14.756 11.533999999999995 Z" fill="#292f33" id="01"></path><path d="M 28.028 13.036 C 27.784 12.735999999999999 21.256999999999998 11.533999999999999 21.201999999999998 11.533999999999999 C 21.084 11.533999999999999 20.950999999999997 11.623 20.927 11.738999999999999 C 20.709 12.765999999999998 20.875 13.809999999999999 21.393 14.68 C 21.914 15.556 22.73 16.15 23.689 16.353 C 23.921 16.402 24.16 16.427000000000003 24.396 16.427000000000003 C 26.142 16.427000000000003 27.692 15.091000000000003 28.082 13.250000000000004 C 28.096 13.175000000000004 28.076 13.094000000000003 28.028000000000002 13.036000000000003 Z" fill="#292f33" id="02"></path><path d="M 15.364 26.122 L 13.849 23.826999999999998 C 15.003 23.064999999999998 16.455 22.645 17.938000000000002 22.645 C 19.428 22.645 20.833000000000002 23.047 22.000000000000004 23.807 L 20.498000000000005 26.112 C 19.073000000000004 25.183999999999997 16.777000000000005 25.188 15.364000000000004 26.122 Z" fill="#292f33" id="03"></path><path d="M 24.352 29.647 C 24.241 29.647 24.129 29.628999999999998 24.018 29.592 C 23.859 29.538999999999998 20.118000000000002 28.247999999999998 20.118000000000002 24.352999999999998 S 23.859 19.165999999999997 24.018 19.113999999999997 C 24.577 18.926999999999996 25.172 19.228999999999996 25.357 19.782999999999998 C 25.541999999999998 20.336 25.244 20.933999999999997 24.692999999999998 21.121 C 24.592999999999996 21.154999999999998 22.235 21.999 22.235 24.352999999999998 S 24.593 27.551 24.692999999999998 27.584999999999997 C 25.243999999999996 27.775999999999996 25.54 28.375999999999998 25.352999999999998 28.926999999999996 C 25.203 29.368999999999996 24.791999999999998 29.646999999999995 24.351999999999997 29.646999999999995 Z" fill="#3e721d" id="04"></path><path d="M 11.647 29.647 C 11.203 29.647 10.790000000000001 29.366999999999997 10.642 28.923 C 10.456999999999999 28.368 10.757 27.767999999999997 11.311 27.584 C 11.406 27.551 13.764 26.707 13.764 24.353 S 11.405999999999999 21.155 11.306 21.121000000000002 C 10.755999999999998 20.930000000000003 10.459999999999999 20.330000000000002 10.646999999999998 19.779000000000003 C 10.833999999999998 19.227000000000004 11.426999999999998 18.927000000000003 11.980999999999998 19.114000000000004 C 12.139999999999999 19.167000000000005 15.880999999999998 20.458000000000006 15.880999999999998 24.353000000000005 S 12.139999999999999 29.540000000000006 11.980999999999998 29.592000000000006 C 11.870999999999999 29.629000000000005 11.757999999999997 29.647000000000006 11.646999999999998 29.647000000000006 Z" fill="#3e721d" id="05"></path></svg>