<svg xmlns="http://www.w3.org/2000/svg" viewBox="0 0 36 36"><path d="M 36 18 C 36 27.941000000000003 27.941000000000003 36 18 36 C 8.06 36 0 27.941000000000003 0 18 C 0 8.06 8.06 0 18 0 C 27.941000000000003 0 36 8.06 36 18" fill="#da2f47" id="00"></path><path d="M 29 12 C 28.779 12 23.549 12.038 20.293 15.293 C 19.902 15.684 19.902 16.316 20.293 16.707 C 20.488 16.902 20.744 17 21 17 C 21.013 17 21.024 16.993 21.036 16.993 C 21.020000000000003 17.16 21 17.325999999999997 21 17.5 C 21 19.434 22.119 21 23.5 21 S 26 19.434 26 17.5 C 26 16.371 25.611 15.376999999999999 25.018 14.737 C 27.076 14.023 28.972 14 29.002000000000002 14 C 29.553 13.998 30.000000000000004 13.55 29.999000000000002 12.998 C 29.998 12.447 29.552000000000003 12 29.000000000000004 12 Z" fill="#292f33" id="01"></path><path d="M 15.706999999999999 15.293000000000001 C 12.452 12.038 7.221 12 7 12 C 6.448 12 6.001 12.447 6.001 12.998 C 6 13.549999999999999 6.447 13.998 6.9990000000000006 14 C 7.0280000000000005 14 8.924000000000001 14.023 10.982000000000001 14.737 C 10.389000000000001 15.377 10.000000000000002 16.371 10.000000000000002 17.5 C 10.000000000000002 19.434 11.119000000000002 21 12.500000000000002 21 S 15.000000000000002 19.434 15.000000000000002 17.5 C 15.000000000000002 17.326 14.981000000000002 17.16 14.963000000000001 16.993 C 14.976 16.993 14.988000000000001 17 15.000000000000002 17 C 15.256000000000002 17 15.512000000000002 16.902 15.707000000000003 16.707 C 16.098000000000003 16.316000000000003 16.098000000000003 15.684000000000001 15.707000000000003 15.293000000000001 Z" fill="#292f33" id="02"></path><path d="M 25.485 29.879 C 25.44 29.7 24.317 25.5 18 25.5 C 11.682 25.5 10.559999999999999 29.7 10.515 29.878999999999998 C 10.46 30.095999999999997 10.558 30.320999999999998 10.752 30.432999999999996 C 10.947000000000001 30.541999999999998 11.191 30.511999999999997 11.352 30.355999999999995 C 11.371 30.336999999999996 13.306000000000001 28.499999999999993 18 28.499999999999993 S 24.63 30.336999999999993 24.648 30.354999999999993 C 24.744 30.449999999999992 24.872 30.499999999999993 25 30.499999999999993 C 25.084 30.499999999999993 25.169 30.478999999999992 25.246 30.435999999999993 C 25.442 30.323999999999995 25.54 30.096999999999994 25.485 29.878999999999994 Z" fill="#292f33" id="03"></path><path d="M 29.739 33 H 6.261 C 5.017 33 4 31.983 4 30.739 V 25 C 4 23.756 5.0169999999999995 22.739 6.261 22.739 H 29.739 C 30.983 22.739 32 23.756 32 25 V 30.739 C 32 31.983 30.983 33 29.739 33 Z" fill="#292f33" id="04"></path><path d="M 26.375999999999998 25.141 C 26.095999999999997 25.141 25.705999999999996 25.369999999999997 25.705999999999996 25.743 C 25.705999999999996 26.090999999999998 25.876999999999995 26.302999999999997 26.239999999999995 26.671999999999997 L 26.290999999999993 26.723999999999997 L 26.353999999999992 26.690999999999995 C 26.850999999999992 26.430999999999994 27.10299999999999 26.137999999999995 27.10299999999999 25.821999999999996 C 27.103999999999992 25.353999999999996 26.72699999999999 25.140999999999995 26.37599999999999 25.140999999999995 Z M 25.705 27.851999999999997 C 25.276999999999997 28.138999999999996 24.840999999999998 28.516999999999996 24.840999999999998 29.142999999999997 C 24.840999999999998 29.798999999999996 25.267999999999997 30.221999999999998 25.929999999999996 30.221999999999998 C 26.481999999999996 30.221999999999998 26.838999999999995 29.979999999999997 27.204999999999995 29.615999999999996 L 27.275999999999996 29.546999999999997 L 25.775999999999996 27.804 L 25.704999999999995 27.851999999999997 Z M 29.151999999999997 31.325999999999997 C 28.964999999999996 31.325999999999997 28.848 31.272999999999996 28.720999999999997 31.129999999999995 L 27.996999999999996 30.339999999999996 L 27.924999999999997 30.405999999999995 C 27.223 31.050999999999995 26.616999999999997 31.324999999999996 25.900999999999996 31.324999999999996 C 24.791999999999994 31.324999999999996 23.671999999999997 30.692999999999994 23.671999999999997 29.280999999999995 C 23.671999999999997 28.173999999999996 24.538999999999998 27.511999999999997 25.055999999999997 27.215999999999994 L 25.173 27.148999999999994 L 25.078 27.050999999999995 C 24.653 26.605999999999995 24.479 26.237999999999996 24.479 25.781999999999996 C 24.479 24.705 25.462 24.214999999999996 26.375 24.214999999999996 C 27.139 24.214999999999996 28.215 24.667999999999996 28.215 25.672999999999995 C 28.215 26.623999999999995 27.332 27.173999999999996 27.062 27.319999999999993 L 26.947000000000003 27.381999999999994 L 28.108000000000004 28.722999999999995 L 28.552000000000003 28.186999999999994 C 28.799000000000003 27.889999999999993 28.943000000000005 27.764999999999993 29.198000000000004 27.764999999999993 C 29.403000000000002 27.764999999999993 29.622000000000003 27.948999999999995 29.622000000000003 28.287999999999993 C 29.622000000000003 28.541999999999994 29.370000000000005 28.872999999999994 29.123000000000005 29.162999999999993 L 28.826000000000004 29.497999999999994 L 29.532000000000004 30.335999999999995 C 29.663000000000004 30.491999999999994 29.717000000000002 30.574999999999996 29.717000000000002 30.763999999999996 C 29.718000000000004 31.058999999999997 29.448000000000004 31.325999999999997 29.152 31.325999999999997 Z M 21.073999999999998 24.918999999999997 C 21.073999999999998 24.519999999999996 21.368 24.272999999999996 21.758 24.272999999999996 C 22.139 24.272999999999996 22.442999999999998 24.529999999999998 22.442999999999998 24.918999999999997 V 28.578999999999997 C 22.442999999999998 28.968999999999998 22.139 29.224999999999998 21.758 29.224999999999998 C 21.368 29.224999999999998 21.073999999999998 28.977999999999998 21.073999999999998 28.578999999999997 V 24.918999999999997 Z M 21.017 30.528 C 21.017 30.119 21.349999999999998 29.785999999999998 21.758 29.785999999999998 C 22.166999999999998 29.785999999999998 22.5 30.118999999999996 22.5 30.528 C 22.5 30.936 22.167 31.269 21.758 31.269 C 21.349999999999998 31.27 21.017 30.936999999999998 21.017 30.528 Z M 18.531 29.738999999999997 C 18.531 29.433999999999997 18.349999999999998 29.168999999999997 18.035999999999998 29.168999999999997 S 17.540999999999997 29.434999999999995 17.540999999999997 29.738999999999997 C 17.540999999999997 30.042999999999996 17.721999999999998 30.299999999999997 18.035999999999998 30.299999999999997 S 18.531 30.042999999999996 18.531 29.738999999999997 Z M 16.573 29.738999999999997 C 16.573 28.912 17.191 28.198999999999998 18.037 28.198999999999998 S 19.500999999999998 28.912 19.500999999999998 29.738999999999997 C 19.500999999999998 30.564999999999998 18.883 31.269 18.037 31.269 C 17.189999999999998 31.27 16.573 30.564999999999998 16.573 29.738999999999997 Z M 17.495 24.519999999999996 C 17.619 24.282999999999998 17.714000000000002 24.215999999999998 17.933 24.215999999999998 C 18.228 24.215999999999998 18.494 24.452999999999996 18.494 24.747999999999998 C 18.494 24.823999999999998 18.494 24.891 18.418 25.032999999999998 L 15.224 31.011999999999997 C 15.081 31.211 15.024000000000001 31.324999999999996 14.796 31.324999999999996 C 14.549 31.324999999999996 14.254 31.087999999999997 14.254 30.802999999999997 C 14.254 30.659999999999997 14.311 30.528 14.349 30.450999999999997 L 17.495 24.519999999999996 Z M 15.185 25.811999999999998 C 15.185 25.508 15.004000000000001 25.241999999999997 14.691 25.241999999999997 C 14.377 25.241999999999997 14.196000000000002 25.508999999999997 14.196000000000002 25.811999999999998 C 14.196000000000002 26.116999999999997 14.377 26.374 14.691 26.374 C 15.004000000000001 26.374 15.185 26.116999999999997 15.185 25.811999999999998 Z M 13.227 25.811999999999998 C 13.227 24.985 13.845 24.272 14.691 24.272 S 16.155 24.985 16.155 25.811999999999998 S 15.537 27.342999999999996 14.691 27.342999999999996 C 13.844000000000001 27.343999999999998 13.227 26.639999999999997 13.227 25.811999999999998 Z M 8.611 28.311999999999998 H 9.514000000000001 L 9.666 27.229 H 8.763 L 8.611 28.311999999999998 Z M 7.841 27.229 H 7.023000000000001 C 6.7090000000000005 27.229 6.566000000000001 27 6.566000000000001 26.772 S 6.7090000000000005 26.316 7.023000000000001 26.316 H 7.973000000000001 L 8.182 24.785999999999998 C 8.229000000000001 24.444 8.372 24.33 8.657 24.33 C 8.885 24.33 9.095 24.480999999999998 9.095 24.709999999999997 C 9.095 24.852999999999998 9.095 24.785999999999998 9.076 24.938999999999997 L 8.886000000000001 26.316999999999997 H 9.799000000000001 L 10.008000000000001 24.786999999999995 C 10.055000000000001 24.444999999999997 10.198 24.330999999999996 10.483 24.330999999999996 C 10.711 24.330999999999996 10.921000000000001 24.481999999999996 10.921000000000001 24.710999999999995 C 10.921000000000001 24.853999999999996 10.921000000000001 24.786999999999995 10.902000000000001 24.939999999999994 L 10.711 26.317999999999994 H 11.529 C 11.843 26.317999999999994 11.985 26.546999999999993 11.985 26.773999999999994 C 11.985 27.001999999999995 11.841999999999999 27.230999999999995 11.529 27.230999999999995 H 10.578 L 10.426 28.313999999999993 H 11.244 C 11.558 28.313999999999993 11.7 28.542999999999992 11.7 28.770999999999994 S 11.556999999999999 29.226999999999993 11.244 29.226999999999993 H 10.293 L 10.084 30.756999999999994 C 10.036 31.099999999999994 9.892999999999999 31.212999999999994 9.608 31.212999999999994 C 9.38 31.212999999999994 9.17 31.061999999999994 9.17 30.832999999999995 C 9.17 30.689999999999994 9.17 30.756999999999994 9.189 30.603999999999996 L 9.38 29.225999999999996 H 8.468 L 8.259 30.755999999999997 C 8.211 31.098999999999997 8.069 31.211999999999996 7.783 31.211999999999996 C 7.555000000000001 31.211999999999996 7.345000000000001 31.060999999999996 7.345000000000001 30.831999999999997 C 7.345000000000001 30.688999999999997 7.345000000000001 30.755999999999997 7.364000000000001 30.602999999999998 L 7.554000000000001 29.224999999999998 H 6.738000000000001 C 6.425000000000002 29.224999999999998 6.282000000000001 28.996 6.282000000000001 28.769 C 6.282000000000001 28.54 6.425000000000001 28.311999999999998 6.738000000000001 28.311999999999998 H 7.689000000000001 L 7.841000000000001 27.229 Z" fill="#ffffff" id="05"></path></svg>