<svg xmlns="http://www.w3.org/2000/svg" viewBox="0 0 36 36"><path d="M 36 18 C 36 27.941000000000003 27.941000000000003 36 18 36 S 0 27.941 0 18 S 8.059 0 18 0 S 36 8.059 36 18" fill="#ffcc4d" id="00"></path><path d=" M 6 15 C 5.603 15 5.228 14.762 5.071 14.371 C 4.866 13.858 5.114999999999999 13.276 5.628 13.071 C 10.24 11.227 12.151 8.469 12.17 8.442 C 12.478 7.986 13.099 7.865 13.557 8.172 C 14.014000000000001 8.48 14.138 9.097000000000001 13.832 9.555 C 13.743 9.687999999999999 11.600000000000001 12.838 6.372000000000001 14.928999999999998 C 6.25 14.977 6.124 15 6 15 Z" fill="#664500" id="01"></path><path d=" M 30 15 C 29.876 15 29.75 14.977 29.629 14.928 C 24.400000000000002 12.837 22.257 9.687000000000001 22.168 9.554000000000002 C 21.861 9.094000000000001 21.985 8.473000000000003 22.445 8.167000000000002 C 22.904 7.8610000000000015 23.522 7.983000000000001 23.830000000000002 8.441000000000003 C 23.849 8.468000000000002 25.76 11.226000000000003 30.371000000000002 13.070000000000002 C 30.884000000000004 13.276000000000002 31.134000000000004 13.857000000000003 30.929000000000002 14.370000000000003 C 30.772000000000002 14.762000000000002 30.396 15.000000000000004 30.000000000000004 15.000000000000004 Z" fill="#664500" id="02"></path><path d="M 22 27 C 22 29.762999999999998 20.209 30 18 30 C 15.79 30 14 29.763 14 27 C 14 24.239 15.79 21 18 21 C 20.209 21 22 24.239 22 27 Z" fill="#664500" id="03"></path><path d=" M 8 35 L 12 34.954 V 16 H 8 V 35 Z" fill="#5dadec" id="04"></path><path d="M 24 16 H 28 V 35 L 24 34.954 V 16 Z" fill="#5dadec" id="05"></path><path d=" M 28.999000000000002 18 C 28.849000000000004 18 28.696 17.966 28.553 17.895 C 25.04 16.139 21.483 17.877 21.448 17.895 C 20.954 18.143 20.354 17.942 20.106 17.448 C 19.859 16.954 20.059 16.353 20.553 16.106 C 20.735 16.016000000000002 25.054000000000002 13.910000000000002 29.448 16.106 C 29.942 16.353 30.142 16.954 29.895 17.448 C 29.719 17.798000000000002 29.366 18 28.999 18 Z" fill="#664500" id="06"></path><path d="M 14.999 18 C 14.849 18 14.696 17.966 14.553 17.895 C 11.041 16.139 7.4830000000000005 17.877 7.448 17.895 C 6.953 18.144 6.353000000000001 17.941 6.106 17.448 C 5.859 16.954 6.059 16.353 6.553 16.106 C 6.735 16.016000000000002 11.051 13.909000000000002 15.448 16.106 C 15.942 16.353 16.142 16.954 15.895 17.448 C 15.719 17.798000000000002 15.366 18 14.998999999999999 18 Z" fill="#664500" id="07"></path><ellipse fill="#5DADEC" cx="18" cy="34" rx="18" ry="2" id="08"></ellipse><ellipse fill="#E75A70" cx="18" cy="27" rx="3" ry="2" id="09"></ellipse></svg>