<svg xmlns="http://www.w3.org/2000/svg" viewBox="0 0 36 36"><circle fill="#4289C1" cx="29" cy="3" r="2" id="00"></circle><circle fill="#4289C1" cx="33" cy="8" r="3" id="01"></circle><circle fill="#4289C1" cx="33" cy="4" r="3" id="02"></circle><circle fill="#4289C1" cx="7" cy="3" r="2" id="03"></circle><circle fill="#4289C1" cx="3" cy="8" r="3" id="04"></circle><circle fill="#4289C1" cx="3" cy="4" r="3" id="05"></circle><path d="M 36 18 C 36 27.941000000000003 27.941000000000003 36 18 36 S 0 27.941 0 18 S 8.059 0 18 0 S 36 8.059 36 18" fill="#fee7b8" id="06"></path><circle fill="#4289C1" cx="30.5" cy="4.5" r="2.5" id="07"></circle><circle fill="#4289C1" cx="32" cy="7" r="2" id="08"></circle><circle fill="#4289C1" cx="5.5" cy="4.5" r="2.5" id="09"></circle><circle fill="#4289C1" cx="4" cy="7" r="2" id="10"></circle><circle fill="#FF7892" cx="6.93" cy="21" r="4" id="11"></circle><circle fill="#FF7892" cx="28.93" cy="21" r="4" id="12"></circle><path d="M 27.335 23.629 C 27.157 23.468 26.891000000000002 23.458000000000002 26.7 23.6 C 26.660999999999998 23.629 22.778 26.5 18 26.5 C 13.234 26.5 9.338 23.629 9.3 23.6 C 9.109 23.458000000000002 8.843 23.470000000000002 8.665000000000001 23.629 C 8.488000000000001 23.789 8.448 24.053 8.571000000000002 24.257 C 8.7 24.472 11.788 31 18 31 S 27.301000000000002 24.472 27.429000000000002 24.256999999999998 C 27.552000000000003 24.052 27.513 23.788999999999998 27.335 23.628999999999998 Z" fill="#da2f47" id="13"></path><path d="M 27.335 23.629 C 27.157 23.468 26.891000000000002 23.458000000000002 26.7 23.6 C 26.660999999999998 23.629 22.778 26.5 18 26.5 C 13.234 26.5 9.338 23.629 9.3 23.6 C 9.109 23.458000000000002 8.843 23.470000000000002 8.665000000000001 23.629 C 8.488000000000001 23.789 8.448 24.053 8.571000000000002 24.257 C 8.7 24.472 11.788 31 18 31 S 27.301000000000002 24.472 27.429000000000002 24.256999999999998 C 27.552000000000003 24.052 27.513 23.788999999999998 27.335 23.628999999999998 Z" fill="none" id="14"></path><ellipse fill="#664500" cx="11.5" cy="11.5" rx="2.5" ry="3.5" id="15"></ellipse><ellipse fill="#664500" cx="25.5" cy="11.5" rx="2.5" ry="3.5" id="16"></ellipse><circle fill="#BB1A34" cx="18.5" cy="19.5" r="3.5" id="17"></circle></svg>