<svg xmlns="http://www.w3.org/2000/svg" viewBox="0 0 36 36"><circle fill="#FFCC4D" cx="18" cy="18" r="18" id="00"></circle><path d=" M 30.987000000000002 13.393 C 31.115000000000002 13.930000000000001 30.783 14.47 30.246000000000002 14.598 C 29.71 14.726 29.172 14.396 29.042 13.861 C 29.004 13.71 28.131 10.409 24.101000000000003 8.66 C 23.596000000000004 8.44 23.362000000000002 7.852 23.582000000000004 7.345000000000001 C 23.802000000000003 6.838000000000001 24.391000000000005 6.606000000000001 24.897000000000006 6.8260000000000005 C 29.886000000000006 8.991 30.944000000000006 13.214 30.987000000000005 13.393 Z" fill="#65471b" id="01"></path><path d="M 6.001 11 C 5.449 11 5.001 10.552 5.001 10 C 5.001 9.449 5.446000000000001 9.002 5.997 9 C 6.153 8.998 9.565999999999999 8.914 12.202 5.4 C 12.533 4.96 13.159 4.868 13.602 5.2 C 14.044 5.531000000000001 14.133000000000001 6.158 13.802 6.6 C 10.539 10.95 6.185 11 6.0009999999999994 11 Z" fill="#65471b" id="02"></path><path d="M 23.186 29.526 C 22.193 29.526 21.234 29.071 20.398 28.187 C 17.582 25.202 16.829 25.854 15.581 26.936 C 14.799999999999999 27.615 13.827 28.459 12.376 28.459 C 10.024999999999999 28.459 8.407 26.157 8.34 26.059 C 8.026 25.605 8.14 24.982 8.594 24.668 C 9.045 24.355999999999998 9.668 24.468 9.984 24.919 C 10.285 25.348 11.301 26.459 12.376999999999999 26.459 C 13.081 26.459 13.633 25.98 14.271999999999998 25.426 C 16.087999999999997 23.848 18.035999999999998 22.770999999999997 21.854999999999997 26.814 C 22.677999999999997 27.687 23.306999999999995 27.588 23.762999999999998 27.406 C 25.421999999999997 26.741 26.967999999999996 23.708 26.959999999999997 22.256 C 26.956999999999997 21.704 27.401999999999997 21.254 27.953999999999997 21.251 H 27.959999999999997 C 28.509999999999998 21.251 28.956999999999997 21.695 28.959999999999997 22.246000000000002 C 28.971999999999998 24.349000000000004 27.105999999999998 28.222 24.505999999999997 29.263 C 24.062999999999995 29.438000000000002 23.620999999999995 29.525000000000002 23.185999999999996 29.526000000000003 Z" fill="#664500" id="03"></path><path d=" M 26.231 14.62 C 26.704 16.761 25.556 19.458 24.027 19.796 S 20.747 18.076999999999998 20.274 15.936 C 19.801000000000002 13.796 20.693 11.965 22.222 11.626999999999999 S 25.758000000000003 12.479999999999999 26.231 14.62 Z" fill="#65471b" id="04"></path><path d="M 14.815 15.375 C 14.231 17.489 13.173 18.458 11.663 18.041 C 10.154 17.624 9.32 16.132 9.903 14.018 C 10.486 11.906 12.078 10.655000000000001 13.587 11.072000000000001 C 15.097999999999999 11.489 15.399 13.262 14.815 15.375 Z" fill="#65471b" id="05"></path></svg>