<svg xmlns="http://www.w3.org/2000/svg" viewBox="0 0 36 36"><circle fill="#EA596E" cx="18" cy="18" r="18" id="00"></circle><path d=" M 7 12 C 6.448 12 6 11.552 6 11 S 6.448 10 7 10 C 12.083 10 12.996 6.88 13.033000000000001 6.747 C 13.178 6.218999999999999 13.725000000000001 5.899 14.252 6.038 C 14.782 6.1770000000000005 15.103000000000002 6.711 14.97 7.243 C 14.921 7.437 13.704 12 7 12 Z" fill="#292f33" id="01"></path><path d=" M 29 12 C 23.445999999999998 12 21.198 7.633 21.105 7.447 C 20.858 6.953 21.058 6.352 21.552 6.105 C 22.044999999999998 5.8580000000000005 22.644 6.057 22.892 6.548 C 22.967 6.694 24.713 10 29 10 C 29.553 10 30 10.448 30 11 S 29.553 12 29 12 Z" fill="#292f33" id="02"></path><path d="M 26.125 29.261 C 26.097 29.261 26.068 29.258 26.041 29.250999999999998 C 17.617 27.308999999999997 10.045 29.229 9.969000000000001 29.249 C 9.858 29.276999999999997 9.738000000000001 29.253999999999998 9.645000000000001 29.183 C 9.554000000000002 29.111 9.500000000000002 29.002 9.500000000000002 28.886 C 9.500000000000002 25.708 13.213000000000001 22.014 18 22.014 S 26.5 25.708 26.5 28.886 C 26.5 29 26.448 29.108999999999998 26.358 29.18 C 26.291 29.232 26.209 29.261 26.125 29.261 Z" fill="#292f33" id="03"></path><ellipse fill="#292F33" cx="12" cy="16.5" rx="2.5" ry="3.5" id="04"></ellipse><ellipse fill="#292F33" cx="24" cy="16.5" rx="2.5" ry="3.5" id="05"></ellipse><path d="M 18.629 23.079 V 23.906 L 17.538 23.907 V 23.07 C 15.261 23.197 13.347000000000001 24.232 12.083 25.586 L 12.091 26.046999999999997 C 12.177 28.978999999999996 14.171 31.848999999999997 18.083 31.848999999999997 C 21.982 31.848999999999997 23.974999999999998 28.997999999999998 24.073999999999998 26.075999999999997 L 24.083 25.791999999999998 C 22.854 24.377 20.938 23.255 18.628999999999998 23.078999999999997 Z" fill="#f4abba" id="06"></path><path d="M 18 23.049 C 17.843 23.049 17.692 23.063 17.538 23.070999999999998 V 27.517999999999997 C 17.538 27.818999999999996 17.782 28.063 18.083000000000002 28.063 S 18.628000000000004 27.819 18.628000000000004 27.517999999999997 V 23.08 C 18.421000000000003 23.063 18.214000000000002 23.049 18.000000000000004 23.049 Z" fill="#ea596e" id="07"></path><path d=" M 8.573 8.438 C 8.573 10.751000000000001 6.698 12.626000000000001 4.385000000000001 12.626000000000001 C 2.0720000000000005 12.626000000000001 0.19700000000000095 10.751000000000001 0.19700000000000095 8.438000000000002 S 3.547 0.063 4.385 0.063 S 8.573 6.125 8.573 8.438 Z" fill="#5dadec" id="08"></path><path d="M 35.906 12.062 C 35.906 14.876 33.626 17.156 30.811999999999998 17.156 C 27.997999999999998 17.156 25.717999999999996 14.876 25.717999999999996 12.061999999999998 S 29.792999999999996 1.873999999999997 30.811999999999998 1.873999999999997 S 35.906 9.248999999999997 35.906 12.061999999999998 Z" fill="#5dadec" id="09"></path></svg>