<svg xmlns="http://www.w3.org/2000/svg" viewBox="0 0 36 36"><path d="M 36 11 C 36 9.896 35.104 9 34 9 S 32 9.896 32 11 C 32 11 31.989 14.285 29 14.894 V 12 C 29 5.925 24.075 1 18 1 S 7 5.925 7 12 V 15.237 C 1.778 16.806 0 23.231 0 27 C 0 28.104 0.896 29 2 29 S 4 28.104 4 27 C 4 27 4.002 23.46 7.336 23.042 C 7.838 27.883 8.954 33 11 33 H 12 C 16 33 15 35 19 35 S 22 33 25 33 S 27.395 35 31 35 C 32.657 35 34 33.657 34 32 C 34 31.325 31.726 27.006 30.245 22.732 C 35.981 21.348 36 14.58 36 11 Z" fill="#e1e8ed" id="00"></path><circle fill="#292F33" cx="13" cy="12" r="2" id="01"></circle><circle fill="#292F33" cx="23" cy="12" r="4" id="02"></circle><circle fill="#9AAAB4" cx="23" cy="13" r="2" id="03"></circle><path d="M 22.192 19.491 C 24.842 21.478 25.783 24.701999999999998 24.292 26.689999999999998 C 22.801000000000002 28.677999999999997 19.443 28.677999999999997 16.792 26.689999999999998 C 14.142000000000001 24.702999999999996 13.201 21.479 14.692000000000002 19.491 C 16.184 17.502 19.541000000000004 17.503 22.192 19.491 Z" fill="#292f33" id="04"></path></svg>