<svg xmlns="http://www.w3.org/2000/svg" viewBox="0 0 36 36"><circle fill="#FFCC4D" cx="18" cy="18" r="18" id="00"></circle><path d=" M 27.335 20.691 C 27.157 20.529999999999998 26.891000000000002 20.52 26.7 20.662 C 26.660999999999998 20.691 22.778 23.561999999999998 18 23.561999999999998 C 13.234 23.561999999999998 9.338 20.691 9.3 20.662 C 9.109 20.52 8.843 20.532 8.665000000000001 20.691 C 8.488000000000001 20.851 8.448 21.115 8.571000000000002 21.319 C 8.700000000000001 21.534 11.788000000000002 26.561999999999998 18 26.561999999999998 S 27.301000000000002 21.534 27.429000000000002 21.318999999999996 C 27.552000000000003 21.113999999999997 27.513 20.851999999999997 27.335 20.690999999999995 Z" fill="#664500" id="01"></path><path d=" M 26 16.958 C 25.581 16.958 25.191 16.692999999999998 25.052 16.273999999999997 C 24.849 15.674999999999997 24.033 13.957999999999998 23 13.957999999999998 C 21.938 13.957999999999998 21.111 15.784999999999998 20.948 16.273999999999997 C 20.773 16.796999999999997 20.212 17.081999999999997 19.683 16.906 C 19.16 16.732 18.876 16.165 19.051 15.640999999999998 C 19.176 15.263999999999998 20.354999999999997 11.956999999999997 22.999 11.956999999999997 S 26.822 15.263999999999998 26.947 15.640999999999998 C 27.122 16.165 26.839 16.732 26.314999999999998 16.906 C 26.211 16.942 26.104999999999997 16.958 25.999999999999996 16.958 Z" fill="#664500" id="02"></path><path d="M 16 16.958 C 15.581 16.958 15.191 16.692999999999998 15.051 16.273999999999997 C 14.848 15.674999999999997 14.033 13.957999999999998 13 13.957999999999998 C 11.938 13.957999999999998 11.112 15.784999999999998 10.949 16.273999999999997 C 10.774 16.796999999999997 10.211 17.081999999999997 9.684 16.906 C 9.16 16.732 8.876999999999999 16.165 9.052 15.640999999999998 C 9.177 15.263999999999998 10.356 11.956999999999997 13.001 11.956999999999997 S 16.823999999999998 15.263999999999998 16.95 15.640999999999998 C 17.125 16.165 16.842 16.732 16.317999999999998 16.906 C 16.211999999999996 16.942 16.104999999999997 16.958 15.999999999999998 16.958 Z" fill="#664500" id="03"></path><path d=" M 34.301 25.642 C 34.019000000000005 24.692 33.149 23.995 32.107 23.995 C 31.336 23.995 30.656 24.375 30.239 24.957 C 29.822 24.375 29.142 23.995 28.371000000000002 23.995 C 27.101000000000003 23.995 26.072000000000003 25.024 26.072000000000003 26.294 C 26.072000000000003 26.474 26.095000000000002 26.648 26.134000000000004 26.816 C 26.441000000000003 28.721 28.482000000000003 30.712 30.043000000000003 31.377 C 31.819000000000003 29.776999999999997 33.274 27.83 34.301 25.642 Z" fill="#ffac33" id="04"></path><path d=" M 13.742999999999999 29.078 C 13.799999999999999 28.836 13.832999999999998 28.584 13.832999999999998 28.323999999999998 C 13.832999999999998 26.491 12.346999999999998 25.005 10.514 25.005 C 9.401 25.005 8.42 25.554 7.816999999999999 26.394 C 7.214999999999999 25.555 6.232999999999999 25.005 5.119999999999999 25.005 C 3.878999999999999 25.005 2.8089999999999993 25.694 2.2399999999999993 26.703 C 4.063999999999999 29.997999999999998 6.89 32.66 10.308 34.277 C 11.945 32.926 13.439 30.970000000000002 13.743 29.078000000000003 Z" fill="#ffac33" id="05"></path><path d="M 21.229 3.947 C 21.229 4.187 21.259 4.4190000000000005 21.311 4.643 C 21.736 7.286 24.675 10.074 26.781 10.84 C 28.445999999999998 10.235 30.627 8.364 31.679 6.301 C 29.59 3.861 26.86 1.987 23.75 0.939 C 22.318 1.196 21.229 2.441 21.229 3.947 Z" fill="#ffac33" id="06"></path><path d=" M 35.948 26.127000000000002 C 35.948 24.857000000000003 34.919 23.828000000000003 33.649 23.828000000000003 C 32.878 23.828000000000003 32.198 24.208000000000002 31.781000000000002 24.790000000000003 C 31.364 24.208000000000002 30.684 23.828000000000003 29.913000000000004 23.828000000000003 C 28.643000000000004 23.828000000000003 27.614000000000004 24.857000000000003 27.614000000000004 26.127000000000002 C 27.614000000000004 26.307000000000002 27.637000000000004 26.481 27.676000000000005 26.649 C 27.995000000000005 28.632 30.200000000000006 30.725 31.781000000000006 31.299 C 33.361000000000004 30.724999999999998 35.56700000000001 28.631999999999998 35.885000000000005 26.649 C 35.925000000000004 26.481 35.94800000000001 26.307000000000002 35.94800000000001 26.127000000000002 Z" fill="#dd2e44" id="07"></path><path d=" M 12.208 28.408 C 12.208 26.575000000000003 10.722 25.089000000000002 8.889 25.089000000000002 C 7.776 25.089000000000002 6.795 25.638 6.191999999999999 26.478 C 5.589999999999999 25.638 4.607999999999999 25.089000000000002 3.494999999999999 25.089000000000002 C 1.6619999999999993 25.089000000000002 0.17599999999999927 26.575000000000003 0.17599999999999927 28.408 C 0.17599999999999927 28.668000000000003 0.20899999999999927 28.919 0.26499999999999924 29.162000000000003 C 0.7259999999999993 32.025000000000006 3.9089999999999994 35.04600000000001 6.190999999999999 35.876000000000005 C 8.472999999999999 35.047000000000004 11.655999999999999 32.026 12.116999999999999 29.163000000000004 C 12.174999999999999 28.919000000000004 12.207999999999998 28.667000000000005 12.207999999999998 28.408000000000005 Z" fill="#dd2e44" id="08"></path><path d="M 33.625 3.269 C 33.625 1.5770000000000002 32.253 0.20599999999999996 30.562 0.20599999999999996 C 29.535 0.20599999999999996 28.629 0.713 28.073 1.488 C 27.517 0.713 26.611 0.206 25.584 0.206 C 23.892 0.206 22.521 1.577 22.521 3.269 C 22.521 3.5090000000000003 22.551000000000002 3.741 22.603 3.965 C 23.029 6.608 25.967000000000002 9.396 28.073 10.161999999999999 C 30.179000000000002 9.395999999999999 33.117 6.607999999999999 33.542 3.9659999999999993 C 33.595 3.740999999999999 33.625 3.5089999999999995 33.625 3.2689999999999992 Z" fill="#dd2e44" id="09"></path></svg>