<svg xmlns="http://www.w3.org/2000/svg" viewBox="0 0 36 36"><path d="M 18.985 35 H 17.015 C 10.515 35 4.212 30.018 4.212 23.044 C 4.212 19.059 5.689 17.066000000000003 5.689 17.066000000000003 S 5.197 15.073000000000002 5.197 13.081000000000003 C 5.197 7.103 11.5 2.121 18 2.121 C 24.5 2.121 30.803 8.099 30.803 13.081000000000001 C 30.803 15.074000000000002 30.311 17.066000000000003 30.311 17.066000000000003 S 31.788 19.059 31.788 23.044000000000004 C 31.788 30.018 25.485 35 18.985 35 Z" fill="#bf6952" id="00"></path><path d="M 29.667 15.379 C 29.667 11.572 26.580000000000002 8.485 22.773000000000003 8.485 C 20.919000000000004 8.485 19.239000000000004 9.221 18.000000000000004 10.411 C 16.761000000000003 9.219999999999999 15.081000000000003 8.485 13.227000000000004 8.485 C 9.420000000000003 8.485 6.333000000000004 11.572 6.333000000000004 15.379 C 6.333000000000004 17.688 7.473000000000003 19.727 9.215000000000003 20.978 C 8.726000000000003 22.19 8.454000000000004 23.524 8.454000000000004 24.924000000000003 C 8.454000000000004 30.489000000000004 12.728000000000005 33.93900000000001 17.999000000000002 33.93900000000001 S 27.544000000000004 30.489000000000008 27.544000000000004 24.924000000000007 C 27.544000000000004 23.523000000000007 27.272000000000006 22.190000000000005 26.783000000000005 20.978000000000005 C 28.527000000000005 19.727000000000004 29.667000000000005 17.688000000000006 29.667000000000005 15.379000000000005 Z" fill="#d79e84" id="01"></path><ellipse fill="#292F33" cx="13" cy="17" rx="2" ry="3" id="02"></ellipse><ellipse fill="#292F33" cx="23" cy="17" rx="2" ry="3" id="03"></ellipse><path d="M 18 31.5 C 20.715 31.5 23.027 30.12 23.895 28.191 C 24.253999999999998 27.393 23.645 26.5 22.738 26.5 H 13.261999999999999 C 12.354999999999999 26.5 11.745999999999999 27.393 12.104999999999999 28.191 C 12.972999999999999 30.119999999999997 15.284999999999998 31.5 18 31.5 Z" fill="#642116" id="04"></path><ellipse fill="#642116" cx="16.5" cy="22" rx="1" ry="1.061" id="05"></ellipse><circle fill="#642116" cx="19.5" cy="22" r="1" id="06"></circle><path d="M 22.242 0.17 S 16.939 -0.8909999999999999 14.818000000000001 2.291 S 19.060000000000002 3.352 19.060000000000002 3.352 S 20.121 0.17 22.242 0.17 Z" fill="#bf6952" id="07"></path><path d="M 27 31.997 C 26.812 32.719 25.25 33.375 25.25 33.375 L 26.001 18.996000000000002 L 28 24 S 27.188 31.275 27 31.997 Z" fill="#9b3c07" id="08"></path><path d="M 9 31.997 C 9.125 32.656 10.781 33.406 10.781 33.406 L 10 18.996 L 8 24 S 8.875 31.337 9 31.997 Z" fill="#9b3c07" id="09"></path><path d="M 34 36 H 26 L 27.002 20.167 L 30.999 15.999000000000002 Z" fill="#bf6952" id="10"></path><path d="M 2 36 H 10 L 8.988 20.167 L 4.991 15.999000000000002 Z" fill="#bf6952" id="11"></path><path d="M 5.3919999999999995 15.053 S 5.191999999999999 12.577000000000002 4.194999999999999 11.511000000000001 C 2.8929999999999993 10.118 1.3249999999999993 11.197000000000001 1.4459999999999993 13.151000000000002 C 1.8859999999999992 20.237000000000002 3.4419999999999993 22.184 5.463999999999999 23.347 C 7.4849999999999985 24.511000000000003 10.252999999999998 24.293000000000003 13.181999999999999 21.475 S 17.34 16.921 17.689999999999998 15.678 C 18.04 14.434000000000001 16.733999999999998 13.424000000000001 15.619999999999997 14.057 C 14.617999999999997 14.626000000000001 13.109999999999998 16.365000000000002 13.109999999999998 16.365000000000002 S 15.056999999999999 13.669000000000002 15.332999999999998 12.627000000000002 C 15.714999999999998 11.186000000000002 14.011 10.326000000000002 13.085999999999999 11.120000000000003 C 12.173999999999998 11.903000000000002 10.293999999999999 14.276000000000003 10.293999999999999 14.276000000000003 S 11.899999999999999 11.812000000000003 12.047999999999998 10.625000000000004 C 12.193999999999999 9.453000000000003 10.808999999999997 8.417000000000003 9.584999999999997 9.439000000000004 S 6.395999999999997 13.410000000000004 5.391999999999998 15.053000000000004 Z" fill="#d79e84" id="12"></path><path d="M 30.608 15.053 S 30.808 12.577000000000002 31.805 11.511000000000001 C 33.107 10.118 34.675 11.197000000000001 34.554 13.151000000000002 C 34.114000000000004 20.237000000000002 32.558 22.184 30.536 23.347 C 28.515 24.511000000000003 25.747 24.293000000000003 22.818 21.475 S 18.66 16.921 18.310000000000002 15.678 C 17.96 14.434000000000001 19.266000000000002 13.424000000000001 20.380000000000003 14.057 C 21.382 14.626000000000001 22.89 16.365000000000002 22.89 16.365000000000002 S 20.943 13.669000000000002 20.667 12.627000000000002 C 20.285 11.186000000000002 21.989 10.326000000000002 22.914 11.120000000000003 C 23.826 11.903000000000002 25.706000000000003 14.276000000000003 25.706000000000003 14.276000000000003 S 24.1 11.812000000000003 23.952 10.625000000000004 C 23.806 9.453000000000003 25.191000000000003 8.417000000000003 26.415000000000003 9.439000000000004 C 27.638 10.462000000000003 29.604000000000003 13.410000000000004 30.608000000000004 15.053000000000004 Z" fill="#d79e84" id="13"></path><path d="M 19.66 14.362 C 19.463 14.362 19.269 14.428 19.101 14.56 C 18.8 14.796000000000001 18.683999999999997 15.163 18.79 15.543000000000001 C 19.145 16.803 20.575 18.626 23.163 21.115000000000002 C 25.637 23.493000000000002 28.165 24.132 30.286 22.914 C 31.944000000000003 21.959000000000003 33.601 20.416 34.054 13.120000000000001 C 34.111000000000004 12.199000000000002 33.734 11.613000000000001 33.334 11.441 C 32.979000000000006 11.285 32.563 11.433000000000002 32.169000000000004 11.853000000000002 C 31.452000000000005 12.621000000000002 31.158000000000005 14.453000000000001 31.106000000000005 15.094000000000001 C 31.088000000000005 15.31 30.934000000000005 15.490000000000002 30.723000000000006 15.540000000000001 C 30.513000000000005 15.591000000000001 30.294000000000008 15.498000000000001 30.181000000000004 15.314 C 29.218000000000004 13.739 27.274000000000004 10.81 26.093000000000004 9.824 C 25.573000000000004 9.39 25.146000000000004 9.517 24.938000000000002 9.632 C 24.597 9.818 24.400000000000002 10.192 24.447000000000003 10.564 C 24.557000000000002 11.444 25.695000000000004 13.345 26.125000000000004 14.004 C 26.271000000000004 14.228 26.215000000000003 14.526 25.998000000000005 14.683 C 25.783000000000005 14.839 25.480000000000004 14.798 25.314000000000004 14.588 C 25.295000000000005 14.565 23.453000000000003 12.242999999999999 22.587000000000003 11.501 C 22.274000000000004 11.231 21.822000000000003 11.299 21.537000000000003 11.477 C 21.367 11.584 20.989000000000004 11.897 21.149 12.5 C 21.356 13.281 22.767 15.345 23.294 16.073999999999998 C 23.45 16.290999999999997 23.409 16.592999999999996 23.199 16.758999999999997 C 22.990000000000002 16.923 22.686 16.897 22.511000000000003 16.694999999999997 C 22.108000000000004 16.228999999999996 20.893000000000004 14.924999999999997 20.133000000000003 14.493999999999996 C 19.980000000000004 14.404999999999996 19.819000000000003 14.361999999999997 19.660000000000004 14.361999999999997 Z M 28.082 24.512 C 26.252000000000002 24.512 24.308 23.603 22.471 21.836 C 19.676000000000002 19.148 18.244 17.29 17.829 15.813999999999998 C 17.612000000000002 15.042999999999997 17.863 14.259999999999998 18.485 13.772999999999998 C 19.076999999999998 13.308999999999997 19.847 13.232999999999997 20.521 13.565999999999997 C 20.364 13.257999999999997 20.243000000000002 12.977999999999998 20.184 12.755999999999997 C 19.958000000000002 11.904999999999998 20.274 11.089999999999996 21.007 10.629999999999997 C 21.733 10.173999999999998 22.630000000000003 10.217999999999996 23.240000000000002 10.741999999999997 C 23.324 10.814999999999998 23.416 10.898999999999997 23.512 10.992999999999997 C 23.486 10.885999999999997 23.466 10.783999999999997 23.454 10.687999999999997 C 23.357 9.911999999999997 23.761 9.134999999999998 24.458000000000002 8.753999999999998 C 25.185000000000002 8.357999999999997 26.035000000000004 8.472999999999997 26.733 9.055999999999997 C 27.853 9.991999999999997 29.415 12.266999999999998 30.323 13.666999999999998 C 30.51 12.832999999999998 30.846 11.802999999999997 31.438 11.168999999999997 C 32.119 10.439999999999998 32.974 10.196999999999997 33.73 10.521999999999997 C 34.608999999999995 10.900999999999996 35.128 11.944999999999997 35.050999999999995 13.180999999999997 C 34.614999999999995 20.211999999999996 33.09499999999999 22.449999999999996 30.782999999999994 23.781 C 29.935999999999993 24.270999999999997 29.022999999999993 24.512 28.081999999999994 24.512 Z" fill="#bf6952" id="14"></path><path d="M 2.954 11.381 C 2.854 11.381 2.758 11.401 2.664 11.441 C 2.265 11.613000000000001 1.8880000000000001 12.199000000000002 1.9450000000000003 13.120000000000001 C 2.398 20.416 4.055 21.959000000000003 5.713 22.914 C 7.834 24.135 10.361 23.495 12.835 21.115000000000002 C 15.423000000000002 18.627000000000002 16.853 16.804000000000002 17.208000000000002 15.543000000000003 C 17.315 15.163000000000002 17.199 14.795000000000003 16.898000000000003 14.560000000000002 C 16.595000000000002 14.322000000000003 16.209000000000003 14.296000000000003 15.866000000000003 14.492000000000003 C 15.105000000000004 14.925000000000002 13.891000000000004 16.227000000000004 13.487000000000004 16.693 C 13.311000000000003 16.895000000000003 13.007000000000003 16.922 12.799000000000003 16.757 C 12.590000000000003 16.591 12.548000000000004 16.289 12.704000000000002 16.072000000000003 C 13.230000000000002 15.343000000000004 14.642000000000003 13.279000000000003 14.850000000000001 12.498000000000003 C 15.010000000000002 11.895000000000003 14.631000000000002 11.582000000000003 14.461000000000002 11.475000000000003 C 14.177000000000001 11.296000000000003 13.727000000000002 11.227000000000004 13.412000000000003 11.499000000000002 C 12.547000000000002 12.242000000000003 10.705000000000002 14.563000000000002 10.687000000000003 14.586000000000002 C 10.521000000000003 14.794000000000002 10.220000000000002 14.837000000000002 10.003000000000004 14.681000000000003 C 9.786000000000003 14.525000000000002 9.730000000000004 14.226000000000003 9.876000000000003 14.002000000000002 C 10.305000000000003 13.343000000000002 11.444000000000003 11.441000000000003 11.553000000000003 10.562000000000003 C 11.599000000000002 10.190000000000003 11.402000000000003 9.816000000000003 11.062000000000003 9.630000000000003 C 10.854000000000003 9.517000000000003 10.426000000000004 9.389000000000003 9.908000000000003 9.822000000000003 C 8.878000000000004 10.682000000000002 7.067000000000003 13.271000000000003 5.819000000000003 15.312000000000003 C 5.706000000000002 15.497000000000003 5.490000000000003 15.590000000000003 5.277000000000003 15.538000000000004 C 5.067000000000003 15.488000000000003 4.912000000000003 15.308000000000003 4.894000000000003 15.092000000000004 C 4.842000000000003 14.451000000000004 4.548000000000003 12.619000000000003 3.831000000000003 11.851000000000004 C 3.5390000000000033 11.542000000000005 3.237000000000003 11.381000000000004 2.9540000000000033 11.381000000000004 Z M 7.918 24.512 C 6.976 24.512 6.064 24.271 5.214 23.782 C 2.9030000000000005 22.451 1.3830000000000005 20.214 0.9470000000000001 13.182 C 0.8700000000000001 11.946 1.389 10.902000000000001 2.269 10.523 C 3.019 10.199 3.878 10.44 4.5600000000000005 11.17 C 5.152 11.803 5.489000000000001 12.833 5.676 13.668 C 6.5840000000000005 12.268999999999998 8.144 9.994 9.266 9.056999999999999 C 9.965 8.471999999999998 10.815 8.357999999999999 11.54 8.754999999999999 C 12.238 9.135 12.642 9.912999999999998 12.543999999999999 10.688999999999998 C 12.531999999999998 10.784999999999998 12.511999999999999 10.886999999999999 12.485999999999999 10.993999999999998 C 12.582999999999998 10.899999999999999 12.674 10.814999999999998 12.758999999999999 10.742999999999999 C 13.366999999999999 10.220999999999998 14.265999999999998 10.175999999999998 14.991 10.630999999999998 C 15.725 11.091 16.041 11.905999999999999 15.815999999999999 12.756999999999998 C 15.757 12.978999999999997 15.636 13.258999999999999 15.479999999999999 13.567999999999998 C 16.151999999999997 13.235999999999997 16.923 13.310999999999998 17.514 13.774999999999999 C 18.137 14.261999999999999 18.387999999999998 15.044999999999998 18.171 15.815999999999999 C 17.755 17.294 16.323 19.151 13.527999999999999 21.838 C 11.691999999999998 23.603 9.748 24.512 7.917999999999998 24.512 Z" fill="#bf6952" id="16"></path><path d="M 5.817999999999998 15.314 C 7.065999999999998 13.272 8.876999999999999 10.684000000000001 9.906999999999998 9.824 C 9.975999999999999 9.766 10.037999999999998 9.741999999999999 10.102999999999998 9.703 C 10.401999999999997 9.302999999999999 10.833999999999998 8.943999999999999 11.461999999999998 8.727 C 10.753999999999998 8.378 9.939999999999998 8.492 9.264999999999997 9.057 C 8.142999999999997 9.994 6.581999999999997 12.269 5.674999999999997 13.668 C 5.568999999999997 13.196 5.407999999999997 12.667 5.186999999999998 12.177999999999999 C 5.1839999999999975 13.318999999999999 5.243999999999998 14.505999999999998 5.451999999999997 15.527 C 5.599999999999997 15.507 5.737999999999997 15.444999999999999 5.817999999999997 15.314 Z" fill="#9b3c07" id="18"></path><path d="M 25.988 9.758 C 26.024 9.783999999999999 26.057 9.793 26.094 9.824 C 27.275000000000002 10.81 29.219 13.739 30.182000000000002 15.314 C 30.272000000000002 15.46 30.431 15.524000000000001 30.596000000000004 15.529 C 30.812000000000005 14.477 30.869000000000003 13.246 30.862000000000002 12.074 C 30.615000000000002 12.592 30.437 13.161 30.324 13.667 C 29.416 12.267 27.854000000000003 9.992 26.734 9.056000000000001 C 26.068 8.499 25.266000000000002 8.384 24.563000000000002 8.716000000000001 C 25.235000000000003 8.942000000000002 25.683000000000003 9.331000000000001 25.988000000000003 9.758000000000001 Z" fill="#9b3c07" id="19"></path></svg>