<svg xmlns="http://www.w3.org/2000/svg" viewBox="0 0 36 36"><circle fill="#FFCC4D" cx="17" cy="19" r="17" id="00"></circle><ellipse fill="#664500" cx="17.999" cy="26" rx="2" ry="2.5" id="01"></ellipse><path d=" M 20.084000000000003 17.641 C 19.794000000000004 17.641 19.508000000000003 17.516 19.310000000000002 17.275 C 18.96 16.848 19.022000000000002 16.217 19.450000000000003 15.866999999999999 C 22.626000000000005 13.262999999999998 26.212000000000003 14.305 27.665000000000003 15.220999999999998 C 28.132 15.514999999999999 28.272000000000002 16.133 27.977000000000004 16.599999999999998 C 27.684000000000005 17.064999999999998 27.069000000000003 17.206999999999997 26.601000000000003 16.915 C 26.463 16.831 23.549000000000003 15.091999999999999 20.717000000000002 17.413999999999998 C 20.531000000000002 17.566999999999997 20.307000000000002 17.641 20.084000000000003 17.641 Z" fill="#664500" id="02"></path><path d="M 8.111 21.383 C 7.929 21.383 7.744000000000001 21.333 7.579000000000001 21.229 C 7.112000000000001 20.935 6.972 20.317999999999998 7.266000000000001 19.849999999999998 C 8.182 18.397 10.967 15.911999999999997 14.956000000000001 16.887999999999998 C 15.492 17.019 15.820000000000002 17.561 15.689000000000002 18.096999999999998 C 15.557000000000002 18.633 15.013000000000002 18.958999999999996 14.480000000000002 18.83 C 10.876000000000001 17.947999999999997 8.978000000000002 20.886 8.959000000000003 20.915999999999997 C 8.768000000000002 21.217999999999996 8.443000000000003 21.382999999999996 8.111000000000002 21.382999999999996 Z" fill="#664500" id="03"></path><path d=" M 24.383000000000003 28.212 C 24.241000000000003 28.212 24.098000000000003 28.172 23.971000000000004 28.088 C 22.804000000000002 27.318 22.151000000000003 25.971 22.179000000000002 24.393 C 22.208000000000002 22.758 22.988000000000003 21.240000000000002 24.163000000000004 20.524 C 24.516000000000005 20.308 24.977000000000004 20.42 25.193000000000005 20.775000000000002 C 25.409000000000006 21.129 25.297000000000004 21.589000000000002 24.942000000000004 21.805000000000003 C 24.207000000000004 22.253000000000004 23.698000000000004 23.304000000000002 23.678000000000004 24.419000000000004 C 23.658000000000005 25.474000000000004 24.067000000000004 26.355000000000004 24.796000000000003 26.836000000000006 C 25.142000000000003 27.064000000000007 25.237000000000002 27.529000000000007 25.009000000000004 27.875000000000007 C 24.865000000000006 28.09400000000001 24.627000000000002 28.212000000000007 24.383000000000003 28.212000000000007 Z" fill="#e2a62d" id="04"></path><path d="M 13.346 31.273 C 13.278 31.273 13.209 31.264 13.141 31.245 C 12.743 31.132 12.511 30.718 12.624 30.319000000000003 C 13.061 28.779000000000003 12.882000000000001 27.290000000000003 12.134 26.233000000000004 C 11.637 25.531000000000006 10.929 25.102000000000004 10.191 25.055000000000003 C 9.777000000000001 25.030000000000005 9.463000000000001 24.673000000000002 9.489 24.26 S 9.870000000000001 23.509 10.284 23.559 C 11.477 23.633000000000003 12.597000000000001 24.292 13.357000000000001 25.366 C 14.368 26.794999999999998 14.627 28.749 14.066 30.727 C 13.973 31.058 13.672 31.273 13.346 31.273 Z" fill="#e2a62d" id="05"></path><path d="M 17.179 2.72 C 17.136 2.6710000000000003 17.069 2.644 16.99 2.629 C 16.99 2.629 1.065999999999999 -0.39400000000000013 0.3769999999999989 0.21399999999999997 C -0.311 0.823 0.74 16.998 0.74 16.998 C 0.745 17.079 0.763 17.148 0.8069999999999999 17.197000000000003 C 1.411 17.881000000000004 5.5649999999999995 15.193000000000003 10.086 11.196000000000002 C 14.608 7.198000000000001 17.783 3.4040000000000017 17.179000000000002 2.7200000000000006 Z" fill="#dd2e44" id="06"></path><path d="M 0.349 0.271 C 0.334 0.301 0.321 0.342 0.311 0.394 C 0.47 1.765 2.006 13.046 2.963 16.572 C 4.399 15.768999999999998 5.8580000000000005 14.677999999999999 7.572 13.318999999999999 C 6.116 10.654 1.158 0.146 0.349 0.271 Z" fill="#ea596e" id="07"></path><path d="M 29.902 29.229 L 19.329 27.926 C 18.199 27.823999999999998 16.212 27.814 16.314 26.023999999999997 C 16.407 24.400999999999996 18.354 24.650999999999996 19.793 24.863999999999997 L 30.430999999999997 26.637999999999998 L 29.901999999999997 29.229 Z" fill="#3b88c3" id="08"></path><path d="M 30.43 26.639 L 26.208 25.915 C 25.714 25.826 25.273999999999997 26.561999999999998 25.252 27.340999999999998 C 25.227 28.206999999999997 25.479 28.644999999999996 25.977999999999998 28.746999999999996 L 30.122 29.258999999999997 L 30.43 26.638999999999996 Z" fill="#88c9f9" id="09"></path><path d="M 34.918 26.341 L 32.296 28.752000000000002 L 27.608999999999998 23.655 L 30.230999999999998 21.244 C 31.592 19.992 33.73 20.082 34.982 21.443 L 35.117 21.59 C 36.367999999999995 22.951999999999998 36.278999999999996 25.089 34.918 26.341 Z" fill="#3b88c3" id="10"></path><ellipse transform="rotate(-42.597 29.954 26.205)" fill="#88C9F9" cx="29.952" cy="26.203" rx="2.77" ry="3.462" id="11"></ellipse><ellipse transform="rotate(-42.597 29.954 26.205)" fill="#269" cx="29.952" cy="26.203" rx="1.385" ry="2.077" id="12"></ellipse><circle fill="#55ACEE" cx="2.5" cy="33.5" r="1.5" id="13"></circle><circle fill="#55ACEE" cx="29" cy="2" r="2" id="14"></circle><path d=" M 26 5 L 22 6 L 23 2 Z" fill="#ea596e" id="15"></path><path d="M 4.864 29.246 L 2.526 23.63 L 0.412 29.675 Z" fill="#ea596e" id="16"></path><path d="M 31.999 13 L 36 7.999 L 33 6 Z" fill="#77b255" id="17"></path></svg>