<svg xmlns="http://www.w3.org/2000/svg" viewBox="0 0 36 36"><circle fill="#F3F7F9" cx="30.583" cy="7.966" r="4" id="00"></circle><path d="M 7.839 29.942 C 7.349 30.178 6.823 30.323 6.261 30.378 C 3.902 30.559 1.8340000000000005 28.8 1.6340000000000003 26.441 C 1.4530000000000003 24.064 3.213 22.014 5.571 21.814 C 7.077 21.705 8.437999999999999 22.358 9.29 23.447 L 7.838999999999999 29.942 Z" fill="#f3f7f9" id="01"></path><circle fill="#FFCC4D" cx="18" cy="18" r="16" id="02"></circle><path d=" M 26.286 17.023 C 26.286 18.687 25.319000000000003 20.042 24.124000000000002 20.042 C 22.928 20.042 21.962000000000003 18.687 21.962000000000003 17.023000000000003 C 21.962000000000003 15.349000000000004 22.929000000000002 14.004000000000003 24.124000000000002 14.004000000000003 C 25.320000000000004 14.003000000000004 26.286 15.349000000000004 26.286 17.023000000000003 Z" fill="#664500" id="03"></path><path d="M 15.057 17.023 C 15.057 18.687 14.091000000000001 20.042 12.905000000000001 20.042 C 11.709000000000001 20.042 10.743000000000002 18.687 10.743000000000002 17.023000000000003 C 10.743000000000002 15.349000000000004 11.710000000000003 14.004000000000003 12.905000000000001 14.004000000000003 C 14.090000000000002 14.003000000000004 15.057000000000002 15.349000000000004 15.057000000000002 17.023000000000003 Z" fill="#664500" id="04"></path><path d="M 13.931 8.882 C 13.821 9.091 13.702 9.299999999999999 13.572 9.5 C 13.133999999999999 10.168 12.596 10.765 11.968 11.274000000000001 C 11.37 11.762 10.713000000000001 12.151000000000002 10.004999999999999 12.430000000000001 C 8.390999999999998 13.098 6.477999999999999 13.167000000000002 4.912999999999999 12.55 C 4.6739999999999995 12.46 4.435 12.351 4.215999999999999 12.221 C 3.2689999999999992 11.733 2.4819999999999993 11.005 2.003999999999999 10.119 C 2.790999999999999 10.706999999999999 3.687999999999999 11.125 4.633999999999999 11.334999999999999 C 5.988999999999999 11.633999999999999 7.433999999999998 11.524 8.808999999999997 10.917 C 9.396999999999997 10.658 9.934999999999997 10.329 10.402999999999997 9.931 C 10.960999999999997 9.472999999999999 11.438999999999997 8.934999999999999 11.817999999999998 8.337 C 12.275999999999998 7.62 12.584999999999997 6.8229999999999995 12.744999999999997 5.975999999999999 C 13.322999999999997 5.826999999999999 13.860999999999997 5.586999999999999 14.318999999999997 5.238999999999999 C 14.477999999999998 5.118999999999999 14.637999999999998 4.989999999999999 14.776999999999997 4.859999999999999 C 14.876999999999997 6.212 14.597999999999997 7.626999999999999 13.930999999999997 8.882 Z" fill="#c9d5dd" id="05"></path><path d="M 35.378 4.814 C 35.439 5.627 35.165 6.4 34.676 6.98 C 34.605000000000004 7.061000000000001 34.534 7.133 34.463 7.204000000000001 C 33.985 7.651000000000001 33.355000000000004 7.956 32.653 8.017000000000001 C 32.043 8.058000000000002 31.462999999999997 7.915000000000001 30.974999999999998 7.651000000000002 C 30.750999999999998 8.048000000000002 30.476999999999997 8.403000000000002 30.171999999999997 8.729000000000001 C 30.100999999999996 8.8 30.039999999999996 8.861 29.967999999999996 8.922 C 28.727999999999998 10.101 26.988999999999997 10.701 25.168999999999997 10.396 C 23.339 10.101 21.874999999999996 8.962000000000002 21.080999999999996 7.437000000000001 C 20.907999999999998 7.112000000000001 20.765999999999995 6.766000000000001 20.663999999999994 6.400000000000001 C 20.388999999999996 6.532000000000001 20.094999999999995 6.614000000000002 19.778999999999993 6.644000000000001 C 18.456999999999994 6.746000000000001 17.297999999999995 5.759000000000001 17.185999999999993 4.438000000000001 C 17.083999999999993 3.1060000000000008 18.070999999999994 1.9570000000000007 19.392999999999994 1.8450000000000006 C 20.237999999999992 1.7840000000000007 20.999999999999993 2.150000000000001 21.477999999999994 2.7600000000000007 C 22.209999999999994 1.2550000000000008 23.694999999999993 0.1670000000000007 25.483999999999995 0.015000000000000568 C 27.618999999999993 -0.14799999999999944 29.540999999999997 1.0620000000000005 30.353999999999996 2.9130000000000007 C 30.831999999999997 2.4550000000000005 31.461999999999996 2.150000000000001 32.17399999999999 2.089000000000001 C 33.80199999999999 1.9570000000000007 35.245999999999995 3.187000000000001 35.37799999999999 4.814000000000001 Z" fill="#f3f7f9" id="06"></path><path d="M 34.467 7.208 C 34.367 7.547000000000001 34.198 7.8660000000000005 33.949 8.145 C 33.65 8.504 33.242 8.753 32.783 8.952 C 32.604 9.032 32.394 9.092 32.195 9.121 C 32.016 9.4 31.806 9.659 31.567 9.908000000000001 C 30.989 10.546000000000001 30.242 11.064000000000002 29.415 11.403000000000002 C 28 12.001000000000003 26.305999999999997 12.061000000000002 24.862 11.562000000000003 C 24.075 11.303000000000003 23.337 10.865000000000004 22.729999999999997 10.297000000000002 C 22.231999999999996 9.859000000000002 21.812999999999995 9.330000000000002 21.533999999999995 8.753000000000002 C 21.453999999999997 8.604000000000003 21.384999999999994 8.444000000000003 21.324999999999996 8.295000000000002 C 21.214999999999996 8.016000000000002 21.135999999999996 7.727000000000002 21.085999999999995 7.4380000000000015 C 21.205999999999996 7.677000000000001 21.344999999999995 7.896000000000002 21.503999999999994 8.116000000000001 C 21.961999999999993 8.764000000000001 22.559999999999995 9.322000000000001 23.267999999999994 9.730000000000002 H 23.277999999999995 C 23.845999999999997 10.059000000000003 24.483999999999995 10.288000000000002 25.170999999999996 10.398000000000001 C 26.993999999999996 10.707 28.727999999999994 10.099000000000002 29.973999999999997 8.923000000000002 C 30.043999999999997 8.863000000000001 30.103999999999996 8.803000000000003 30.173 8.734000000000002 C 30.273 8.624000000000002 30.372 8.515000000000002 30.462 8.395000000000001 C 30.661 8.166000000000002 30.831 7.917000000000002 30.98 7.6480000000000015 C 31.468 7.917000000000002 32.046 8.057000000000002 32.654 8.017000000000001 C 33.351000000000006 7.955000000000001 33.98800000000001 7.646000000000001 34.467000000000006 7.208000000000001 Z" fill="#c9d5dd" id="07"></path><path d="M 23.775 5.926 C 23.775 9.017 20.613 11.518 16.708 11.518 C 14.440999999999999 11.518 12.416999999999998 10.674000000000001 11.125999999999998 9.362 C 9.864999999999998 10.847 7.688999999999998 11.833 5.8489999999999975 11.833 C 3.0629999999999975 11.833 0.8059999999999974 9.576 0.8059999999999974 6.79 S 3.0629999999999975 1.7469999999999999 5.8489999999999975 1.7469999999999999 C 5.919999999999997 1.7469999999999999 6.000999999999998 1.7469999999999999 6.072999999999998 1.757 C 6.653 0.974 7.568 0.476 8.615 0.476 C 9.845 0.476 10.913 1.188 11.421 2.215 C 12.712 1.046 14.604 0.324 16.708 0.324 C 20.613 0.323 23.775 2.8249999999999997 23.775 5.926 Z" fill="#f3f7f9" id="08"></path><path d="M 27.92 4.408 C 27.860000000000003 4.817 27.701 5.235 27.462000000000003 5.6240000000000006 C 27.143000000000004 6.132000000000001 26.685000000000002 6.590000000000001 26.117000000000004 6.909000000000001 C 25.679000000000006 7.158 25.170000000000005 7.377000000000001 24.632000000000005 7.457000000000001 C 24.303000000000004 8.274000000000001 23.845000000000006 9.041 23.277000000000005 9.729000000000001 H 23.267000000000003 C 23.098000000000003 9.928 22.918000000000003 10.118 22.729000000000003 10.297 C 22.51 10.516 22.281000000000002 10.715 22.032000000000004 10.905000000000001 C 20.547000000000004 12.051000000000002 18.624000000000002 12.698 16.721000000000004 12.679000000000002 C 15.077000000000004 12.679000000000002 13.353000000000003 12.201000000000002 11.968000000000004 11.274000000000003 C 11.769000000000004 11.144000000000002 11.589000000000004 11.005000000000003 11.410000000000004 10.866000000000003 C 11.051000000000004 10.577000000000004 10.713000000000005 10.268000000000002 10.404000000000003 9.929000000000004 C 10.075000000000003 9.590000000000003 9.776000000000003 9.222000000000003 9.507000000000003 8.833000000000004 C 9.278000000000004 8.463000000000005 9.078000000000003 8.095000000000004 8.909000000000002 7.696000000000003 C 8.431000000000003 7.6460000000000035 7.952000000000003 7.527000000000004 7.5340000000000025 7.317000000000004 C 7.325000000000003 7.227000000000004 7.1350000000000025 7.118000000000004 6.956000000000002 6.988000000000004 C 6.388000000000003 6.580000000000004 5.930000000000002 6.052000000000004 5.701000000000002 5.434000000000004 C 5.511000000000002 5.006000000000004 5.432000000000002 4.548000000000004 5.461000000000002 4.119000000000003 C 5.890000000000002 5.524000000000004 7.285000000000002 6.421000000000003 8.750000000000002 6.232000000000003 L 8.939000000000002 6.202000000000003 C 9.328000000000001 6.132000000000002 9.686000000000002 5.9730000000000025 9.995000000000001 5.774000000000003 C 10.194 6.232000000000003 10.423000000000002 6.661000000000003 10.702000000000002 7.059000000000003 C 10.782000000000002 7.189000000000003 10.871000000000002 7.3080000000000025 10.971000000000002 7.428000000000003 C 11.220000000000002 7.757000000000002 11.509000000000002 8.066000000000003 11.818000000000001 8.335000000000003 C 12.336000000000002 8.813000000000002 12.924000000000001 9.202000000000002 13.572000000000001 9.501000000000003 C 14.369000000000002 9.880000000000003 15.256 10.099000000000004 16.193 10.139000000000003 C 18.166 10.239000000000003 19.979000000000003 9.531000000000002 21.324 8.296000000000003 L 21.503 8.117000000000003 C 22.151 7.4890000000000025 22.669 6.722000000000003 23.037 5.875000000000003 C 23.695 6.154000000000003 24.432 6.204000000000002 25.189 6.104000000000003 C 25.787 6.024000000000003 26.425 5.646000000000003 26.933 5.267000000000003 C 27.492 4.857000000000003 27.89 4.448000000000003 27.919999999999998 4.408000000000003 Z" fill="#dee7ed" id="09"></path><path d="M 33.607 33.196 C 32.783 33.826 31.746 33.979 30.831 33.664 L 30.79 33.654 C 30.79 33.67400000000001 30.397 34.86300000000001 28.868 34.854000000000006 C 28.197 34.85000000000001 27.607 34.56900000000001 27.2 34.102000000000004 C 26.397 34.854000000000006 25.319 35.322 24.119 35.322 C 23.611 35.322 23.123 35.241 22.665 35.078 C 21.953 35.576 21.089 35.869 20.143 35.871 C 18.262 35.876000000000005 17.448 35.2 17.001 34.732 C 13.110000000000001 37.003 8.127 35.903 6.518000000000001 33.949 C 6.367000000000001 33.766 6.2330000000000005 33.573 6.121 33.369 C 5.45 33.745 4.6770000000000005 33.908 3.8740000000000006 33.796 C 1.84 33.542 0.386 31.661 0.641 29.627 C 0.763 28.680999999999997 1.2309999999999999 27.868 1.902 27.288 C 1.9529999999999998 27.237000000000002 2.014 27.186 2.065 27.146 C 2.828 26.566000000000003 3.8040000000000003 26.272000000000002 4.821 26.404 C 4.984 26.424 5.136 26.455 5.289 26.496 L 5.411 26.526 C 5.563 26.567 5.7059999999999995 26.628 5.848 26.689 C 5.99 26.75 6.133 26.821 6.265 26.902 C 6.457999999999999 27.014 6.630999999999999 27.136000000000003 6.794 27.278000000000002 C 6.896 27.166000000000004 6.997 27.064000000000004 7.098999999999999 26.963 L 7.118999999999999 26.943 C 9.050999999999998 25.052 11.948999999999998 24.35 14.633 25.397000000000002 C 15.893999999999998 25.885 16.951 26.709000000000003 17.704 27.715000000000003 C 18.406 27.247000000000003 19.239 26.983000000000004 20.144000000000002 26.983000000000004 C 21.090000000000003 26.983000000000004 21.964000000000002 27.278000000000006 22.686 27.786000000000005 C 24.465 27.298000000000005 26.326 27.562000000000005 27.881999999999998 28.406000000000006 C 27.892 28.406000000000006 27.892 28.416000000000007 27.892 28.416000000000007 C 28.116 28.528000000000006 28.339 28.660000000000007 28.543 28.813000000000006 C 28.756 28.955000000000005 28.96 29.118000000000006 29.163 29.281000000000006 C 29.346 28.956000000000007 29.6 28.661000000000005 29.915 28.417000000000005 C 31.166 27.461000000000006 32.925 27.624000000000006 33.972 28.753000000000004 L 34.155 28.967000000000002 C 35.173 30.278000000000002 34.929 32.179 33.607 33.196000000000005 Z" fill="#f3f7f9" id="10"></path><path d="M 22.729 35.087 L 22.659 35.077000000000005 C 22.679 34.99700000000001 22.689 34.928000000000004 22.698999999999998 34.848000000000006 C 22.769 34.32000000000001 22.698999999999998 33.80200000000001 22.509999999999998 33.334 C 22.121 32.367000000000004 21.224999999999998 31.630000000000003 20.108999999999998 31.491000000000003 C 19.988999999999997 31.471000000000004 19.86 31.471000000000004 19.729999999999997 31.471000000000004 C 19.470999999999997 31.471000000000004 19.221999999999998 31.501000000000005 18.972999999999995 31.561000000000003 C 18.942999999999994 31.162000000000003 18.872999999999994 30.754000000000005 18.773999999999994 30.375000000000004 C 18.554999999999993 29.458000000000002 18.155999999999995 28.611000000000004 17.607999999999993 27.874000000000002 C 16.850999999999992 26.848000000000003 15.784999999999993 26.011000000000003 14.498999999999993 25.513 C 11.838999999999993 24.477 8.958999999999993 25.174000000000003 7.045999999999993 27.047 L 7.025999999999994 27.067 C 6.915999999999993 27.167 6.816999999999994 27.276 6.716999999999993 27.386 C 6.557999999999994 27.247 6.387999999999994 27.117 6.188999999999993 27.006999999999998 C 6.058999999999993 26.927 5.919999999999993 26.857999999999997 5.780999999999993 26.798 C 5.6609999999999925 26.747999999999998 5.541999999999993 26.697999999999997 5.411999999999993 26.657999999999998 C 5.391999999999993 26.647999999999996 5.361999999999993 26.647999999999996 5.3419999999999925 26.637999999999998 L 5.221999999999992 26.607999999999997 C 5.072999999999992 26.567999999999998 4.922999999999992 26.537999999999997 4.763999999999992 26.517999999999997 C 3.7479999999999922 26.377999999999997 2.780999999999992 26.676999999999996 2.023999999999992 27.254999999999995 C 1.973999999999992 27.294999999999995 1.913999999999992 27.344999999999995 1.864999999999992 27.394999999999996 L 1.854999999999992 27.374999999999996 C 2.292999999999992 26.517999999999997 3.209999999999992 25.800999999999995 4.345999999999992 25.571999999999996 C 4.475999999999992 25.551999999999996 4.604999999999992 25.521999999999995 4.734999999999992 25.511999999999997 C 5.123999999999993 25.461999999999996 5.521999999999992 25.451999999999998 5.920999999999992 25.522 C 6.8179999999999925 24.445999999999998 8.042999999999992 23.578999999999997 9.437999999999992 23.090999999999998 C 11.191999999999991 22.473 13.213999999999992 22.473 14.99799999999999 23.090999999999998 C 16.76199999999999 23.668999999999997 18.42599999999999 24.865 19.43199999999999 26.448999999999998 C 19.43199999999999 26.468999999999998 19.441999999999993 26.468999999999998 19.441999999999993 26.479 C 19.471999999999994 26.519 19.501999999999992 26.569 19.52199999999999 26.608999999999998 C 19.95999999999999 27.287 20.28899999999999 28.014 20.52799999999999 28.770999999999997 C 20.537999999999993 28.810999999999996 20.557999999999993 28.860999999999997 20.577999999999992 28.900999999999996 C 20.577999999999992 28.920999999999996 20.587999999999994 28.940999999999995 20.597999999999992 28.960999999999995 C 20.70799999999999 29.378999999999994 20.77699999999999 29.807999999999996 20.816999999999993 30.225999999999996 C 21.474999999999994 30.524999999999995 22.032999999999994 30.952999999999996 22.420999999999992 31.500999999999994 C 22.789999999999992 32.00899999999999 23.03899999999999 32.57699999999999 23.10899999999999 33.154999999999994 C 23.118999999999993 33.224999999999994 23.12899999999999 33.294 23.12899999999999 33.364 C 23.17699999999999 33.991 23.02799999999999 34.608999999999995 22.728999999999992 35.086999999999996 Z" fill="#dee7ed" id="11"></path><path d="M 34.118 28.979 C 33.122 27.963 31.497000000000003 27.753 30.252000000000002 28.480999999999998 C 30.152 28.520999999999997 30.063000000000002 28.581 29.973000000000003 28.65 C 29.654000000000003 28.889 29.395000000000003 29.177999999999997 29.206000000000003 29.497 C 29.007 29.328 28.788000000000004 29.178 28.578000000000003 29.039 C 28.369000000000003 28.89 28.140000000000004 28.76 27.910000000000004 28.650000000000002 C 27.910000000000004 28.650000000000002 27.910000000000004 28.64 27.900000000000002 28.64 C 26.007 27.664 23.685000000000002 27.494 21.573 28.391000000000002 C 21.214 28.540000000000003 20.885 28.71 20.577 28.899 C 20.557000000000002 28.859 20.537000000000003 28.809 20.527 28.769000000000002 C 20.288 28.012 19.959 27.284000000000002 19.521 26.607000000000003 C 19.661 26.537000000000003 19.79 26.467000000000002 19.92 26.408 C 21.624000000000002 25.591 23.696 25.282 25.589000000000002 25.671000000000003 C 26.526000000000003 25.860000000000003 27.422 26.179000000000002 28.249000000000002 26.608000000000004 C 28.628000000000004 26.827000000000005 28.986 27.076000000000004 29.315 27.345000000000002 C 29.973000000000003 27.096000000000004 30.67 27.006000000000004 31.318 27.096000000000004 C 31.348000000000003 27.096000000000004 31.388 27.096000000000004 31.418000000000003 27.106000000000005 C 32.135000000000005 27.216000000000005 32.793000000000006 27.475000000000005 33.281000000000006 27.903000000000006 C 33.659000000000006 28.202000000000005 33.94800000000001 28.581000000000007 34.11800000000001 28.979000000000006 Z" fill="#c9d5dd" id="12"></path></svg>