<svg xmlns="http://www.w3.org/2000/svg" viewBox="0 0 36 36"><circle fill="#FFCC4D" cx="18" cy="18" r="18" id="00"></circle><ellipse fill="#664500" cx="12" cy="13.5" rx="2.5" ry="3.5" id="01"></ellipse><ellipse fill="#664500" cx="24" cy="13.5" rx="2.5" ry="3.5" id="02"></ellipse><path d="M 27.335 22.629 C 27.157 22.468 26.891000000000002 22.458000000000002 26.7 22.6 C 26.660999999999998 22.629 22.778 25.5 18 25.5 C 13.234 25.5 9.338 22.629 9.3 22.6 C 9.109 22.458000000000002 8.843 22.470000000000002 8.665000000000001 22.629 C 8.488000000000001 22.789 8.448 23.053 8.571000000000002 23.257 C 8.7 23.472 11.788 28.5 18 28.5 S 27.301000000000002 23.472 27.429000000000002 23.256999999999998 C 27.552000000000003 23.052 27.513 22.788999999999998 27.335 22.628999999999998 Z" fill="#664500" id="03"></path><path d="M 29.5 27.5 C 29.5 30.262 27.262 32.5 24.5 32.5 S 19.5 30.262 19.5 27.5 S 23.5 17.5 24.5 17.5 S 29.5 24.738 29.5 27.5 Z" fill="#5dadec" id="04"></path></svg>