<svg xmlns="http://www.w3.org/2000/svg" viewBox="0 0 36 36"><path d="M 33 21 C 33 29.284 26.284 36 18 36 S 3 29.284 3 21 C 3 12.716 9.716 6 18 6 S 33 12.716000000000001 33 21" fill="#ffcc4d" id="00"></path><path d=" M 32 6.13 C 30.81 7.571 28.818 8.081 26.924 8.251 C 26.606 6.713 25.241 1 22.5 1 C 20.097 1 19.231 2.091 18 2.091 C 16.769 2.091 15.903 1 13.5 1 C 10.759 1 9.394 6.713 9.076 8.251000000000001 C 7.182 8.081 5.19 7.57 4 6.13 C 1.847 3.524 -1 5.444 0.442 8.304 C 2.72 12.821 8.23 16 18 16 C 27.769 16 33.278999999999996 12.821 35.558 8.304 C 37 5.444 34.153 3.524 32 6.13 Z" fill="#664500" id="01"></path><path d=" M 25.412 19.765 C 25.412 21.358 24.49 22.648 23.352 22.648 C 22.215 22.648 21.293 21.358 21.293 19.765 C 21.293 18.174 22.215 16.883 23.352 16.883 C 24.490000000000002 16.881999999999998 25.412 18.173 25.412 19.765 Z" fill="#664500" id="02"></path><path d=" M 14.706 19.765 C 14.706 21.358 13.783999999999999 22.648 12.646999999999998 22.648 S 10.587999999999997 21.358 10.587999999999997 19.765 C 10.587999999999997 18.174 11.508999999999997 16.883 12.646999999999998 16.883 S 14.706 18.173 14.706 19.765 Z" fill="#664500" id="03"></path><path d="M 25.688 25.605 C 25.541999999999998 25.472 25.322 25.464000000000002 25.166 25.582 C 25.134 25.605 21.936 27.971 18.001 27.971 C 14.076 27.971 10.868000000000002 25.606 10.836000000000002 25.582 C 10.679000000000002 25.465 10.460000000000003 25.475 10.313000000000002 25.605 C 10.167000000000002 25.737000000000002 10.134000000000002 25.955000000000002 10.236000000000002 26.122 C 10.341000000000003 26.3 12.884000000000002 30.439999999999998 18.000000000000004 30.439999999999998 C 23.115000000000002 30.439999999999998 25.659000000000002 26.299 25.765000000000004 26.122999999999998 C 25.866000000000003 25.953999999999997 25.834000000000003 25.737 25.688000000000002 25.604999999999997 Z" fill="#664500" id="04"></path><path d="M 21.5 3 C 19.631 3 18.957 3.964 18 3.964 C 17.043 3.964 16.369 3 14.5 3 C 12.037 3 11 9.75 11 9.75 S 12.282 12 18 12 C 23.719 12 25 9.75 25 9.75 S 23.963 3 21.5 3 Z" fill="#825d0e" id="05"></path><path d="M 11 6 S 13.074 8 18 8 C 22.927 8 25 6 25 6 V 8 S 22.778 10 18 10 C 13.222000000000001 10 11 8 11 8 V 6 Z" fill="#664500" id="06"></path></svg>