<svg xmlns="http://www.w3.org/2000/svg" viewBox="0 0 36 36"><path d="M 36 18 C 36 27.941000000000003 27.941000000000003 36 18 36 S 0 27.941 0 18 S 8.059 0 18 0 S 36 8.059 36 18" fill="#ffcc4d" id="00"></path><path d="M 1.24 11.018 C 1.48 11.257000000000001 2.678 11.975000000000001 2.917 12.693000000000001 C 3.157 13.410000000000002 3.6369999999999996 17.477 5.074999999999999 18.674 C 6.558 19.906 12.152 19.448 13.222999999999999 18.913999999999998 C 15.62 17.718999999999998 15.913999999999998 14.383 16.338 12.692999999999998 C 16.577 11.735999999999997 18.015 11.735999999999997 18.015 11.735999999999997 S 19.453 11.735999999999997 19.693 12.691999999999997 C 20.117 14.382999999999997 20.413 17.718999999999998 22.808 18.912999999999997 C 23.88 19.447999999999997 29.474 19.906999999999996 30.959 18.674999999999997 C 32.394999999999996 17.477999999999998 32.874 13.410999999999998 33.114 12.692999999999998 C 33.352 11.975999999999997 34.552 11.257999999999997 34.791 11.018999999999998 C 35.032 10.779999999999998 35.032 9.822999999999999 34.791 9.582999999999998 C 34.312 9.104999999999999 28.656999999999996 8.678999999999998 22.567999999999998 9.343999999999998 C 21.352999999999998 9.476999999999997 20.891 9.821999999999997 18.013999999999996 9.821999999999997 C 15.138999999999996 9.821999999999997 14.674999999999995 9.475999999999997 13.460999999999995 9.343999999999998 C 7.375999999999995 8.677999999999997 1.7199999999999953 9.103999999999997 1.2399999999999949 9.581999999999997 C 1.000999999999995 9.820999999999998 1.000999999999995 10.778999999999996 1.2399999999999949 11.017999999999997 Z" fill="#292f33" id="01"></path><path d="M 27.335 23.629 C 27.157 23.468 26.891000000000002 23.458000000000002 26.7 23.6 C 26.660999999999998 23.629 22.778 26.5 18 26.5 C 13.234 26.5 9.338 23.629 9.3 23.6 C 9.109 23.458000000000002 8.843 23.470000000000002 8.665000000000001 23.629 C 8.488000000000001 23.789 8.448 24.053 8.571000000000002 24.257 C 8.7 24.472 11.788 29.5 18 29.5 S 27.301000000000002 24.472 27.429000000000002 24.256999999999998 C 27.552000000000003 24.052 27.513 23.788999999999998 27.335 23.628999999999998 Z" fill="#664500" id="02"></path></svg>