<svg xmlns="http://www.w3.org/2000/svg" viewBox="0 0 36 36"><circle fill="#FFCC4D" cx="18" cy="18" r="18" id="00"></circle><circle fill="#664500" cx="18" cy="26" r="3" id="01"></circle><path d=" M 27.312 16.612 C 27.136000000000003 16.468999999999998 26.886000000000003 16.464 26.702 16.598 C 26.69 16.607 25.441000000000003 17.5 23 17.5 C 20.56 17.5 19.31 16.607 19.3 16.6 C 19.117 16.463 18.866 16.467000000000002 18.689 16.609 C 18.511 16.751 18.451 16.995 18.543 17.203000000000003 C 18.602999999999998 17.338000000000005 20.043 20.500000000000004 23 20.500000000000004 C 25.958 20.500000000000004 27.397 17.338000000000005 27.457 17.203000000000003 C 27.549 16.996000000000002 27.489 16.754 27.312 16.612000000000002 Z" fill="#664500" id="02"></path><path d="M 17.312 16.612 C 17.136000000000003 16.468999999999998 16.885 16.465 16.702 16.598 C 16.69 16.607 15.442000000000002 17.5 13.000000000000002 17.5 C 10.559000000000001 17.5 9.310000000000002 16.607 9.3 16.6 C 9.117 16.463 8.865 16.467000000000002 8.689 16.609 C 8.511 16.751 8.451 16.995 8.543 17.203000000000003 C 8.603 17.338000000000005 10.043 20.500000000000004 13 20.500000000000004 C 15.958 20.500000000000004 17.397 17.338000000000005 17.457 17.203000000000003 C 17.549 16.996000000000002 17.489 16.754 17.312 16.612000000000002 Z" fill="#664500" id="03"></path><path d="M 34.43 12.534 C 34.434 12.49 34.453 12.457 34.453 12.411000000000001 C 34.453 11.657000000000002 33.905 11.223 33.228 11.223 H 29.646 L 33.925 5.23 C 34.131 4.947 34.206999999999994 4.777 34.206999999999994 4.4190000000000005 C 34.206999999999994 3.6840000000000006 33.56699999999999 3.5700000000000003 33.321999999999996 3.5700000000000003 H 27.972999999999995 L 27.940999999999995 2.8820000000000006 S 26.531999999999996 3.7130000000000005 26.437999999999995 3.7700000000000005 S 25.932999999999996 4.142 25.932999999999996 4.757000000000001 C 25.932999999999996 5.511000000000001 26.478999999999996 5.944000000000001 27.157999999999998 5.944000000000001 H 30.307 L 26.046 11.937000000000001 C 25.951999999999998 12.088000000000001 25.802 12.370000000000001 25.802 12.672 C 25.802 13.294 26.31 13.596 26.913 13.596 H 33.228 C 33.486000000000004 13.596 33.743 13.52 33.909 13.42 L 35.412 12.532 H 34.43 Z" fill="#ffac33" id="04"></path><path d="M 31.771 5.084 H 28.622 C 27.943 5.084 27.397 4.651 27.397 3.8969999999999994 S 27.942999999999998 2.7089999999999996 28.622 2.7089999999999996 H 34.786 C 35.031 2.7089999999999996 35.671 2.8219999999999996 35.671 3.5569999999999995 C 35.671 3.9149999999999996 35.595 4.084999999999999 35.389 4.367999999999999 L 31.110000000000003 10.361 H 34.692 C 35.369 10.361 35.917 10.794 35.917 11.548 S 35.369 12.735 34.692 12.735 H 28.377 C 27.773999999999997 12.735 27.266 12.433 27.266 11.811 C 27.266 11.509 27.415999999999997 11.227 27.509999999999998 11.076 L 31.770999999999997 5.0840000000000005 Z" fill="#2a6797" id="05"></path><path d="M 24.886 7.48 C 24.889 7.447 24.904 7.422000000000001 24.904 7.388000000000001 C 24.904 6.824000000000001 24.494 6.4990000000000006 23.987 6.4990000000000006 H 21.305 L 24.508 2.0120000000000005 C 24.663999999999998 1.8000000000000005 24.72 1.6730000000000005 24.72 1.4060000000000006 C 24.72 0.8560000000000005 24.241 0.7710000000000006 24.057 0.7710000000000006 H 20.052999999999997 L 20.028999999999996 0.25600000000000056 S 18.973999999999997 0.8780000000000006 18.903999999999996 0.9210000000000006 C 18.833999999999996 0.9640000000000006 18.525999999999996 1.2000000000000006 18.525999999999996 1.6600000000000006 C 18.525999999999996 2.2240000000000006 18.934999999999995 2.5490000000000004 19.442999999999998 2.5490000000000004 H 21.8 L 18.61 7.0360000000000005 C 18.54 7.149000000000001 18.427 7.36 18.427 7.586 C 18.427 8.052 18.807 8.277000000000001 19.259 8.277000000000001 H 23.987000000000002 C 24.180000000000003 8.277000000000001 24.372000000000003 8.22 24.497000000000003 8.145000000000001 L 25.622000000000003 7.480000000000001 H 24.886000000000003 Z" fill="#ffac33" id="06"></path><path d="M 22.896 1.903 H 20.539 C 20.031000000000002 1.903 19.622 1.579 19.622 1.014 C 19.622 0.45000000000000007 20.031 0.125 20.539 0.125 H 25.154000000000003 C 25.338000000000005 0.125 25.817000000000004 0.21000000000000002 25.817000000000004 0.76 C 25.817000000000004 1.028 25.760000000000005 1.155 25.606000000000005 1.367 L 22.403000000000006 5.854 H 25.085000000000004 C 25.590000000000003 5.854 26.000000000000004 6.178 26.000000000000004 6.743 S 25.590000000000003 7.632000000000001 25.083000000000002 7.632000000000001 H 20.355000000000004 C 19.903000000000002 7.632000000000001 19.523000000000003 7.406000000000001 19.523000000000003 6.941000000000001 C 19.523000000000003 6.715000000000001 19.636000000000003 6.5040000000000004 19.706000000000003 6.391000000000001 L 22.896000000000004 1.9030000000000005 Z" fill="#2a6797" id="07"></path><path d="M 17.741 10.425 C 17.744 10.397 17.756 10.376000000000001 17.756 10.346 C 17.756 9.863 17.405 9.585 16.971 9.585 H 14.676 L 17.418 5.745000000000001 C 17.55 5.564000000000001 17.599 5.455000000000001 17.599 5.226000000000001 C 17.599 4.755000000000001 17.189 4.682 17.032 4.682 H 13.605 L 13.584 4.2410000000000005 L 12.621 4.8100000000000005 C 12.561 4.847 12.297 5.048 12.297 5.4430000000000005 C 12.297 5.926 12.647 6.204000000000001 13.082 6.204000000000001 H 15.099 L 12.369 10.044 C 12.309 10.141 12.212 10.322000000000001 12.212 10.515 C 12.212 10.914000000000001 12.538 11.107000000000001 12.924 11.107000000000001 H 16.971 C 17.136 11.107000000000001 17.301 11.058000000000002 17.407 10.994000000000002 L 18.37 10.425 H 17.741 Z" fill="#ffac33" id="08"></path><path d="M 16.037 5.652 H 14.02 C 13.584999999999999 5.652 13.235 5.3740000000000006 13.235 4.891 S 13.584999999999999 4.13 14.02 4.13 H 17.97 C 18.127 4.13 18.537 4.203 18.537 4.6739999999999995 C 18.537 4.903 18.489 5.012 18.355999999999998 5.193 L 15.613999999999997 9.033 H 17.909 C 18.343 9.033 18.694 9.311 18.694 9.793999999999999 S 18.343 10.554999999999998 17.909 10.554999999999998 H 13.861999999999998 C 13.475999999999999 10.554999999999998 13.149999999999999 10.361999999999998 13.149999999999999 9.962999999999997 C 13.149999999999999 9.769999999999998 13.245999999999999 9.588999999999997 13.306999999999999 9.491999999999997 L 16.037 5.6519999999999975 Z" fill="#2a6797" id="09"></path></svg>