<svg xmlns="http://www.w3.org/2000/svg" viewBox="0 0 36 36"><path d="M 36 18 C 36 27.941000000000003 27.941000000000003 36 18 36 C 8.06 36 0 27.941000000000003 0 18 C 0 8.06 8.06 0 18 0 C 27.941000000000003 0 36 8.06 36 18" fill="#ffcc4d" id="00"></path><path d=" M 18 22 C 14.376999999999999 22 11.972999999999999 21.578 9 21 C 8.321 20.869 7 21 7 23 C 7 27 11.594999999999999 32 18 32 C 24.404 32 29 27 29 23 C 29 21 27.679 20.868 27 21 C 24.027 21.578 21.623 22 18 22 Z" fill="#664500" id="01"></path><path d=" M 5 16 C 4.876 16 4.751 15.977 4.629 15.928 C 4.116 15.723 3.8669999999999995 15.141 4.071999999999999 14.628 C 6.247999999999999 9.187999999999999 11.578 8.065000000000001 11.803999999999998 8.02 C 12.346999999999998 7.914 12.871999999999998 8.263 12.980999999999998 8.804 C 13.088999999999999 9.344000000000001 12.738999999999997 9.870000000000001 12.199999999999998 9.98 C 12.014999999999997 10.018 7.693999999999997 10.96 5.928999999999998 15.371 C 5.771999999999998 15.762 5.395999999999997 16 4.999999999999997 16 Z" fill="#664500" id="02"></path><path d=" M 31 16 C 30.604 16 30.228 15.762 30.071 15.371 C 28.293000000000003 10.926 23.848000000000003 9.99 23.803 9.98 C 23.262 9.872 22.91 9.345 23.019000000000002 8.803 C 23.127000000000002 8.261000000000001 23.654000000000003 7.912000000000001 24.196 8.019 C 24.422 8.064 29.752000000000002 9.187 31.928 14.626999999999999 C 32.133 15.139999999999999 31.883 15.722 31.37 15.927 C 31.25 15.977 31.124000000000002 16 31 16 Z" fill="#664500" id="03"></path><path d=" M 16.457 17.797 C 16.397000000000002 17.662 14.958 14.5 12 14.5 C 9.043 14.5 7.603 17.662 7.543 17.797 C 7.4510000000000005 18.004 7.511 18.246000000000002 7.687 18.388 C 7.863 18.53 8.114 18.535 8.297 18.402 C 8.31 18.393 9.559000000000001 17.5 12 17.5 C 14.426 17.5 15.674 18.381 15.702 18.401 C 15.79 18.467 15.896 18.5 16 18.5 C 16.11 18.5 16.221 18.463 16.312 18.391 C 16.490000000000002 18.249 16.549 18.005 16.457 17.796999999999997 Z" fill="#664500" id="04"></path><path d="M 28.457 17.797 C 28.397000000000002 17.662 26.958000000000002 14.5 24 14.5 C 21.043 14.5 19.603 17.662 19.543 17.797 C 19.451 18.004 19.511 18.246000000000002 19.688 18.388 C 19.863 18.53 20.113999999999997 18.535 20.298 18.402 C 20.31 18.393 21.56 17.5 24 17.5 C 26.426000000000002 17.5 27.674 18.381 27.701999999999998 18.401 C 27.79 18.467 27.895999999999997 18.5 27.999999999999996 18.5 C 28.109999999999996 18.5 28.220999999999997 18.463 28.311999999999998 18.391 C 28.488999999999997 18.249 28.549999999999997 18.005 28.456999999999997 17.796999999999997 Z" fill="#664500" id="05"></path><path d="M 9 23 S 12 24 18 24 S 27 23 27 23 S 25 27 18 27 S 9 23 9 23 Z" fill="#ffffff" id="06"></path><path d=" M 25.133 28.229 C 25.813 30.906 28.532999999999998 32.524 31.21 31.844 C 33.887 31.165000000000003 35.506 28.445 34.826 25.768 C 34.146 23.091 28.488 17.060000000000002 27.518 17.306 C 26.55 17.553 24.454 25.553 25.133000000000003 28.229 Z" fill="#5dadec" id="07"></path><path d="M 10.847 28.229 C 10.167 30.906 7.446999999999999 32.524 4.77 31.844 C 2.0939999999999994 31.165000000000003 0.47499999999999964 28.445 1.1539999999999995 25.768 C 1.8329999999999995 23.091 7.491 17.060000000000002 8.461 17.306 C 9.431000000000001 17.553 11.526 25.553 10.847000000000001 28.229 Z" fill="#5dadec" id="08"></path></svg>