<svg xmlns="http://www.w3.org/2000/svg" viewBox="0 0 36 36"><circle fill="#FFCC4D" cx="18" cy="18" r="18" id="00"></circle><path d="M 16 19 C 15.581 19 15.191 18.735 15.051 18.316 C 14.848 17.717 14.034 16 13 16 C 11.938 16 11.112 17.826999999999998 10.949 18.316 C 10.774 18.839 10.211 19.124 9.684 18.948 C 9.16 18.774 8.876999999999999 18.208000000000002 9.052 17.683 C 9.177 17.307 10.355 14 13 14 S 16.823 17.307 16.948999999999998 17.684 C 17.124 18.208000000000002 16.840999999999998 18.775000000000002 16.316999999999997 18.949 C 16.210999999999995 18.983 16.103999999999996 19 15.999999999999996 19 Z" fill="#664500" id="01"></path><path d="M 26 19 C 25.581 19 25.191 18.735 25.052 18.316 C 24.849 17.717 24.033 16 23 16 C 21.938 16 21.111 17.826999999999998 20.948 18.316 C 20.773 18.839 20.212 19.124 19.683 18.948 C 19.16 18.774 18.876 18.208000000000002 19.051 17.683 C 19.177 17.307 20.355 14 23 14 S 26.823 17.307 26.948 17.684 C 27.123 18.208000000000002 26.84 18.775000000000002 26.316 18.949 C 26.211 18.983 26.104 19 26 19 Z" fill="#664500" id="02"></path><path d="M 27.335 22.629 C 27.157 22.468 26.891000000000002 22.458000000000002 26.7 22.6 C 26.660999999999998 22.629 22.778 25.5 18 25.5 C 13.234 25.5 9.338 22.629 9.3 22.6 C 9.109 22.458000000000002 8.843 22.470000000000002 8.665000000000001 22.629 C 8.488000000000001 22.789 8.448 23.053 8.571000000000002 23.257 C 8.7 23.472 11.788 28.5 18 28.5 S 27.301000000000002 23.472 27.429000000000002 23.256999999999998 C 27.552000000000003 23.052 27.513 22.788999999999998 27.335 22.628999999999998 Z" fill="#664500" id="03"></path><path d="M 33.175 8.316 S 24.132999999999996 8.477 17.999999999999996 8.477 C 14.094999999999997 8.477 2.793999999999997 8.359 2.793999999999997 8.359 L 2.272999999999997 9.235 C 5.315999999999997 11.091 11.336999999999996 12.152 17.999999999999996 12.152 C 24.595999999999997 12.152 30.575999999999997 11.111999999999998 33.651999999999994 9.292 L 33.73 9.245 S 33.355999999999995 8.581 33.175 8.315999999999999 Z" fill="#ffac33" id="04"></path><path d="M 18 7.383 C 11.139 7.383 5.09 6.55 5.09 4.647 C 5.09 4.111000000000001 5.584 3.6240000000000006 6.429 3.1980000000000004 C 7.582000000000001 2.6170000000000004 9.407 2.1540000000000004 11.618 1.8490000000000004 C 13.529 1.5870000000000004 15.716000000000001 1.4390000000000005 18 1.4390000000000005 C 20.291 1.4390000000000005 22.485 1.5870000000000004 24.4 1.8520000000000005 C 26.642 2.1620000000000004 28.485999999999997 2.6350000000000007 29.631999999999998 3.2290000000000005 C 30.438999999999997 3.6470000000000007 30.909999999999997 4.123 30.909999999999997 4.647 C 30.909999999999997 6.550000000000001 24.860999999999997 7.383000000000001 17.999999999999996 7.383000000000001 Z M 23.777 0.345 C 22.565 0.251 21.304000000000002 0.18599999999999997 20.004 0.15499999999999997 C 19.343 0.139 18.676 0.129 18 0.129 C 17.328 0.129 16.664 0.139 16.007 0.154 C 14.705000000000002 0.185 13.443000000000001 0.25 12.23 0.344 C 5.34 0.88 0.169 2.451 0.169 5.287 C 0.169 8.875 8.433 11.058 18 11.058 S 35.831 8.875 35.831 5.287 C 35.831 2.452 30.663000000000004 0.8819999999999997 23.777 0.34499999999999975 Z" fill="#5dadec" id="05"></path><path d="M 6.429 3.199 C 7.582000000000001 2.618 9.407 2.155 11.618 1.8499999999999999 L 15.984 0.162 L 16.007 0.154 C 14.705000000000002 0.185 13.443000000000001 0.25 12.23 0.344 C 10.883000000000001 0.6859999999999999 8.597000000000001 1.5710000000000002 6.311000000000001 3.246 L 6.429000000000001 3.199 Z" fill="#3b94d9" id="07"></path><path d="M 24.4 1.853 C 26.642 2.163 28.485999999999997 2.636 29.631999999999998 3.23 L 29.694 3.247 C 27.409 1.573 25.124 0.6869999999999998 23.777 0.34499999999999975 C 22.565 0.2509999999999998 21.304000000000002 0.18599999999999975 20.004 0.15499999999999975 L 20.022000000000002 0.16199999999999976 L 24.4 1.853 Z" fill="#3b94d9" id="08"></path><path d="M 28.472 3.375 C 27.812 2.932 27.126 2.465 26.471 2.115 C 23.947 0.765 21.063 0 18 0 C 15.071 0 12.305 0.7 9.86 1.941 C 8.770999999999999 2.494 7.978999999999999 2.94 7.6899999999999995 3.375 H 28.472 Z" fill="#ffcc4d" id="09"></path></svg>