<svg xmlns="http://www.w3.org/2000/svg" viewBox="0 0 36 36"><path d="M 36 18 C 36 27.941000000000003 27.941000000000003 36 18 36 C 8.06 36 0 27.941000000000003 0 18 C 0 8.06 8.06 0 18 0 C 27.941000000000003 0 36 8.06 36 18" fill="#ffcb4c" id="00"></path><ellipse fill="#65471B" cx="12.176" cy="14.71" rx="2.647" ry="3.706" id="01"></ellipse><circle fill="#F4F7F9" cx="24.882" cy="14.294" r="6.882" id="02"></circle><path d="M 14.825 9.946 C 14.503 9.946 14.184999999999999 9.799999999999999 13.976999999999999 9.523 C 12.985999999999999 8.202 11.948999999999998 7.494 10.893999999999998 7.419 C 9.503999999999998 7.324 8.370999999999999 8.366 8.159999999999998 8.577 C 7.745999999999999 8.991 7.075999999999999 8.991 6.6629999999999985 8.577 C 6.248999999999999 8.163 6.248999999999999 7.493 6.6629999999999985 7.08 C 7.119999999999998 6.623 8.791999999999998 5.144 11.043999999999999 5.307 C 12.738999999999999 5.4270000000000005 14.294999999999998 6.418 15.671 8.252 C 16.022 8.72 15.927 9.384 15.459999999999999 9.734 C 15.267999999999999 9.877 15.045 9.946 14.825 9.946 Z" fill="#65471b" id="03"></path><path d="M 32.824 36 C 32.239 36 31.764999999999997 35.526 31.764999999999997 34.941 V 14.824 C 31.764999999999997 14.239 32.239 13.765 32.824 13.765 S 33.882999999999996 14.239 33.882999999999996 14.824 V 34.942 C 33.882 35.526 33.409 36 32.824 36 Z" fill="#292f33" id="04"></path><path d=" M 24.881999999999998 20.118 C 21.671 20.118 19.058999999999997 17.506 19.058999999999997 14.293999999999999 S 21.671999999999997 8.469999999999999 24.881999999999998 8.469999999999999 C 28.092999999999996 8.469999999999999 30.705999999999996 11.081999999999999 30.705999999999996 14.293999999999999 S 28.092999999999996 20.118 24.881999999999998 20.118 Z M 32.824 12.706 C 32.769999999999996 12.706 32.719 12.718 32.666 12.722 C 31.933999999999997 9.094 28.722999999999995 6.353 24.881999999999998 6.353 C 20.503 6.353 16.941 9.915 16.941 14.294 S 20.503 22.235 24.881999999999998 22.235 C 28.349999999999998 22.235 31.298 19.997 32.378 16.892 C 32.522 16.923 32.67 16.941 32.823 16.941 C 33.993 16.941 34.941 15.992999999999999 34.941 14.822999999999999 C 34.941 13.653999999999998 33.993 12.706 32.824000000000005 12.706 Z" fill="#67757f" id="05"></path><path d="M 21.175 28.588 C 21.016000000000002 28.588 20.854 28.552 20.702 28.476000000000003 C 18.883000000000003 27.566000000000003 17.115000000000002 27.566000000000003 15.296000000000003 28.476000000000003 C 14.772000000000002 28.737000000000002 14.136000000000003 28.526000000000003 13.875000000000004 28.002000000000002 C 13.613000000000003 27.479000000000003 13.825000000000003 26.843000000000004 14.349000000000004 26.581000000000003 C 16.770000000000003 25.371000000000002 19.226000000000003 25.371000000000002 21.649000000000004 26.581000000000003 C 22.172000000000004 26.843000000000004 22.384000000000004 27.479000000000003 22.123000000000005 28.002000000000002 C 21.938000000000006 28.374000000000002 21.564000000000004 28.588 21.175000000000004 28.588 Z" fill="#65471b" id="07"></path><path d=" M 22.397 19.555 C 23.151999999999997 19.912 23.991999999999997 20.118 24.881999999999998 20.118 C 28.098 20.118 30.705999999999996 17.511 30.705999999999996 14.293999999999999 C 30.705999999999996 13.403999999999998 30.499999999999996 12.562999999999999 30.142999999999997 11.809 L 22.397 19.555 Z" fill="#bdddf4" id="08"></path><path d="M 28.049 9.411 C 27.137 8.818 26.051 8.471 24.881999999999998 8.471 C 21.665999999999997 8.471 19.058 11.078 19.058 14.295 C 19.058 15.464 19.406 16.55 19.998 17.462 L 28.049 9.411 Z" fill="#bdddf4" id="09"></path></svg>