<svg xmlns="http://www.w3.org/2000/svg" viewBox="0 0 36 36"><circle fill="#FFCB4C" cx="18" cy="17.018" r="17" id="00"></circle><path d="M 14.524 21.036 C 14.379 20.92 14.265999999999998 20.762 14.212 20.572000000000003 C 14.078 20.112000000000002 14.342 19.654000000000003 14.802 19.551000000000002 C 19.33 18.53 22.378999999999998 20.914 22.508 21.016000000000002 C 22.892 21.322000000000003 22.967 21.861 22.680999999999997 22.221000000000004 C 22.394999999999996 22.579000000000004 21.852999999999998 22.622000000000003 21.47 22.318000000000005 C 21.36 22.234000000000005 18.947 20.395000000000003 15.287999999999998 21.220000000000006 C 15.014 21.281000000000006 14.733999999999998 21.204000000000008 14.524 21.036000000000005 Z" fill="#65471b" id="01"></path><ellipse fill="#65471B" cx="13.119" cy="11.174" rx="2.125" ry="2.656" id="02"></ellipse><ellipse fill="#65471B" cx="24.375" cy="12.236" rx="2.125" ry="2.656" id="03"></ellipse><path d="M 17.276 35.149 S 18.541 34.738 18.705 33.797000000000004 C 18.877999999999997 32.825 18.081 32.63 18.081 32.63 S 19.122 32.422000000000004 19.253 31.254 C 19.376 30.153000000000002 18.392 29.891000000000002 18.392 29.891000000000002 S 19.362 29.491000000000003 19.408 28.352 C 19.446 27.393 18.413 26.924 18.413 26.924 S 23.451 25.703 23.969 25.583 C 24.485 25.462999999999997 25.289 24.968 25.038 23.889 C 24.789 22.808999999999997 23.834 22.771 23.341 22.886 C 22.847 23.000999999999998 16.597 24.451999999999998 14.441 24.954 L 13.002 25.288 C 12.462 25.415 12.217 25.178 12.598 24.776 C 13.106000000000002 24.24 13.431000000000001 23.647 13.544 22.663 C 13.663 21.628 13.312000000000001 20.35 13.111 19.854 C 12.737 18.933 12.106000000000002 18.205 11.377 17.955 C 10.24 17.564999999999998 9.432 18.276 9.835 19.516 C 10.439 21.369999999999997 10.043000000000001 22.891 9.002 23.808999999999997 C 6.553000000000001 25.965999999999998 5.414000000000001 27.503999999999998 6.172000000000001 30.781999999999996 C 7.000000000000001 34.357 10.549 36.657999999999994 14.124 35.83 L 17.276 35.149 Z" fill="#f19020" id="04"></path><path d=" M 21.430999999999997 10.100999999999999 C 21.275 10.002999999999998 21.144999999999996 9.857999999999999 21.069 9.677 C 20.881999999999998 9.235 21.092 8.75 21.537 8.593 C 25.918 7.057 29.221999999999998 9.073 29.36 9.16 C 29.775 9.42 29.915 9.947000000000001 29.672 10.338000000000001 C 29.43 10.728000000000002 28.896 10.833 28.481 10.576 C 28.361 10.504000000000001 25.754 8.955 22.214000000000002 10.197000000000001 C 21.948 10.288 21.661 10.243 21.431 10.101 Z" fill="#65471b" id="05"></path><path d="M 9.296 6.351 C 9.132 6.263 8.992999999999999 6.127 8.905 5.952 C 8.689 5.524 8.865 5.025 9.298 4.84 C 13.564 3.009 16.997 4.797 17.141 4.874 C 17.573999999999998 5.1049999999999995 17.749 5.6209999999999996 17.531999999999996 6.028 C 17.315999999999995 6.433 16.791999999999998 6.574 16.358999999999995 6.345999999999999 C 16.235999999999994 6.2829999999999995 13.526999999999994 4.914 10.080999999999996 6.392999999999999 C 9.823999999999996 6.501999999999999 9.533999999999995 6.477999999999999 9.295999999999996 6.350999999999999 Z" fill="#65471b" id="06"></path></svg>